<svg xmlns="http://www.w3.org/2000/svg" xmlns:xlink="http://www.w3.org/1999/xlink" width="800" height="367.40000000000003"><rect width="800" height="367.40000000000003" rx="0" ry="0" class="a"></rect><svg height="367.40000000000003" viewBox="0 0 80 36.74" width="800" xmlns="http://www.w3.org/2000/svg" xmlns:xlink="http://www.w3.org/1999/xlink"><style>.a{fill:rgb(40,44,52)}.b{font-family:Consolas,"Courier New",Courier,"Liberation Mono",monospace}.c{fill:rgb(171,178,191);white-space:pre}.d{fill:transparent}.e{fill:rgb(82,139,255)}.g{animation-duration:13.208s;animation-iteration-count:infinite;animation-name:f;animation-timing-function:steps(1,end)}@keyframes f{0%{transform:translateX(-0px)}0.6%{transform:translateX(-80px)}21.8%{transform:translateX(-160px)}21.8%{transform:translateX(-240px)}21.8%{transform:translateX(-320px)}21.8%{transform:translateX(-400px)}39.3%{transform:translateX(-480px)}39.3%{transform:translateX(-560px)}62%{transform:translateX(-640px)}62%{transform:translateX(-720px)}62%{transform:translateX(-800px)}77.2%{transform:translateX(-880px)}77.2%{transform:translateX(-960px)}77.3%{transform:translateX(-1040px)}100%{transform:translateX(-1120px)}}</style><g font-family="Consolas, &quot;Courier New&quot;, Courier, &quot;Liberation Mono&quot;, monospace" font-size="1.67" class="b"><defs><symbol id="1"><text x="0" y="1.67" class="c">#</text><text x="3.006" y="1.67" class="c">Create</text><text x="10.02" y="1.67" class="c">your</text><text x="15.029999999999998" y="1.67" class="c">project</text></symbol><symbol id="2"><text x="0" y="1.67" class="c">|</text></symbol><symbol id="3"><text x="0" y="1.67" class="c">o</text><text x="3.006" y="1.67" class="c">Project</text><text x="11.021999999999998" y="1.67" class="c">name</text><text x="16.032" y="1.67" class="c">(1)</text></symbol><symbol id="4"><text x="0" y="1.67" class="c">+</text><text x="3.006" y="1.67" class="c">Project</text><text x="11.021999999999998" y="1.67" class="c">name</text><text x="16.032" y="1.67" class="c">(1)</text></symbol><symbol id="5"><text x="0" y="1.67" class="c">|</text><text x="3.006" y="1.67" class="c">my-project</text></symbol><symbol id="6"><text x="0" y="1.67" class="c">+</text><text x="3.006" y="1.67" class="c">Framework</text><text x="13.026" y="1.67" class="c">(2)</text></symbol><symbol id="7"><text x="0" y="1.67" class="c">|</text><text x="3.006" y="1.67" class="c">Vue</text></symbol><symbol id="8"><text x="0" y="1.67" class="c">o</text><text x="3.006" y="1.67" class="c">Features</text><text x="12.024" y="1.67" class="c">(3)</text></symbol><symbol id="9"><text x="0" y="1.67" class="c">|</text><text x="3.006" y="1.67" class="c">Select</text><text x="10.02" y="1.67" class="c">features</text><text x="19.037999999999997" y="1.67" class="c">to</text><text x="22.043999999999997" y="1.67" class="c">include.</text></symbol><symbol id="10"><text x="0" y="1.67" class="c">|</text><text x="3.006" y="1.67" class="c">Space</text><text x="9.017999999999999" y="1.67" class="c">to</text><text x="12.024" y="1.67" class="c">toggle,</text><text x="20.04" y="1.67" class="c">enter</text><text x="26.052" y="1.67" class="c">to</text><text x="29.058" y="1.67" class="c">confirm.</text></symbol><symbol id="11"><text x="0" y="1.67" class="c">|</text><text x="3.006" y="1.67" class="c">[</text><text x="5.01" y="1.67" class="c">]</text><text x="7.013999999999999" y="1.67" class="c">TypeScript</text></symbol><symbol id="12"><text x="0" y="1.67" class="c">|</text><text x="3.006" y="1.67" class="c">[</text><text x="5.01" y="1.67" class="c">]</text><text x="7.013999999999999" y="1.67" class="c">Prettier</text></symbol><symbol id="13"><text x="0" y="1.67" class="c">|</text><text x="3.006" y="1.67" class="c">[</text><text x="5.01" y="1.67" class="c">]</text><text x="7.013999999999999" y="1.67" class="c">Vitest</text></symbol><symbol id="14"><text x="0" y="1.67" class="c">|</text><text x="3.006" y="1.67" class="c">[</text><text x="5.01" y="1.67" class="c">]</text><text x="7.013999999999999" y="1.67" class="c">Tailwind</text><text x="16.032" y="1.67" class="c">CSS</text></symbol><symbol id="15"><text x="0" y="1.67" class="c">|</text><text x="3.006" y="1.67" class="c">[x]</text><text x="7.013999999999999" y="1.67" class="c">ESLint</text></symbol><symbol id="16"><text x="0" y="1.67" class="c">+</text><text x="3.006" y="1.67" class="c">Features</text><text x="12.024" y="1.67" class="c">(3)</text></symbol><symbol id="17"><text x="0" y="1.67" class="c">|</text><text x="3.006" y="1.67" class="c">ESLint,</text><text x="11.021999999999998" y="1.67" class="c">Vitest</text></symbol><symbol id="18"><text x="0" y="1.67" class="c">+</text><text x="3.006" y="1.67" class="c">Install</text><text x="11.021999999999998" y="1.67" class="c">dependencies?</text><text x="25.05" y="1.67" class="c">(4)</text></symbol><symbol id="19"><text x="0" y="1.67" class="c">|</text><text x="3.006" y="1.67" class="c">Yes</text></symbol><symbol id="20"><text x="0" y="1.67" class="c">#</text><text x="3.006" y="1.67" class="c">You&#x27;re</text><text x="10.02" y="1.67" class="c">all</text><text x="14.027999999999999" y="1.67" class="c">set!</text></symbol><symbol id="21"><text x="0" y="1.67" class="c">Collected</text><text x="10.02" y="1.67" class="c">answers:</text></symbol><symbol id="22"><text x="2.004" y="1.67" class="c">name:</text><text x="8.016" y="1.67" class="c">my-project</text></symbol><symbol id="23"><text x="2.004" y="1.67" class="c">framework:</text><text x="13.026" y="1.67" class="c">vue</text></symbol><symbol id="24"><text x="2.004" y="1.67" class="c">features:</text><text x="12.024" y="1.67" class="c">eslint,</text><text x="20.04" y="1.67" class="c">vitest</text></symbol><symbol id="25"><text x="2.004" y="1.67" class="c">install:</text><text x="11.021999999999998" y="1.67" class="c">yes</text></symbol><symbol id="a"><rect height="20" width="80" x="0" y="0" class="d"></rect></symbol><symbol id="b"><rect height="1.837" width="1.1022" class="e"></rect></symbol></defs><rect height="36.74" width="80" class="a"></rect><g class="g"><svg x="0" y="0" width="1200"><svg x="0"><use xlink:href="#a"></use><use xlink:href="#b" x="-0.0040000000000000036" y="0"></use></svg><svg x="80"><use xlink:href="#a"></use><use xlink:href="#1" y="1.837"></use><use xlink:href="#2" y="3.674"></use><use xlink:href="#3" y="5.511"></use><text x="0" y="9.018" class="c">|</text><text x="3.006" y="9.018" class="c">Used</text><text x="8.016" y="9.018" class="c">as</text><text x="11.021999999999998" y="9.018" class="c">the</text><text x="15.029999999999998" y="9.018" class="c">directory</text><text x="25.05" y="9.018" class="c">name</text><text x="30.059999999999995" y="9.018" class="c">and</text><text x="34.068" y="9.018" class="c">the</text><text x="38.07599999999999" y="9.018" class="c">&quot;name&quot;</text><text x="45.089999999999996" y="9.018" class="c">field</text><text x="0" y="10.855" class="c">|</text><text x="3.006" y="10.855" class="c">in</text><text x="6.012" y="10.855" class="c">package.json.</text><use xlink:href="#2" y="11.022"></use><text x="0" y="14.529" class="c">|</text><text x="3.006" y="14.529" class="c">my-app█</text><use xlink:href="#2" y="14.696"></use></svg><svg x="160"><use xlink:href="#a"></use><use xlink:href="#1" y="1.837"></use><use xlink:href="#2" y="3.674"></use><text x="0" y="7.181" class="c">o</text><text x="3.006" y="7.181" class="c">P</text></svg><svg x="240"><use xlink:href="#a"></use><use xlink:href="#1" y="1.837"></use><use xlink:href="#2" y="3.674"></use><use xlink:href="#3" y="5.511"></use><text x="0" y="9.018" class="c">|</text><text x="3.006" y="9.018" class="c">Used</text><text x="8.016" y="9.018" class="c">as</text><text x="11.021999999999998" y="9.018" class="c">the</text><text x="15.029999999999998" y="9.018" class="c">directory</text><text x="25.05" y="9.018" class="c">name</text><text x="30.059999999999995" y="9.018" class="c">a</text></svg><svg x="320"><use xlink:href="#a"></use><use xlink:href="#1" y="1.837"></use><use xlink:href="#2" y="3.674"></use><use xlink:href="#4" y="5.511"></use><use xlink:href="#5" y="7.348"></use><use xlink:href="#2" y="9.185"></use></svg><svg x="400"><use xlink:href="#a"></use><use xlink:href="#1" y="1.837"></use><use xlink:href="#2" y="3.674"></use><use xlink:href="#4" y="5.511"></use><use xlink:href="#5" y="7.348"></use><use xlink:href="#2" y="9.185"></use><text x="0" y="12.692" class="c">o</text><text x="3.006" y="12.692" class="c">Framework</text><text x="13.026" y="12.692" class="c">(2)</text><text x="0" y="14.529" class="c">|</text><text x="3.006" y="14.529" class="c">The</text><text x="7.013999999999999" y="14.529" class="c">UI</text><text x="10.02" y="14.529" class="c">layer</text><text x="16.032" y="14.529" class="c">for</text><text x="20.04" y="14.529" class="c">your</text><text x="25.05" y="14.529" class="c">project.</text><use xlink:href="#2" y="14.696"></use><text x="0" y="18.203000000000003" class="c">|</text><text x="3.006" y="18.203000000000003" class="c">(*)</text><text x="7.013999999999999" y="18.203000000000003" class="c">React</text><text x="0" y="20.04" class="c">|</text><text x="5.01" y="20.04" class="c">--&gt;</text><text x="9.017999999999999" y="20.04" class="c">Component-based</text><text x="25.05" y="20.04" class="c">library</text><text x="33.065999999999995" y="20.04" class="c">by</text><text x="36.071999999999996" y="20.04" class="c">Meta</text><text x="41.082" y="20.04" class="c">with</text><text x="46.09199999999999" y="20.04" class="c">the</text><text x="50.1" y="20.04" class="c">largest</text><text x="58.116" y="20.04" class="c">ecosystem.</text><text x="0" y="21.876999999999995" class="c">|</text><text x="3.006" y="21.876999999999995" class="c">(</text><text x="5.01" y="21.876999999999995" class="c">)</text><text x="7.013999999999999" y="21.876999999999995" class="c">Vue</text><text x="0" y="23.714" class="c">|</text><text x="3.006" y="23.714" class="c">(</text><text x="5.01" y="23.714" class="c">)</text><text x="7.013999999999999" y="23.714" class="c">Svelte</text><text x="0" y="25.551000000000002" class="c">|</text><text x="3.006" y="25.551000000000002" class="c">(</text><text x="5.01" y="25.551000000000002" class="c">)</text><text x="7.013999999999999" y="25.551000000000002" class="c">Astro</text><use xlink:href="#2" y="25.718"></use></svg><svg x="480"><use xlink:href="#a"></use><use xlink:href="#1" y="1.837"></use><use xlink:href="#2" y="3.674"></use><use xlink:href="#4" y="5.511"></use><use xlink:href="#5" y="7.348"></use><use xlink:href="#2" y="9.185"></use><use xlink:href="#6" y="11.022"></use><use xlink:href="#7" y="12.859"></use><use xlink:href="#2" y="14.696"></use></svg><svg x="560"><use xlink:href="#a"></use><use xlink:href="#1" y="0"></use><use xlink:href="#2" y="1.837"></use><use xlink:href="#4" y="3.674"></use><use xlink:href="#5" y="5.511"></use><use xlink:href="#2" y="7.348"></use><use xlink:href="#6" y="9.185"></use><use xlink:href="#7" y="11.022"></use><use xlink:href="#2" y="12.859"></use><use xlink:href="#8" y="14.696"></use><use xlink:href="#9" y="16.533"></use><use xlink:href="#10" y="18.37"></use><use xlink:href="#2" y="20.206999999999997"></use><use xlink:href="#11" y="22.044"></use><text x="0" y="25.551000000000002" class="c">|</text><text x="5.01" y="25.551000000000002" class="c">--&gt;</text><text x="9.017999999999999" y="25.551000000000002" class="c">Adds</text><text x="14.027999999999999" y="25.551000000000002" class="c">type</text><text x="19.037999999999997" y="25.551000000000002" class="c">safety</text><text x="26.052" y="25.551000000000002" class="c">with</text><text x="31.061999999999998" y="25.551000000000002" class="c">static</text><text x="38.07599999999999" y="25.551000000000002" class="c">type</text><text x="43.086" y="25.551000000000002" class="c">checking.</text><text x="0" y="27.387999999999998" class="c">|</text><text x="3.006" y="27.387999999999998" class="c">[</text><text x="5.01" y="27.387999999999998" class="c">]</text><text x="7.013999999999999" y="27.387999999999998" class="c">ESLint</text><use xlink:href="#12" y="27.555"></use><use xlink:href="#13" y="29.392"></use><use xlink:href="#14" y="31.229000000000003"></use><use xlink:href="#2" y="33.066"></use></svg><svg x="640"><use xlink:href="#a"></use><use xlink:href="#2" y="0"></use><use xlink:href="#4" y="1.837"></use><use xlink:href="#5" y="3.674"></use><use xlink:href="#2" y="5.511"></use><use xlink:href="#6" y="7.348"></use><use xlink:href="#7" y="9.185"></use><use xlink:href="#2" y="11.022"></use><use xlink:href="#8" y="12.859"></use><use xlink:href="#9" y="14.696"></use><use xlink:href="#10" y="16.533"></use><use xlink:href="#2" y="18.37"></use><use xlink:href="#11" y="20.206999999999997"></use><use xlink:href="#15" y="22.044"></use><use xlink:href="#12" y="23.881000000000004"></use><use xlink:href="#13" y="25.718"></use><text x="0" y="29.225" class="c">|</text><text x="5.01" y="29.225" class="c">--&gt;</text><text x="9.017999999999999" y="29.225" class="c">Fast</text><text x="14.027999999999999" y="29.225" class="c">unit</text><text x="19.037999999999997" y="29.225" class="c">testing</text><text x="27.054" y="29.225" class="c">framewor</text></svg><svg x="720"><use xlink:href="#a"></use><use xlink:href="#2" y="0"></use><use xlink:href="#4" y="1.837"></use><use xlink:href="#5" y="3.674"></use><use xlink:href="#2" y="5.511"></use><use xlink:href="#6" y="7.348"></use><use xlink:href="#7" y="9.185"></use><use xlink:href="#2" y="11.022"></use><use xlink:href="#8" y="12.859"></use><use xlink:href="#9" y="14.696"></use><use xlink:href="#10" y="16.533"></use><use xlink:href="#2" y="18.37"></use><use xlink:href="#11" y="20.206999999999997"></use><use xlink:href="#15" y="22.044"></use><use xlink:href="#12" y="23.881000000000004"></use><use xlink:href="#13" y="25.718"></use><text x="0" y="29.225" class="c">|</text><text x="5.01" y="29.225" class="c">--&gt;</text><text x="9.017999999999999" y="29.225" class="c">Fast</text><text x="14.027999999999999" y="29.225" class="c">unit</text><text x="19.037999999999997" y="29.225" class="c">testing</text><text x="27.054" y="29.225" class="c">framework</text><text x="37.074" y="29.225" class="c">powered</text><text x="45.089999999999996" y="29.225" class="c">by</text><text x="48.096" y="29.225" class="c">Vite.</text><use xlink:href="#14" y="29.392"></use><use xlink:href="#2" y="31.229000000000003"></use></svg><svg x="800"><use xlink:href="#a"></use><use xlink:href="#2" y="0"></use><use xlink:href="#4" y="1.837"></use><use xlink:href="#5" y="3.674"></use><use xlink:href="#2" y="5.511"></use><use xlink:href="#6" y="7.348"></use><use xlink:href="#7" y="9.185"></use><use xlink:href="#2" y="11.022"></use><use xlink:href="#16" y="12.859"></use><use xlink:href="#17" y="14.696"></use><use xlink:href="#2" y="16.533"></use><text x="0" y="20.04" class="c">o</text><text x="3.006" y="20.04" class="c">Install</text><text x="11.021999999999998" y="20.04" class="c">dependencies?</text><text x="25.05" y="20.04" class="c">(4)</text><text x="0" y="21.876999999999995" class="c">|</text><text x="3.006" y="21.876999999999995" class="c">Runs</text><text x="8.016" y="21.876999999999995" class="c">npm</text><text x="12.024" y="21.876999999999995" class="c">install</text><text x="20.04" y="21.876999999999995" class="c">after</text><text x="26.052" y="21.876999999999995" class="c">scaffolding.</text><use xlink:href="#2" y="22.044"></use><text x="0" y="25.551000000000002" class="c">|</text><text x="3.006" y="25.551000000000002" class="c">(*)</text><text x="7.013999999999999" y="25.551000000000002" class="c">Yes</text><text x="11.021999999999998" y="25.551000000000002" class="c">/</text><text x="13.026" y="25.551000000000002" class="c">(</text><text x="15.029999999999998" y="25.551000000000002" class="c">)</text><text x="17.034" y="25.551000000000002" class="c">No</text><use xlink:href="#2" y="25.718"></use></svg><svg x="880"><use xlink:href="#a"></use><use xlink:href="#2" y="0"></use><use xlink:href="#6" y="1.837"></use><use xlink:href="#7" y="3.674"></use><use xlink:href="#2" y="5.511"></use><use xlink:href="#16" y="7.348"></use><use xlink:href="#17" y="9.185"></use><use xlink:href="#2" y="11.022"></use><use xlink:href="#18" y="12.859"></use><use xlink:href="#19" y="14.696"></use><use xlink:href="#2" y="16.533"></use><use xlink:href="#2" y="18.37"></use><use xlink:href="#20" y="20.206999999999997"></use><use xlink:href="#21" y="25.718"></use><use xlink:href="#22" y="27.555"></use><use xlink:href="#23" y="29.392"></use><use xlink:href="#24" y="31.229000000000003"></use><use xlink:href="#25" y="33.066"></use></svg><svg x="960"><use xlink:href="#a"></use><use xlink:href="#b" x="-0.0040000000000000036" y="34.728"></use><use xlink:href="#2" y="0"></use><use xlink:href="#6" y="1.837"></use><use xlink:href="#7" y="3.674"></use><use xlink:href="#2" y="5.511"></use><use xlink:href="#16" y="7.348"></use><use xlink:href="#17" y="9.185"></use><use xlink:href="#2" y="11.022"></use><use xlink:href="#18" y="12.859"></use><use xlink:href="#19" y="14.696"></use><use xlink:href="#2" y="16.533"></use><use xlink:href="#2" y="18.37"></use><use xlink:href="#20" y="20.206999999999997"></use><use xlink:href="#21" y="25.718"></use><use xlink:href="#22" y="27.555"></use><use xlink:href="#23" y="29.392"></use><use xlink:href="#24" y="31.229000000000003"></use><use xlink:href="#25" y="33.066"></use></svg><svg x="1040"><use xlink:href="#a"></use><use xlink:href="#b" x="-0.0040000000000000036" y="34.728"></use><use xlink:href="#2" y="0"></use><use xlink:href="#6" y="1.837"></use><use xlink:href="#7" y="3.674"></use><use xlink:href="#2" y="5.511"></use><use xlink:href="#16" y="7.348"></use><use xlink:href="#17" y="9.185"></use><use xlink:href="#2" y="11.022"></use><use xlink:href="#18" y="12.859"></use><use xlink:href="#19" y="14.696"></use><use xlink:href="#2" y="16.533"></use><use xlink:href="#2" y="18.37"></use><use xlink:href="#20" y="20.206999999999997"></use><use xlink:href="#21" y="25.718"></use><use xlink:href="#22" y="27.555"></use><use xlink:href="#23" y="29.392"></use><use xlink:href="#24" y="31.229000000000003"></use><use xlink:href="#25" y="33.066"></use></svg><svg x="1120"><use xlink:href="#a"></use><use xlink:href="#b" x="0.996" y="34.728"></use><use xlink:href="#2" y="0"></use><use xlink:href="#6" y="1.837"></use><use xlink:href="#7" y="3.674"></use><use xlink:href="#2" y="5.511"></use><use xlink:href="#16" y="7.348"></use><use xlink:href="#17" y="9.185"></use><use xlink:href="#2" y="11.022"></use><use xlink:href="#18" y="12.859"></use><use xlink:href="#19" y="14.696"></use><use xlink:href="#2" y="16.533"></use><use xlink:href="#2" y="18.37"></use><use xlink:href="#20" y="20.206999999999997"></use><use xlink:href="#21" y="25.718"></use><use xlink:href="#22" y="27.555"></use><use xlink:href="#23" y="29.392"></use><use xlink:href="#24" y="31.229000000000003"></use><use xlink:href="#25" y="33.066"></use></svg></svg></g></g></svg></svg>