<svg xmlns="http://www.w3.org/2000/svg" xmlns:xlink="http://www.w3.org/1999/xlink" width="800" height="367.40000000000003"><rect width="800" height="367.40000000000003" rx="0" ry="0" class="a"></rect><svg height="367.40000000000003" viewBox="0 0 80 36.74" width="800" xmlns="http://www.w3.org/2000/svg" xmlns:xlink="http://www.w3.org/1999/xlink"><style>.a{fill:rgb(40,44,52)}.b{font-family:Consolas,"Courier New",Courier,"Liberation Mono",monospace}.c{fill:rgb(171,178,191);white-space:pre}.d{fill:transparent}.e{fill:rgb(82,139,255)}.g{animation-duration:22.276s;animation-iteration-count:infinite;animation-name:f;animation-timing-function:steps(1,end)}@keyframes f{0%{transform:translateX(-0px)}0.4%{transform:translateX(-80px)}0.4%{transform:translateX(-160px)}4.9%{transform:translateX(-240px)}4.9%{transform:translateX(-320px)}9.4%{transform:translateX(-400px)}13.9%{transform:translateX(-480px)}22.89%{transform:translateX(-560px)}31.89%{transform:translateX(-640px)}31.89%{transform:translateX(-720px)}44.99%{transform:translateX(-800px)}54%{transform:translateX(-880px)}54%{transform:translateX(-960px)}64.37%{transform:translateX(-1040px)}64.37%{transform:translateX(-1120px)}77.46%{transform:translateX(-1200px)}81.95%{transform:translateX(-1280px)}86.47%{transform:translateX(-1360px)}86.47%{transform:translateX(-1440px)}86.5%{transform:translateX(-1520px)}86.53%{transform:translateX(-1600px)}100%{transform:translateX(-1680px)}}</style><g font-family="Consolas, &quot;Courier New&quot;, Courier, &quot;Liberation Mono&quot;, monospace" font-size="1.67" class="b"><defs><symbol id="1"><text x="0" y="1.67" class="c">#</text><text x="3.006" y="1.67" class="c">Project</text><text x="11.021999999999998" y="1.67" class="c">scaffolder</text></symbol><symbol id="2"><text x="0" y="1.67" class="c">|</text></symbol><symbol id="3"><text x="0" y="1.67" class="c">+</text><text x="3.006" y="1.67" class="c">Project</text><text x="11.021999999999998" y="1.67" class="c">type</text><text x="16.032" y="1.67" class="c">(1)</text></symbol><symbol id="4"><text x="0" y="1.67" class="c">|</text><text x="3.006" y="1.67" class="c">Application</text></symbol><symbol id="5"><text x="0" y="1.67" class="c">|</text><text x="3.006" y="1.67" class="c">|</text></symbol><symbol id="6"><text x="0" y="1.67" class="c">|</text><text x="3.006" y="1.67" class="c">+</text><text x="6.012" y="1.67" class="c">App</text><text x="10.02" y="1.67" class="c">framework</text><text x="20.04" y="1.67" class="c">(1.1)</text></symbol><symbol id="7"><text x="0" y="1.67" class="c">|</text><text x="6.012" y="1.67" class="c">Next.js</text></symbol><symbol id="8"><text x="0" y="1.67" class="c">|</text><text x="6.012" y="1.67" class="c">|</text></symbol><symbol id="9"><text x="0" y="1.67" class="c">|</text><text x="6.012" y="1.67" class="c">+</text><text x="9.017999999999999" y="1.67" class="c">SSR</text><text x="13.026" y="1.67" class="c">mode</text><text x="18.035999999999998" y="1.67" class="c">(1.1.1)</text></symbol><symbol id="10"><text x="0" y="1.67" class="c">|</text><text x="6.012" y="1.67" class="c">|</text><text x="9.017999999999999" y="1.67" class="c">Server-side</text></symbol><symbol id="11"><text x="0" y="1.67" class="c">|</text><text x="6.012" y="1.67" class="c">+</text><text x="9.017999999999999" y="1.67" class="c">Use</text><text x="13.026" y="1.67" class="c">edge</text><text x="18.035999999999998" y="1.67" class="c">runtime?</text><text x="27.054" y="1.67" class="c">(1.1.2)</text></symbol><symbol id="12"><text x="0" y="1.67" class="c">|</text><text x="6.012" y="1.67" class="c">|</text><text x="9.017999999999999" y="1.67" class="c">Yes</text></symbol><symbol id="13"><text x="0" y="1.67" class="c">|</text><text x="6.012" y="1.67" class="c">+</text><text x="9.017999999999999" y="1.67" class="c">Include</text><text x="17.034" y="1.67" class="c">API</text><text x="21.041999999999998" y="1.67" class="c">routes?</text><text x="29.058" y="1.67" class="c">(1.1.3)</text></symbol><symbol id="14"><text x="0" y="1.67" class="c">|</text><text x="9.017999999999999" y="1.67" class="c">Yes</text></symbol><symbol id="15"><text x="0" y="1.67" class="c">+</text><text x="3.006" y="1.67" class="c">Code</text><text x="8.016" y="1.67" class="c">quality</text><text x="16.032" y="1.67" class="c">(2)</text></symbol><symbol id="16"><text x="0" y="1.67" class="c">|</text><text x="3.006" y="1.67" class="c">TypeScript,</text><text x="15.029999999999998" y="1.67" class="c">ESLint</text></symbol><symbol id="17"><text x="0" y="1.67" class="c">|</text><text x="3.006" y="1.67" class="c">+</text><text x="6.012" y="1.67" class="c">Strict</text><text x="13.026" y="1.67" class="c">TypeScript?</text><text x="25.05" y="1.67" class="c">(2.1)</text></symbol><symbol id="18"><text x="0" y="1.67" class="c">|</text><text x="3.006" y="1.67" class="c">|</text><text x="6.012" y="1.67" class="c">Yes</text></symbol><symbol id="19"><text x="0" y="1.67" class="c">|</text><text x="3.006" y="1.67" class="c">+</text><text x="6.012" y="1.67" class="c">ESLint</text><text x="13.026" y="1.67" class="c">config</text><text x="20.04" y="1.67" class="c">(2.2)</text></symbol><symbol id="20"><text x="0" y="1.67" class="c">|</text><text x="6.012" y="1.67" class="c">Strict</text></symbol><symbol id="21"><text x="0" y="1.67" class="c">+</text><text x="3.006" y="1.67" class="c">Testing</text><text x="11.021999999999998" y="1.67" class="c">(3)</text></symbol><symbol id="22"><text x="0" y="1.67" class="c">|</text><text x="3.006" y="1.67" class="c">Unit</text><text x="8.016" y="1.67" class="c">tests,</text><text x="15.029999999999998" y="1.67" class="c">E2E</text><text x="19.037999999999997" y="1.67" class="c">tests</text></symbol><symbol id="23"><text x="0" y="1.67" class="c">|</text><text x="3.006" y="1.67" class="c">+</text><text x="6.012" y="1.67" class="c">Unit</text><text x="11.021999999999998" y="1.67" class="c">test</text><text x="16.032" y="1.67" class="c">runner</text><text x="23.045999999999996" y="1.67" class="c">(3.1)</text></symbol><symbol id="24"><text x="0" y="1.67" class="c">|</text><text x="3.006" y="1.67" class="c">|</text><text x="6.012" y="1.67" class="c">Vitest</text></symbol><symbol id="25"><text x="0" y="1.67" class="c">|</text><text x="3.006" y="1.67" class="c">+</text><text x="6.012" y="1.67" class="c">E2E</text><text x="10.02" y="1.67" class="c">framework</text><text x="20.04" y="1.67" class="c">(3.2)</text></symbol><symbol id="26"><text x="0" y="1.67" class="c">|</text><text x="6.012" y="1.67" class="c">Playwright</text></symbol><symbol id="27"><text x="0" y="1.67" class="c">#</text><text x="3.006" y="1.67" class="c">Project</text><text x="11.021999999999998" y="1.67" class="c">configured!</text></symbol><symbol id="28"><text x="0" y="1.67" class="c">All</text><text x="4.008" y="1.67" class="c">answers:</text></symbol><symbol id="29"><text x="2.004" y="1.67" class="c">type:</text><text x="8.016" y="1.67" class="c">app</text></symbol><symbol id="30"><text x="2.004" y="1.67" class="c">app_framework:</text><text x="17.034" y="1.67" class="c">next</text></symbol><symbol id="31"><text x="2.004" y="1.67" class="c">ssr_mode:</text><text x="12.024" y="1.67" class="c">ssr</text></symbol><symbol id="32"><text x="2.004" y="1.67" class="c">edge_runtime:</text><text x="16.032" y="1.67" class="c">yes</text></symbol><symbol id="33"><text x="2.004" y="1.67" class="c">api_routes:</text><text x="14.027999999999999" y="1.67" class="c">yes</text></symbol><symbol id="34"><text x="2.004" y="1.67" class="c">quality:</text><text x="11.021999999999998" y="1.67" class="c">typescript,</text><text x="23.045999999999996" y="1.67" class="c">eslint</text></symbol><symbol id="35"><text x="2.004" y="1.67" class="c">ts_strict:</text><text x="13.026" y="1.67" class="c">yes</text></symbol><symbol id="36"><text x="2.004" y="1.67" class="c">eslint_config:</text><text x="17.034" y="1.67" class="c">strict</text></symbol><symbol id="37"><text x="2.004" y="1.67" class="c">testing:</text><text x="11.021999999999998" y="1.67" class="c">unit,</text><text x="17.034" y="1.67" class="c">e2e</text></symbol><symbol id="38"><text x="2.004" y="1.67" class="c">test_runner:</text><text x="15.029999999999998" y="1.67" class="c">vitest</text></symbol><symbol id="39"><text x="2.004" y="1.67" class="c">e2e_runner:</text><text x="14.027999999999999" y="1.67" class="c">playwright</text></symbol><symbol id="a"><rect height="20" width="80" x="0" y="0" class="d"></rect></symbol><symbol id="b"><rect height="1.837" width="1.1022" class="e"></rect></symbol></defs><rect height="36.74" width="80" class="a"></rect><g class="g"><svg x="0" y="0" width="1760"><svg x="0"><use xlink:href="#a"></use><use xlink:href="#b" x="-0.0040000000000000036" y="0"></use></svg><svg x="80"><use xlink:href="#a"></use><use xlink:href="#1" y="1.837"></use><use xlink:href="#2" y="3.674"></use></svg><svg x="160"><use xlink:href="#a"></use><use xlink:href="#1" y="1.837"></use><use xlink:href="#2" y="3.674"></use><text x="0" y="7.181" class="c">o</text><text x="3.006" y="7.181" class="c">Project</text><text x="11.021999999999998" y="7.181" class="c">type</text><text x="16.032" y="7.181" class="c">(1)</text><text x="0" y="9.018" class="c">|</text><text x="3.006" y="9.018" class="c">What</text><text x="8.016" y="9.018" class="c">are</text><text x="12.024" y="9.018" class="c">you</text><text x="16.032" y="9.018" class="c">building?</text><use xlink:href="#2" y="9.185"></use><text x="0" y="12.692" class="c">|</text><text x="3.006" y="12.692" class="c">(*)</text><text x="7.013999999999999" y="12.692" class="c">Application</text><text x="0" y="14.529" class="c">|</text><text x="5.01" y="14.529" class="c">--&gt;</text><text x="9.017999999999999" y="14.529" class="c">Full-stack</text><text x="20.04" y="14.529" class="c">or</text><text x="23.045999999999996" y="14.529" class="c">single-page</text><text x="35.06999999999999" y="14.529" class="c">application.</text><text x="0" y="16.366" class="c">|</text><text x="3.006" y="16.366" class="c">(</text><text x="5.01" y="16.366" class="c">)</text><text x="7.013999999999999" y="16.366" class="c">Library</text><text x="0" y="18.203000000000003" class="c">|</text><text x="3.006" y="18.203000000000003" class="c">(</text><text x="5.01" y="18.203000000000003" class="c">)</text><text x="7.013999999999999" y="18.203000000000003" class="c">Static</text><text x="14.027999999999999" y="18.203000000000003" class="c">site</text><use xlink:href="#2" y="18.37"></use></svg><svg x="240"><use xlink:href="#a"></use><use xlink:href="#1" y="1.837"></use><use xlink:href="#2" y="3.674"></use><use xlink:href="#3" y="5.511"></use><use xlink:href="#4" y="7.348"></use><use xlink:href="#2" y="9.185"></use><use xlink:href="#5" y="11.022"></use></svg><svg x="320"><use xlink:href="#a"></use><use xlink:href="#1" y="1.837"></use><use xlink:href="#2" y="3.674"></use><use xlink:href="#3" y="5.511"></use><use xlink:href="#4" y="7.348"></use><use xlink:href="#2" y="9.185"></use><use xlink:href="#5" y="11.022"></use><text x="0" y="14.529" class="c">|</text><text x="3.006" y="14.529" class="c">o</text><text x="6.012" y="14.529" class="c">App</text><text x="10.02" y="14.529" class="c">framework</text><text x="20.04" y="14.529" class="c">(1.1)</text><text x="0" y="16.366" class="c">|</text><text x="6.012" y="16.366" class="c">Server-side</text><text x="18.035999999999998" y="16.366" class="c">rendering</text><text x="28.055999999999997" y="16.366" class="c">framework.</text><use xlink:href="#2" y="16.533"></use><text x="0" y="20.04" class="c">|</text><text x="6.012" y="20.04" class="c">(*)</text><text x="10.02" y="20.04" class="c">Next.js</text><text x="0" y="21.876999999999995" class="c">|</text><text x="6.012" y="21.876999999999995" class="c">(</text><text x="8.016" y="21.876999999999995" class="c">)</text><text x="10.02" y="21.876999999999995" class="c">Nuxt</text><text x="0" y="23.714" class="c">|</text><text x="6.012" y="23.714" class="c">(</text><text x="8.016" y="23.714" class="c">)</text><text x="10.02" y="23.714" class="c">SvelteKit</text><use xlink:href="#2" y="23.881000000000004"></use></svg><svg x="400"><use xlink:href="#a"></use><use xlink:href="#1" y="1.837"></use><use xlink:href="#2" y="3.674"></use><use xlink:href="#3" y="5.511"></use><use xlink:href="#4" y="7.348"></use><use xlink:href="#2" y="9.185"></use><use xlink:href="#5" y="11.022"></use><use xlink:href="#6" y="12.859"></use><use xlink:href="#7" y="14.696"></use><use xlink:href="#2" y="16.533"></use><use xlink:href="#8" y="18.37"></use><text x="0" y="21.876999999999995" class="c">|</text><text x="6.012" y="21.876999999999995" class="c">o</text><text x="9.017999999999999" y="21.876999999999995" class="c">SSR</text><text x="13.026" y="21.876999999999995" class="c">mode</text><text x="18.035999999999998" y="21.876999999999995" class="c">(1.1.1)</text><text x="0" y="23.714" class="c">|</text><text x="6.012" y="23.714" class="c">|</text><text x="9.017999999999999" y="23.714" class="c">How</text><text x="13.026" y="23.714" class="c">pages</text><text x="19.037999999999997" y="23.714" class="c">are</text><text x="23.045999999999996" y="23.714" class="c">rendered.</text><use xlink:href="#8" y="23.881000000000004"></use><text x="0" y="27.387999999999998" class="c">|</text><text x="6.012" y="27.387999999999998" class="c">|</text><text x="9.017999999999999" y="27.387999999999998" class="c">(*)</text><text x="13.026" y="27.387999999999998" class="c">Server-side</text><text x="0" y="29.225" class="c">|</text><text x="6.012" y="29.225" class="c">|</text><text x="9.017999999999999" y="29.225" class="c">(</text><text x="11.021999999999998" y="29.225" class="c">)</text><text x="13.026" y="29.225" class="c">Static</text><text x="20.04" y="29.225" class="c">generation</text><text x="0" y="31.061999999999998" class="c">|</text><text x="6.012" y="31.061999999999998" class="c">|</text><text x="9.017999999999999" y="31.061999999999998" class="c">(</text><text x="11.021999999999998" y="31.061999999999998" class="c">)</text><text x="13.026" y="31.061999999999998" class="c">Hybrid</text><use xlink:href="#8" y="31.229000000000003"></use></svg><svg x="480"><use xlink:href="#a"></use><use xlink:href="#1" y="1.837"></use><use xlink:href="#2" y="3.674"></use><use xlink:href="#3" y="5.511"></use><use xlink:href="#4" y="7.348"></use><use xlink:href="#2" y="9.185"></use><use xlink:href="#5" y="11.022"></use><use xlink:href="#6" y="12.859"></use><use xlink:href="#7" y="14.696"></use><use xlink:href="#2" y="16.533"></use><use xlink:href="#8" y="18.37"></use><use xlink:href="#9" y="20.206999999999997"></use><use xlink:href="#10" y="22.044"></use><use xlink:href="#8" y="23.881000000000004"></use><text x="0" y="27.387999999999998" class="c">|</text><text x="6.012" y="27.387999999999998" class="c">o</text><text x="9.017999999999999" y="27.387999999999998" class="c">Use</text><text x="13.026" y="27.387999999999998" class="c">edge</text><text x="18.035999999999998" y="27.387999999999998" class="c">runtime?</text><text x="27.054" y="27.387999999999998" class="c">(1.1.2)</text><text x="0" y="29.225" class="c">|</text><text x="6.012" y="29.225" class="c">|</text><text x="9.017999999999999" y="29.225" class="c">Deploy</text><text x="16.032" y="29.225" class="c">to</text><text x="19.037999999999997" y="29.225" class="c">edge</text><text x="24.048" y="29.225" class="c">functions</text><text x="34.068" y="29.225" class="c">for</text><text x="38.07599999999999" y="29.225" class="c">lower</text><text x="44.087999999999994" y="29.225" class="c">latency.</text><use xlink:href="#8" y="29.392"></use><text x="0" y="32.899" class="c">|</text><text x="6.012" y="32.899" class="c">|</text><text x="9.017999999999999" y="32.899" class="c">(*)</text><text x="13.026" y="32.899" class="c">Yes</text><text x="17.034" y="32.899" class="c">/</text><text x="19.037999999999997" y="32.899" class="c">(</text><text x="21.041999999999998" y="32.899" class="c">)</text><text x="23.045999999999996" y="32.899" class="c">No</text><use xlink:href="#8" y="33.066"></use></svg><svg x="560"><use xlink:href="#a"></use><use xlink:href="#3" y="0"></use><use xlink:href="#4" y="1.837"></use><use xlink:href="#2" y="3.674"></use><use xlink:href="#5" y="5.511"></use><use xlink:href="#6" y="7.348"></use><use xlink:href="#7" y="9.185"></use><use xlink:href="#2" y="11.022"></use><use xlink:href="#8" y="12.859"></use><use xlink:href="#9" y="14.696"></use><use xlink:href="#10" y="16.533"></use><use xlink:href="#8" y="18.37"></use><use xlink:href="#11" y="20.206999999999997"></use><use xlink:href="#12" y="22.044"></use><use xlink:href="#8" y="23.881000000000004"></use><text x="0" y="27.387999999999998" class="c">|</text><text x="6.012" y="27.387999999999998" class="c">o</text><text x="9.017999999999999" y="27.387999999999998" class="c">Include</text><text x="17.034" y="27.387999999999998" class="c">API</text><text x="21.041999999999998" y="27.387999999999998" class="c">routes?</text><text x="29.058" y="27.387999999999998" class="c">(1.1.3)</text><text x="0" y="29.225" class="c">|</text><text x="9.017999999999999" y="29.225" class="c">Add</text><text x="13.026" y="29.225" class="c">server-side</text><text x="25.05" y="29.225" class="c">API</text><text x="29.058" y="29.225" class="c">endpoints.</text><use xlink:href="#2" y="29.392"></use><text x="0" y="32.899" class="c">|</text><text x="9.017999999999999" y="32.899" class="c">(*)</text><text x="13.026" y="32.899" class="c">Yes</text><text x="17.034" y="32.899" class="c">/</text><text x="19.037999999999997" y="32.899" class="c">(</text><text x="21.041999999999998" y="32.899" class="c">)</text><text x="23.045999999999996" y="32.899" class="c">No</text><use xlink:href="#2" y="33.066"></use></svg><svg x="640"><use xlink:href="#a"></use><use xlink:href="#3" y="0"></use><use xlink:href="#4" y="1.837"></use><use xlink:href="#2" y="3.674"></use><use xlink:href="#5" y="5.511"></use><use xlink:href="#6" y="7.348"></use><use xlink:href="#7" y="9.185"></use><use xlink:href="#2" y="11.022"></use><use xlink:href="#8" y="12.859"></use><use xlink:href="#9" y="14.696"></use><use xlink:href="#10" y="16.533"></use><use xlink:href="#8" y="18.37"></use><use xlink:href="#11" y="20.206999999999997"></use><use xlink:href="#12" y="22.044"></use><use xlink:href="#8" y="23.881000000000004"></use><use xlink:href="#13" y="25.718"></use><use xlink:href="#14" y="27.555"></use><use xlink:href="#2" y="29.392"></use></svg><svg x="720"><use xlink:href="#a"></use><use xlink:href="#9" y="0"></use><use xlink:href="#10" y="1.837"></use><use xlink:href="#8" y="3.674"></use><use xlink:href="#11" y="5.511"></use><use xlink:href="#12" y="7.348"></use><use xlink:href="#8" y="9.185"></use><use xlink:href="#13" y="11.022"></use><use xlink:href="#14" y="12.859"></use><use xlink:href="#2" y="14.696"></use><text x="0" y="18.203000000000003" class="c">o</text><text x="3.006" y="18.203000000000003" class="c">Code</text><text x="8.016" y="18.203000000000003" class="c">quality</text><text x="16.032" y="18.203000000000003" class="c">(2)</text><text x="0" y="20.04" class="c">|</text><text x="3.006" y="20.04" class="c">Select</text><text x="10.02" y="20.04" class="c">code</text><text x="15.029999999999998" y="20.04" class="c">quality</text><text x="23.045999999999996" y="20.04" class="c">tools.</text><text x="0" y="21.876999999999995" class="c">|</text><text x="3.006" y="21.876999999999995" class="c">Space</text><text x="9.017999999999999" y="21.876999999999995" class="c">to</text><text x="12.024" y="21.876999999999995" class="c">toggle,</text><text x="20.04" y="21.876999999999995" class="c">enter</text><text x="26.052" y="21.876999999999995" class="c">to</text><text x="29.058" y="21.876999999999995" class="c">confirm.</text><use xlink:href="#2" y="22.044"></use><text x="0" y="25.551000000000002" class="c">|</text><text x="3.006" y="25.551000000000002" class="c">[</text><text x="5.01" y="25.551000000000002" class="c">]</text><text x="7.013999999999999" y="25.551000000000002" class="c">TypeScript</text><text x="0" y="27.387999999999998" class="c">|</text><text x="5.01" y="27.387999999999998" class="c">--&gt;</text><text x="9.017999999999999" y="27.387999999999998" class="c">Adds</text><text x="14.027999999999999" y="27.387999999999998" class="c">type</text><text x="19.037999999999997" y="27.387999999999998" class="c">safety</text><text x="26.052" y="27.387999999999998" class="c">with</text><text x="31.061999999999998" y="27.387999999999998" class="c">static</text><text x="38.07599999999999" y="27.387999999999998" class="c">type</text><text x="43.086" y="27.387999999999998" class="c">checking.</text><text x="0" y="29.225" class="c">|</text><text x="3.006" y="29.225" class="c">[</text><text x="5.01" y="29.225" class="c">]</text><text x="7.013999999999999" y="29.225" class="c">ESLint</text><text x="0" y="31.061999999999998" class="c">|</text><text x="3.006" y="31.061999999999998" class="c">[</text><text x="5.01" y="31.061999999999998" class="c">]</text><text x="7.013999999999999" y="31.061999999999998" class="c">Prettier</text><text x="0" y="32.899" class="c">|</text><text x="3.006" y="32.899" class="c">[</text><text x="5.01" y="32.899" class="c">]</text><text x="7.013999999999999" y="32.899" class="c">Husky</text><use xlink:href="#2" y="33.066"></use></svg><svg x="800"><use xlink:href="#a"></use><use xlink:href="#9" y="0"></use><use xlink:href="#10" y="1.837"></use><use xlink:href="#8" y="3.674"></use><use xlink:href="#11" y="5.511"></use><use xlink:href="#12" y="7.348"></use><use xlink:href="#8" y="9.185"></use><use xlink:href="#13" y="11.022"></use><use xlink:href="#14" y="12.859"></use><use xlink:href="#2" y="14.696"></use><use xlink:href="#15" y="16.533"></use><use xlink:href="#16" y="18.37"></use><use xlink:href="#2" y="20.206999999999997"></use><use xlink:href="#5" y="22.044"></use><text x="0" y="25.551000000000002" class="c">|</text><text x="3.006" y="25.551000000000002" class="c">o</text><text x="6.012" y="25.551000000000002" class="c">Strict</text><text x="13.026" y="25.551000000000002" class="c">TypeScript?</text><text x="25.05" y="25.551000000000002" class="c">(2.1)</text><text x="0" y="27.387999999999998" class="c">|</text><text x="3.006" y="27.387999999999998" class="c">|</text><text x="6.012" y="27.387999999999998" class="c">Enables</text><text x="14.027999999999999" y="27.387999999999998" class="c">strict</text><text x="21.041999999999998" y="27.387999999999998" class="c">mode</text><text x="26.052" y="27.387999999999998" class="c">in</text><text x="29.058" y="27.387999999999998" class="c">tsconfig.json.</text><use xlink:href="#5" y="27.555"></use><text x="0" y="31.061999999999998" class="c">|</text><text x="3.006" y="31.061999999999998" class="c">|</text><text x="6.012" y="31.061999999999998" class="c">(*)</text><text x="10.02" y="31.061999999999998" class="c">Yes</text><text x="14.027999999999999" y="31.061999999999998" class="c">/</text><text x="16.032" y="31.061999999999998" class="c">(</text><text x="18.035999999999998" y="31.061999999999998" class="c">)</text><text x="20.04" y="31.061999999999998" class="c">No</text><use xlink:href="#5" y="31.229000000000003"></use></svg><svg x="880"><use xlink:href="#a"></use><use xlink:href="#9" y="0"></use><use xlink:href="#10" y="1.837"></use><use xlink:href="#8" y="3.674"></use><use xlink:href="#11" y="5.511"></use><use xlink:href="#12" y="7.348"></use><use xlink:href="#8" y="9.185"></use><use xlink:href="#13" y="11.022"></use><use xlink:href="#14" y="12.859"></use><use xlink:href="#2" y="14.696"></use><use xlink:href="#15" y="16.533"></use><use xlink:href="#16" y="18.37"></use><use xlink:href="#2" y="20.206999999999997"></use><use xlink:href="#5" y="22.044"></use><use xlink:href="#17" y="23.881000000000004"></use><use xlink:href="#18" y="25.718"></use><use xlink:href="#5" y="27.555"></use></svg><svg x="960"><use xlink:href="#a"></use><use xlink:href="#12" y="0"></use><use xlink:href="#8" y="1.837"></use><use xlink:href="#13" y="3.674"></use><use xlink:href="#14" y="5.511"></use><use xlink:href="#2" y="7.348"></use><use xlink:href="#15" y="9.185"></use><use xlink:href="#16" y="11.022"></use><use xlink:href="#2" y="12.859"></use><use xlink:href="#5" y="14.696"></use><use xlink:href="#17" y="16.533"></use><use xlink:href="#18" y="18.37"></use><use xlink:href="#5" y="20.206999999999997"></use><text x="0" y="23.714" class="c">|</text><text x="3.006" y="23.714" class="c">o</text><text x="6.012" y="23.714" class="c">ESLint</text><text x="13.026" y="23.714" class="c">config</text><text x="20.04" y="23.714" class="c">(2.2)</text><text x="0" y="25.551000000000002" class="c">|</text><text x="6.012" y="25.551000000000002" class="c">Base</text><text x="11.021999999999998" y="25.551000000000002" class="c">ESLint</text><text x="18.035999999999998" y="25.551000000000002" class="c">configuration.</text><use xlink:href="#2" y="25.718"></use><text x="0" y="29.225" class="c">|</text><text x="6.012" y="29.225" class="c">(*)</text><text x="10.02" y="29.225" class="c">Recommended</text><text x="0" y="31.061999999999998" class="c">|</text><text x="6.012" y="31.061999999999998" class="c">(</text><text x="8.016" y="31.061999999999998" class="c">)</text><text x="10.02" y="31.061999999999998" class="c">Strict</text><text x="0" y="32.899" class="c">|</text><text x="6.012" y="32.899" class="c">(</text><text x="8.016" y="32.899" class="c">)</text><text x="10.02" y="32.899" class="c">Custom</text><use xlink:href="#2" y="33.066"></use></svg><svg x="1040"><use xlink:href="#a"></use><use xlink:href="#12" y="0"></use><use xlink:href="#8" y="1.837"></use><use xlink:href="#13" y="3.674"></use><use xlink:href="#14" y="5.511"></use><use xlink:href="#2" y="7.348"></use><use xlink:href="#15" y="9.185"></use><use xlink:href="#16" y="11.022"></use><use xlink:href="#2" y="12.859"></use><use xlink:href="#5" y="14.696"></use><use xlink:href="#17" y="16.533"></use><use xlink:href="#18" y="18.37"></use><use xlink:href="#5" y="20.206999999999997"></use><use xlink:href="#19" y="22.044"></use><use xlink:href="#20" y="23.881000000000004"></use><use xlink:href="#2" y="25.718"></use></svg><svg x="1120"><use xlink:href="#a"></use><use xlink:href="#2" y="0"></use><use xlink:href="#15" y="1.837"></use><use xlink:href="#16" y="3.674"></use><use xlink:href="#2" y="5.511"></use><use xlink:href="#5" y="7.348"></use><use xlink:href="#17" y="9.185"></use><use xlink:href="#18" y="11.022"></use><use xlink:href="#5" y="12.859"></use><use xlink:href="#19" y="14.696"></use><use xlink:href="#20" y="16.533"></use><use xlink:href="#2" y="18.37"></use><text x="0" y="21.876999999999995" class="c">o</text><text x="3.006" y="21.876999999999995" class="c">Testing</text><text x="11.021999999999998" y="21.876999999999995" class="c">(3)</text><text x="0" y="23.714" class="c">|</text><text x="3.006" y="23.714" class="c">Select</text><text x="10.02" y="23.714" class="c">testing</text><text x="18.035999999999998" y="23.714" class="c">tools.</text><use xlink:href="#2" y="23.881000000000004"></use><text x="0" y="27.387999999999998" class="c">|</text><text x="3.006" y="27.387999999999998" class="c">[</text><text x="5.01" y="27.387999999999998" class="c">]</text><text x="7.013999999999999" y="27.387999999999998" class="c">Unit</text><text x="12.024" y="27.387999999999998" class="c">tests</text><text x="0" y="29.225" class="c">|</text><text x="5.01" y="29.225" class="c">--&gt;</text><text x="9.017999999999999" y="29.225" class="c">Fast</text><text x="14.027999999999999" y="29.225" class="c">isolated</text><text x="23.045999999999996" y="29.225" class="c">tests</text><text x="29.058" y="29.225" class="c">with</text><text x="34.068" y="29.225" class="c">Vitest.</text><text x="0" y="31.061999999999998" class="c">|</text><text x="3.006" y="31.061999999999998" class="c">[</text><text x="5.01" y="31.061999999999998" class="c">]</text><text x="7.013999999999999" y="31.061999999999998" class="c">E2E</text><text x="11.021999999999998" y="31.061999999999998" class="c">tests</text><text x="0" y="32.899" class="c">|</text><text x="3.006" y="32.899" class="c">[</text><text x="5.01" y="32.899" class="c">]</text><text x="7.013999999999999" y="32.899" class="c">Coverage</text><text x="16.032" y="32.899" class="c">reporting</text><use xlink:href="#2" y="33.066"></use></svg><svg x="1200"><use xlink:href="#a"></use><use xlink:href="#16" y="0"></use><use xlink:href="#2" y="1.837"></use><use xlink:href="#5" y="3.674"></use><use xlink:href="#17" y="5.511"></use><use xlink:href="#18" y="7.348"></use><use xlink:href="#5" y="9.185"></use><use xlink:href="#19" y="11.022"></use><use xlink:href="#20" y="12.859"></use><use xlink:href="#2" y="14.696"></use><use xlink:href="#21" y="16.533"></use><use xlink:href="#22" y="18.37"></use><use xlink:href="#2" y="20.206999999999997"></use><use xlink:href="#5" y="22.044"></use><text x="0" y="25.551000000000002" class="c">|</text><text x="3.006" y="25.551000000000002" class="c">o</text><text x="6.012" y="25.551000000000002" class="c">Unit</text><text x="11.021999999999998" y="25.551000000000002" class="c">test</text><text x="16.032" y="25.551000000000002" class="c">runner</text><text x="23.045999999999996" y="25.551000000000002" class="c">(3.1)</text><text x="0" y="27.387999999999998" class="c">|</text><text x="3.006" y="27.387999999999998" class="c">|</text><text x="6.012" y="27.387999999999998" class="c">Unit</text><text x="11.021999999999998" y="27.387999999999998" class="c">testing</text><text x="19.037999999999997" y="27.387999999999998" class="c">framework.</text><use xlink:href="#5" y="27.555"></use><text x="0" y="31.061999999999998" class="c">|</text><text x="3.006" y="31.061999999999998" class="c">|</text><text x="6.012" y="31.061999999999998" class="c">(*)</text><text x="10.02" y="31.061999999999998" class="c">Vitest</text><text x="0" y="32.899" class="c">|</text><text x="3.006" y="32.899" class="c">|</text><text x="6.012" y="32.899" class="c">(</text><text x="8.016" y="32.899" class="c">)</text><text x="10.02" y="32.899" class="c">Jest</text><use xlink:href="#5" y="33.066"></use></svg><svg x="1280"><use xlink:href="#a"></use><use xlink:href="#17" y="0"></use><use xlink:href="#18" y="1.837"></use><use xlink:href="#5" y="3.674"></use><use xlink:href="#19" y="5.511"></use><use xlink:href="#20" y="7.348"></use><use xlink:href="#2" y="9.185"></use><use xlink:href="#21" y="11.022"></use><use xlink:href="#22" y="12.859"></use><use xlink:href="#2" y="14.696"></use><use xlink:href="#5" y="16.533"></use><use xlink:href="#23" y="18.37"></use><use xlink:href="#24" y="20.206999999999997"></use><use xlink:href="#5" y="22.044"></use><text x="0" y="25.551000000000002" class="c">|</text><text x="3.006" y="25.551000000000002" class="c">o</text><text x="6.012" y="25.551000000000002" class="c">E2E</text><text x="10.02" y="25.551000000000002" class="c">framework</text><text x="20.04" y="25.551000000000002" class="c">(3.2)</text><text x="0" y="27.387999999999998" class="c">|</text><text x="6.012" y="27.387999999999998" class="c">Browser</text><text x="14.027999999999999" y="27.387999999999998" class="c">testing</text><text x="22.043999999999997" y="27.387999999999998" class="c">framework.</text><use xlink:href="#2" y="27.555"></use><text x="0" y="31.061999999999998" class="c">|</text><text x="6.012" y="31.061999999999998" class="c">(*)</text><text x="10.02" y="31.061999999999998" class="c">Playwright</text><text x="0" y="32.899" class="c">|</text><text x="6.012" y="32.899" class="c">(</text><text x="8.016" y="32.899" class="c">)</text><text x="10.02" y="32.899" class="c">Cypress</text><use xlink:href="#2" y="33.066"></use></svg><svg x="1360"><use xlink:href="#a"></use><use xlink:href="#17" y="0"></use><use xlink:href="#18" y="1.837"></use><use xlink:href="#5" y="3.674"></use><use xlink:href="#19" y="5.511"></use><use xlink:href="#20" y="7.348"></use><use xlink:href="#2" y="9.185"></use><use xlink:href="#21" y="11.022"></use><use xlink:href="#22" y="12.859"></use><use xlink:href="#2" y="14.696"></use><use xlink:href="#5" y="16.533"></use><use xlink:href="#23" y="18.37"></use><use xlink:href="#24" y="20.206999999999997"></use><use xlink:href="#5" y="22.044"></use><use xlink:href="#25" y="23.881000000000004"></use><use xlink:href="#26" y="25.718"></use><use xlink:href="#2" y="27.555"></use></svg><svg x="1440"><use xlink:href="#a"></use><use xlink:href="#25" y="0"></use><use xlink:href="#26" y="1.837"></use><use xlink:href="#2" y="3.674"></use><use xlink:href="#2" y="5.511"></use><use xlink:href="#27" y="7.348"></use><use xlink:href="#28" y="12.859"></use><use xlink:href="#29" y="14.696"></use><use xlink:href="#30" y="16.533"></use><use xlink:href="#31" y="18.37"></use><use xlink:href="#32" y="20.206999999999997"></use><use xlink:href="#33" y="22.044"></use><use xlink:href="#34" y="23.881000000000004"></use><use xlink:href="#35" y="25.718"></use><use xlink:href="#36" y="27.555"></use><use xlink:href="#37" y="29.392"></use><use xlink:href="#38" y="31.229000000000003"></use><use xlink:href="#39" y="33.066"></use></svg><svg x="1520"><use xlink:href="#a"></use><use xlink:href="#b" x="-0.0040000000000000036" y="34.728"></use><use xlink:href="#25" y="0"></use><use xlink:href="#26" y="1.837"></use><use xlink:href="#2" y="3.674"></use><use xlink:href="#2" y="5.511"></use><use xlink:href="#27" y="7.348"></use><use xlink:href="#28" y="12.859"></use><use xlink:href="#29" y="14.696"></use><use xlink:href="#30" y="16.533"></use><use xlink:href="#31" y="18.37"></use><use xlink:href="#32" y="20.206999999999997"></use><use xlink:href="#33" y="22.044"></use><use xlink:href="#34" y="23.881000000000004"></use><use xlink:href="#35" y="25.718"></use><use xlink:href="#36" y="27.555"></use><use xlink:href="#37" y="29.392"></use><use xlink:href="#38" y="31.229000000000003"></use><use xlink:href="#39" y="33.066"></use></svg><svg x="1600"><use xlink:href="#a"></use><use xlink:href="#b" x="-0.0040000000000000036" y="34.728"></use><use xlink:href="#25" y="0"></use><use xlink:href="#26" y="1.837"></use><use xlink:href="#2" y="3.674"></use><use xlink:href="#2" y="5.511"></use><use xlink:href="#27" y="7.348"></use><use xlink:href="#28" y="12.859"></use><use xlink:href="#29" y="14.696"></use><use xlink:href="#30" y="16.533"></use><use xlink:href="#31" y="18.37"></use><use xlink:href="#32" y="20.206999999999997"></use><use xlink:href="#33" y="22.044"></use><use xlink:href="#34" y="23.881000000000004"></use><use xlink:href="#35" y="25.718"></use><use xlink:href="#36" y="27.555"></use><use xlink:href="#37" y="29.392"></use><use xlink:href="#38" y="31.229000000000003"></use><use xlink:href="#39" y="33.066"></use></svg><svg x="1680"><use xlink:href="#a"></use><use xlink:href="#b" x="0.996" y="34.728"></use><use xlink:href="#25" y="0"></use><use xlink:href="#26" y="1.837"></use><use xlink:href="#2" y="3.674"></use><use xlink:href="#2" y="5.511"></use><use xlink:href="#27" y="7.348"></use><use xlink:href="#28" y="12.859"></use><use xlink:href="#29" y="14.696"></use><use xlink:href="#30" y="16.533"></use><use xlink:href="#31" y="18.37"></use><use xlink:href="#32" y="20.206999999999997"></use><use xlink:href="#33" y="22.044"></use><use xlink:href="#34" y="23.881000000000004"></use><use xlink:href="#35" y="25.718"></use><use xlink:href="#36" y="27.555"></use><use xlink:href="#37" y="29.392"></use><use xlink:href="#38" y="31.229000000000003"></use><use xlink:href="#39" y="33.066"></use></svg></svg></g></g></svg></svg>