<svg xmlns="http://www.w3.org/2000/svg" xmlns:xlink="http://www.w3.org/1999/xlink" width="800" height="367.40000000000003"><rect width="800" height="367.40000000000003" rx="0" ry="0" class="a"></rect><svg height="367.40000000000003" viewBox="0 0 80 36.74" width="800" xmlns="http://www.w3.org/2000/svg" xmlns:xlink="http://www.w3.org/1999/xlink"><style>.a{fill:rgb(40,44,52)}.b{font-family:Consolas,"Courier New",Courier,"Liberation Mono",monospace}.c{fill:rgb(171,178,191);white-space:pre}.d{fill:transparent}.e{fill:rgb(82,139,255)}.g{animation-duration:15.2s;animation-iteration-count:infinite;animation-name:f;animation-timing-function:steps(1,end)}@keyframes f{0%{transform:translateX(-0px)}0%{transform:translateX(-80px)}6.6%{transform:translateX(-160px)}7.2%{transform:translateX(-240px)}13.8%{transform:translateX(-320px)}20.4%{transform:translateX(-400px)}21.1%{transform:translateX(-480px)}27.6%{transform:translateX(-560px)}28.3%{transform:translateX(-640px)}34.9%{transform:translateX(-720px)}35.5%{transform:translateX(-800px)}42.1%{transform:translateX(-880px)}42.8%{transform:translateX(-960px)}43.4%{transform:translateX(-1040px)}44.1%{transform:translateX(-1120px)}50.7%{transform:translateX(-1200px)}51.3%{transform:translateX(-1280px)}57.9%{transform:translateX(-1360px)}58.6%{transform:translateX(-1440px)}65.1%{transform:translateX(-1520px)}65.8%{transform:translateX(-1600px)}66.4%{transform:translateX(-1680px)}67.1%{transform:translateX(-1760px)}73.7%{transform:translateX(-1840px)}80.3%{transform:translateX(-1920px)}100%{transform:translateX(-2000px)}}</style><g font-family="Consolas, &quot;Courier New&quot;, Courier, &quot;Liberation Mono&quot;, monospace" font-size="1.67" class="b"><defs><symbol id="1"><text x="0" y="1.67" class="c">#</text><text x="3.006" y="1.67" class="c">Kitchen</text><text x="11.021999999999998" y="1.67" class="c">order</text></symbol><symbol id="2"><text x="0" y="1.67" class="c">|</text></symbol><symbol id="3"><text x="0" y="1.67" class="c">o</text><text x="3.006" y="1.67" class="c">Course</text><text x="10.02" y="1.67" class="c">(1)</text></symbol><symbol id="4"><text x="0" y="1.67" class="c">|</text><text x="3.006" y="1.67" class="c">Where</text><text x="9.017999999999999" y="1.67" class="c">the</text><text x="13.026" y="1.67" class="c">dish</text><text x="18.035999999999998" y="1.67" class="c">sits</text><text x="23.045999999999996" y="1.67" class="c">in</text><text x="26.052" y="1.67" class="c">the</text><text x="30.059999999999995" y="1.67" class="c">meal.</text></symbol><symbol id="5"><text x="0" y="1.67" class="c">|</text><text x="3.006" y="1.67" class="c">(</text><text x="5.01" y="1.67" class="c">)</text><text x="7.013999999999999" y="1.67" class="c">Dessert</text></symbol><symbol id="6"><text x="0" y="1.67" class="c">+</text><text x="3.006" y="1.67" class="c">Course</text><text x="10.02" y="1.67" class="c">(1)</text></symbol><symbol id="7"><text x="0" y="1.67" class="c">|</text><text x="3.006" y="1.67" class="c">Main</text></symbol><symbol id="8"><text x="0" y="1.67" class="c">|</text><text x="3.006" y="1.67" class="c">|</text></symbol><symbol id="9"><text x="0" y="1.67" class="c">|</text><text x="3.006" y="1.67" class="c">+</text><text x="6.012" y="1.67" class="c">Method</text><text x="13.026" y="1.67" class="c">(1.1)</text></symbol><symbol id="10"><text x="0" y="1.67" class="c">|</text><text x="6.012" y="1.67" class="c">Baked</text></symbol><symbol id="11"><text x="0" y="1.67" class="c">|</text><text x="6.012" y="1.67" class="c">|</text></symbol><symbol id="12"><text x="0" y="1.67" class="c">|</text><text x="6.012" y="1.67" class="c">o</text><text x="9.017999999999999" y="1.67" class="c">Temperature</text><text x="21.041999999999998" y="1.67" class="c">(1.1.1)</text></symbol><symbol id="13"><text x="0" y="1.67" class="c">|</text><text x="6.012" y="1.67" class="c">|</text><text x="9.017999999999999" y="1.67" class="c">Oven</text><text x="14.027999999999999" y="1.67" class="c">setting</text><text x="22.043999999999997" y="1.67" class="c">for</text><text x="26.052" y="1.67" class="c">the</text><text x="30.059999999999995" y="1.67" class="c">bake.</text></symbol><symbol id="14"><text x="0" y="1.67" class="c">|</text><text x="6.012" y="1.67" class="c">|</text><text x="11.021999999999998" y="1.67" class="c">(</text><text x="13.026" y="1.67" class="c">)</text><text x="15.029999999999998" y="1.67" class="c">High</text></symbol><symbol id="15"><text x="0" y="1.67" class="c">|</text><text x="6.012" y="1.67" class="c">+</text><text x="9.017999999999999" y="1.67" class="c">Temperature</text><text x="21.041999999999998" y="1.67" class="c">(1.1.1)</text></symbol><symbol id="16"><text x="0" y="1.67" class="c">|</text><text x="6.012" y="1.67" class="c">|</text><text x="9.017999999999999" y="1.67" class="c">Moderate</text></symbol><symbol id="17"><text x="0" y="1.67" class="c">|</text><text x="6.012" y="1.67" class="c">o</text><text x="9.017999999999999" y="1.67" class="c">Rest</text><text x="14.027999999999999" y="1.67" class="c">before</text><text x="21.041999999999998" y="1.67" class="c">serving?</text><text x="30.059999999999995" y="1.67" class="c">(1.1.2)</text></symbol><symbol id="18"><text x="0" y="1.67" class="c">|</text><text x="6.012" y="1.67" class="c">|</text><text x="9.017999999999999" y="1.67" class="c">Lets</text><text x="14.027999999999999" y="1.67" class="c">the</text><text x="18.035999999999998" y="1.67" class="c">dish</text><text x="23.045999999999996" y="1.67" class="c">settle.</text></symbol><symbol id="19"><text x="0" y="1.67" class="c">|</text><text x="6.012" y="1.67" class="c">|</text><text x="9.017999999999999" y="1.67" class="c">(*)</text><text x="13.026" y="1.67" class="c">Yes</text><text x="17.034" y="1.67" class="c">/</text><text x="19.037999999999997" y="1.67" class="c">(</text><text x="21.041999999999998" y="1.67" class="c">)</text><text x="23.045999999999996" y="1.67" class="c">No</text></symbol><symbol id="20"><text x="0" y="1.67" class="c">|</text><text x="6.012" y="1.67" class="c">+</text><text x="9.017999999999999" y="1.67" class="c">Rest</text><text x="14.027999999999999" y="1.67" class="c">before</text><text x="21.041999999999998" y="1.67" class="c">serving?</text><text x="30.059999999999995" y="1.67" class="c">(1.1.2)</text></symbol><symbol id="21"><text x="0" y="1.67" class="c">|</text><text x="6.012" y="1.67" class="c">|</text><text x="9.017999999999999" y="1.67" class="c">Yes</text></symbol><symbol id="22"><text x="0" y="1.67" class="c">|</text><text x="6.012" y="1.67" class="c">o</text><text x="9.017999999999999" y="1.67" class="c">Sauce</text><text x="15.029999999999998" y="1.67" class="c">on</text><text x="18.035999999999998" y="1.67" class="c">the</text><text x="22.043999999999997" y="1.67" class="c">side?</text><text x="28.055999999999997" y="1.67" class="c">(1.1.3)</text></symbol><symbol id="23"><text x="0" y="1.67" class="c">|</text><text x="9.017999999999999" y="1.67" class="c">Served</text><text x="16.032" y="1.67" class="c">separately</text><text x="27.054" y="1.67" class="c">rather</text><text x="34.068" y="1.67" class="c">than</text><text x="39.077999999999996" y="1.67" class="c">poured.</text></symbol><symbol id="24"><text x="0" y="1.67" class="c">|</text><text x="9.017999999999999" y="1.67" class="c">(*)</text><text x="13.026" y="1.67" class="c">Yes</text><text x="17.034" y="1.67" class="c">/</text><text x="19.037999999999997" y="1.67" class="c">(</text><text x="21.041999999999998" y="1.67" class="c">)</text><text x="23.045999999999996" y="1.67" class="c">No</text></symbol><symbol id="25"><text x="0" y="1.67" class="c">|</text><text x="6.012" y="1.67" class="c">+</text><text x="9.017999999999999" y="1.67" class="c">Sauce</text><text x="15.029999999999998" y="1.67" class="c">on</text><text x="18.035999999999998" y="1.67" class="c">the</text><text x="22.043999999999997" y="1.67" class="c">side?</text><text x="28.055999999999997" y="1.67" class="c">(1.1.3)</text></symbol><symbol id="26"><text x="0" y="1.67" class="c">|</text><text x="9.017999999999999" y="1.67" class="c">Yes</text></symbol><symbol id="27"><text x="0" y="1.67" class="c">o</text><text x="3.006" y="1.67" class="c">Extras</text><text x="10.02" y="1.67" class="c">(2)</text></symbol><symbol id="28"><text x="0" y="1.67" class="c">|</text><text x="3.006" y="1.67" class="c">Anything</text><text x="12.024" y="1.67" class="c">served</text><text x="19.037999999999997" y="1.67" class="c">alongside.</text></symbol><symbol id="29"><text x="0" y="1.67" class="c">|</text><text x="3.006" y="1.67" class="c">Space</text><text x="9.017999999999999" y="1.67" class="c">to</text><text x="12.024" y="1.67" class="c">toggle,</text><text x="20.04" y="1.67" class="c">enter</text><text x="26.052" y="1.67" class="c">to</text><text x="29.058" y="1.67" class="c">confirm.</text></symbol><symbol id="30"><text x="0" y="1.67" class="c">|</text><text x="5.01" y="1.67" class="c">--&gt;</text><text x="9.017999999999999" y="1.67" class="c">Warm,</text><text x="15.029999999999998" y="1.67" class="c">cut</text><text x="19.037999999999997" y="1.67" class="c">at</text><text x="22.043999999999997" y="1.67" class="c">the</text><text x="26.052" y="1.67" class="c">table.</text></symbol><symbol id="31"><text x="0" y="1.67" class="c">|</text><text x="3.006" y="1.67" class="c">[</text><text x="5.01" y="1.67" class="c">]</text><text x="7.013999999999999" y="1.67" class="c">Olives</text></symbol><symbol id="32"><text x="0" y="1.67" class="c">|</text><text x="3.006" y="1.67" class="c">[</text><text x="5.01" y="1.67" class="c">]</text><text x="7.013999999999999" y="1.67" class="c">Herbs</text></symbol><symbol id="33"><text x="0" y="1.67" class="c">|</text><text x="3.006" y="1.67" class="c">[</text><text x="5.01" y="1.67" class="c">]</text><text x="7.013999999999999" y="1.67" class="c">Lemon</text></symbol><symbol id="34"><text x="0" y="1.67" class="c">|</text><text x="3.006" y="1.67" class="c">[x]</text><text x="7.013999999999999" y="1.67" class="c">Bread</text></symbol><symbol id="35"><text x="0" y="1.67" class="c">|</text><text x="5.01" y="1.67" class="c">--&gt;</text><text x="9.017999999999999" y="1.67" class="c">Marinated,</text><text x="20.04" y="1.67" class="c">served</text><text x="27.054" y="1.67" class="c">in</text><text x="30.059999999999995" y="1.67" class="c">oil.</text></symbol><symbol id="36"><text x="0" y="1.67" class="c">+</text><text x="3.006" y="1.67" class="c">Extras</text><text x="10.02" y="1.67" class="c">(2)</text></symbol><symbol id="37"><text x="0" y="1.67" class="c">|</text><text x="3.006" y="1.67" class="c">Bread,</text><text x="10.02" y="1.67" class="c">Olives</text></symbol><symbol id="38"><text x="0" y="1.67" class="c">|</text><text x="3.006" y="1.67" class="c">o</text><text x="6.012" y="1.67" class="c">Toast</text><text x="12.024" y="1.67" class="c">the</text><text x="16.032" y="1.67" class="c">bread?</text><text x="23.045999999999996" y="1.67" class="c">(2.1)</text></symbol><symbol id="39"><text x="0" y="1.67" class="c">|</text><text x="3.006" y="1.67" class="c">|</text><text x="6.012" y="1.67" class="c">Browned</text><text x="14.027999999999999" y="1.67" class="c">just</text><text x="19.037999999999997" y="1.67" class="c">before</text><text x="26.052" y="1.67" class="c">serving.</text></symbol><symbol id="40"><text x="0" y="1.67" class="c">|</text><text x="3.006" y="1.67" class="c">|</text><text x="6.012" y="1.67" class="c">(*)</text><text x="10.02" y="1.67" class="c">Yes</text><text x="14.027999999999999" y="1.67" class="c">/</text><text x="16.032" y="1.67" class="c">(</text><text x="18.035999999999998" y="1.67" class="c">)</text><text x="20.04" y="1.67" class="c">No</text></symbol><symbol id="41"><text x="0" y="1.67" class="c">|</text><text x="3.006" y="1.67" class="c">+</text><text x="6.012" y="1.67" class="c">Toast</text><text x="12.024" y="1.67" class="c">the</text><text x="16.032" y="1.67" class="c">bread?</text><text x="23.045999999999996" y="1.67" class="c">(2.1)</text></symbol><symbol id="42"><text x="0" y="1.67" class="c">|</text><text x="3.006" y="1.67" class="c">|</text><text x="6.012" y="1.67" class="c">Yes</text></symbol><symbol id="43"><text x="0" y="1.67" class="c">|</text><text x="3.006" y="1.67" class="c">o</text><text x="6.012" y="1.67" class="c">Marinade</text><text x="15.029999999999998" y="1.67" class="c">(2.2)</text></symbol><symbol id="44"><text x="0" y="1.67" class="c">|</text><text x="3.006" y="1.67" class="c">|</text><text x="6.012" y="1.67" class="c">What</text><text x="11.021999999999998" y="1.67" class="c">the</text><text x="15.029999999999998" y="1.67" class="c">olives</text><text x="22.043999999999997" y="1.67" class="c">sit</text><text x="26.052" y="1.67" class="c">in.</text></symbol><symbol id="45"><text x="0" y="1.67" class="c">|</text><text x="3.006" y="1.67" class="c">|</text><text x="8.016" y="1.67" class="c">(</text><text x="10.02" y="1.67" class="c">)</text><text x="12.024" y="1.67" class="c">Citrus</text></symbol><symbol id="46"><text x="0" y="1.67" class="c">|</text><text x="3.006" y="1.67" class="c">+</text><text x="6.012" y="1.67" class="c">Marinade</text><text x="15.029999999999998" y="1.67" class="c">(2.2)</text></symbol><symbol id="47"><text x="0" y="1.67" class="c">|</text><text x="6.012" y="1.67" class="c">Chilli</text></symbol><symbol id="48"><text x="0" y="1.67" class="c">o</text><text x="3.006" y="1.67" class="c">Drinks</text><text x="10.02" y="1.67" class="c">(3)</text></symbol><symbol id="49"><text x="0" y="1.67" class="c">|</text><text x="3.006" y="1.67" class="c">Poured</text><text x="10.02" y="1.67" class="c">at</text><text x="13.026" y="1.67" class="c">the</text><text x="17.034" y="1.67" class="c">table.</text></symbol><symbol id="50"><text x="0" y="1.67" class="c">|</text><text x="5.01" y="1.67" class="c">--&gt;</text><text x="9.017999999999999" y="1.67" class="c">Loose</text><text x="15.029999999999998" y="1.67" class="c">leaf,</text><text x="21.041999999999998" y="1.67" class="c">warmed</text><text x="28.055999999999997" y="1.67" class="c">in</text><text x="31.061999999999998" y="1.67" class="c">the</text><text x="35.06999999999999" y="1.67" class="c">pot.</text></symbol><symbol id="51"><text x="0" y="1.67" class="c">|</text><text x="3.006" y="1.67" class="c">[</text><text x="5.01" y="1.67" class="c">]</text><text x="7.013999999999999" y="1.67" class="c">Coffee</text></symbol><symbol id="52"><text x="0" y="1.67" class="c">|</text><text x="3.006" y="1.67" class="c">[</text><text x="5.01" y="1.67" class="c">]</text><text x="7.013999999999999" y="1.67" class="c">Juice</text></symbol><symbol id="53"><text x="0" y="1.67" class="c">|</text><text x="3.006" y="1.67" class="c">[x]</text><text x="7.013999999999999" y="1.67" class="c">Tea</text></symbol><symbol id="54"><text x="0" y="1.67" class="c">|</text><text x="5.01" y="1.67" class="c">--&gt;</text><text x="9.017999999999999" y="1.67" class="c">Ground</text><text x="16.032" y="1.67" class="c">for</text><text x="20.04" y="1.67" class="c">each</text><text x="25.05" y="1.67" class="c">cup.</text></symbol><symbol id="55"><text x="0" y="1.67" class="c">|</text><text x="7.013999999999999" y="1.67" class="c">Slower,</text><text x="15.029999999999998" y="1.67" class="c">but</text><text x="19.037999999999997" y="1.67" class="c">worth</text><text x="25.05" y="1.67" class="c">the</text><text x="29.058" y="1.67" class="c">wait.</text></symbol><symbol id="56"><text x="0" y="1.67" class="c">+</text><text x="3.006" y="1.67" class="c">Drinks</text><text x="10.02" y="1.67" class="c">(3)</text></symbol><symbol id="57"><text x="0" y="1.67" class="c">|</text><text x="3.006" y="1.67" class="c">Tea,</text><text x="8.016" y="1.67" class="c">Coffee</text></symbol><symbol id="58"><text x="0" y="1.67" class="c">|</text><text x="3.006" y="1.67" class="c">+</text><text x="6.012" y="1.67" class="c">Roast</text><text x="12.024" y="1.67" class="c">(3.2)</text></symbol><symbol id="59"><text x="0" y="1.67" class="c">|</text><text x="6.012" y="1.67" class="c">Light</text></symbol><symbol id="60"><text x="0" y="1.67" class="c">#</text><text x="3.006" y="1.67" class="c">Order</text><text x="9.017999999999999" y="1.67" class="c">sent</text><text x="14.027999999999999" y="1.67" class="c">to</text><text x="17.034" y="1.67" class="c">the</text><text x="21.041999999999998" y="1.67" class="c">kitchen!</text></symbol><symbol id="61"><text x="0" y="1.67" class="c">Collected</text><text x="10.02" y="1.67" class="c">answers:</text></symbol><symbol id="62"><text x="2.004" y="1.67" class="c">course:</text><text x="10.02" y="1.67" class="c">main</text></symbol><symbol id="63"><text x="2.004" y="1.67" class="c">method:</text><text x="10.02" y="1.67" class="c">baked</text></symbol><symbol id="64"><text x="2.004" y="1.67" class="c">temperature:</text><text x="15.029999999999998" y="1.67" class="c">moderate</text></symbol><symbol id="65"><text x="2.004" y="1.67" class="c">rest:</text><text x="8.016" y="1.67" class="c">yes</text></symbol><symbol id="66"><text x="2.004" y="1.67" class="c">sauce:</text><text x="9.017999999999999" y="1.67" class="c">yes</text></symbol><symbol id="67"><text x="2.004" y="1.67" class="c">extras:</text><text x="10.02" y="1.67" class="c">bread,</text><text x="17.034" y="1.67" class="c">olives</text></symbol><symbol id="68"><text x="2.004" y="1.67" class="c">toast:</text><text x="9.017999999999999" y="1.67" class="c">yes</text></symbol><symbol id="69"><text x="2.004" y="1.67" class="c">marinade:</text><text x="12.024" y="1.67" class="c">chilli</text></symbol><symbol id="70"><text x="2.004" y="1.67" class="c">drinks:</text><text x="10.02" y="1.67" class="c">tea,</text><text x="15.029999999999998" y="1.67" class="c">coffee</text></symbol><symbol id="71"><text x="2.004" y="1.67" class="c">brew:</text><text x="8.016" y="1.67" class="c">black</text></symbol><symbol id="72"><text x="2.004" y="1.67" class="c">roast:</text><text x="9.017999999999999" y="1.67" class="c">light</text></symbol><symbol id="a"><rect height="20" width="80" x="0" y="0" class="d"></rect></symbol><symbol id="b"><rect height="1.837" width="1.1022" class="e"></rect></symbol></defs><rect height="36.74" width="80" class="a"></rect><g class="g"><svg x="0" y="0" width="2080"><svg x="0"><use xlink:href="#a"></use><use xlink:href="#b" x="-0.0040000000000000036" y="0"></use></svg><svg x="80"><use xlink:href="#a"></use><use xlink:href="#1" y="1.837"></use><use xlink:href="#2" y="3.674"></use><use xlink:href="#3" y="5.511"></use><use xlink:href="#4" y="7.348"></use><use xlink:href="#2" y="9.185"></use><text x="0" y="12.692" class="c">|&gt;</text><text x="3.006" y="12.692" class="c">(*)</text><text x="7.013999999999999" y="12.692" class="c">Starter</text><text x="0" y="14.529" class="c">|</text><text x="5.01" y="14.529" class="c">--&gt;</text><text x="9.017999999999999" y="14.529" class="c">Served</text><text x="16.032" y="14.529" class="c">first,</text><text x="23.045999999999996" y="14.529" class="c">in</text><text x="26.052" y="14.529" class="c">a</text><text x="28.055999999999997" y="14.529" class="c">small</text><text x="34.068" y="14.529" class="c">portion.</text><text x="0" y="16.366" class="c">|</text><text x="3.006" y="16.366" class="c">(</text><text x="5.01" y="16.366" class="c">)</text><text x="7.013999999999999" y="16.366" class="c">Main</text><use xlink:href="#5" y="16.533"></use><use xlink:href="#2" y="18.37"></use></svg><svg x="160"><use xlink:href="#a"></use><use xlink:href="#1" y="1.837"></use><use xlink:href="#2" y="3.674"></use><use xlink:href="#3" y="5.511"></use><use xlink:href="#4" y="7.348"></use><use xlink:href="#2" y="9.185"></use><text x="0" y="12.692" class="c">|</text><text x="3.006" y="12.692" class="c">(</text><text x="5.01" y="12.692" class="c">)</text><text x="7.013999999999999" y="12.692" class="c">Starter</text><text x="0" y="14.529" class="c">|&gt;</text><text x="3.006" y="14.529" class="c">(*)</text><text x="7.013999999999999" y="14.529" class="c">Main</text><text x="0" y="16.366" class="c">|</text><text x="5.01" y="16.366" class="c">--&gt;</text><text x="9.017999999999999" y="16.366" class="c">The</text><text x="13.026" y="16.366" class="c">centre</text><text x="20.04" y="16.366" class="c">of</text><text x="23.045999999999996" y="16.366" class="c">the</text><text x="27.054" y="16.366" class="c">meal.</text><use xlink:href="#5" y="16.533"></use><use xlink:href="#2" y="18.37"></use></svg><svg x="240"><use xlink:href="#a"></use><use xlink:href="#1" y="1.837"></use><use xlink:href="#2" y="3.674"></use><use xlink:href="#6" y="5.511"></use><use xlink:href="#7" y="7.348"></use><use xlink:href="#2" y="9.185"></use><use xlink:href="#8" y="11.022"></use><text x="0" y="14.529" class="c">|</text><text x="3.006" y="14.529" class="c">o</text><text x="6.012" y="14.529" class="c">Method</text><text x="13.026" y="14.529" class="c">(1.1)</text><text x="0" y="16.366" class="c">|</text><text x="3.006" y="16.366" class="c">|</text><text x="6.012" y="16.366" class="c">How</text><text x="10.02" y="16.366" class="c">the</text><text x="14.027999999999999" y="16.366" class="c">dish</text><text x="19.037999999999997" y="16.366" class="c">is</text><text x="22.043999999999997" y="16.366" class="c">cooked.</text><use xlink:href="#8" y="16.533"></use><text x="0" y="20.04" class="c">|</text><text x="3.006" y="20.04" class="c">|</text><text x="6.012" y="20.04" class="c">&gt;</text><text x="8.016" y="20.04" class="c">(*)</text><text x="12.024" y="20.04" class="c">Baked</text><text x="0" y="21.876999999999995" class="c">|</text><text x="3.006" y="21.876999999999995" class="c">|</text><text x="10.02" y="21.876999999999995" class="c">--&gt;</text><text x="14.027999999999999" y="21.876999999999995" class="c">Dry</text><text x="18.035999999999998" y="21.876999999999995" class="c">heat,</text><text x="24.048" y="21.876999999999995" class="c">all</text><text x="28.055999999999997" y="21.876999999999995" class="c">the</text><text x="32.064" y="21.876999999999995" class="c">way</text><text x="36.071999999999996" y="21.876999999999995" class="c">through.</text><text x="0" y="23.714" class="c">|</text><text x="3.006" y="23.714" class="c">|</text><text x="8.016" y="23.714" class="c">(</text><text x="10.02" y="23.714" class="c">)</text><text x="12.024" y="23.714" class="c">Poached</text><text x="0" y="25.551000000000002" class="c">|</text><text x="3.006" y="25.551000000000002" class="c">|</text><text x="8.016" y="25.551000000000002" class="c">(</text><text x="10.02" y="25.551000000000002" class="c">)</text><text x="12.024" y="25.551000000000002" class="c">Grilled</text><use xlink:href="#8" y="25.718"></use></svg><svg x="320"><use xlink:href="#a"></use><use xlink:href="#1" y="1.837"></use><use xlink:href="#2" y="3.674"></use><use xlink:href="#6" y="5.511"></use><use xlink:href="#7" y="7.348"></use><use xlink:href="#2" y="9.185"></use><use xlink:href="#8" y="11.022"></use><use xlink:href="#9" y="12.859"></use><use xlink:href="#10" y="14.696"></use><use xlink:href="#2" y="16.533"></use><use xlink:href="#11" y="18.37"></use><use xlink:href="#12" y="20.206999999999997"></use><use xlink:href="#13" y="22.044"></use><use xlink:href="#11" y="23.881000000000004"></use><text x="0" y="27.387999999999998" class="c">|</text><text x="6.012" y="27.387999999999998" class="c">|</text><text x="9.017999999999999" y="27.387999999999998" class="c">&gt;</text><text x="11.021999999999998" y="27.387999999999998" class="c">(*)</text><text x="15.029999999999998" y="27.387999999999998" class="c">Low</text><text x="0" y="29.225" class="c">|</text><text x="6.012" y="29.225" class="c">|</text><text x="11.021999999999998" y="29.225" class="c">(</text><text x="13.026" y="29.225" class="c">)</text><text x="15.029999999999998" y="29.225" class="c">Moderate</text><use xlink:href="#14" y="29.392"></use><use xlink:href="#11" y="31.229000000000003"></use></svg><svg x="400"><use xlink:href="#a"></use><use xlink:href="#1" y="1.837"></use><use xlink:href="#2" y="3.674"></use><use xlink:href="#6" y="5.511"></use><use xlink:href="#7" y="7.348"></use><use xlink:href="#2" y="9.185"></use><use xlink:href="#8" y="11.022"></use><use xlink:href="#9" y="12.859"></use><use xlink:href="#10" y="14.696"></use><use xlink:href="#2" y="16.533"></use><use xlink:href="#11" y="18.37"></use><use xlink:href="#12" y="20.206999999999997"></use><use xlink:href="#13" y="22.044"></use><use xlink:href="#11" y="23.881000000000004"></use><text x="0" y="27.387999999999998" class="c">|</text><text x="6.012" y="27.387999999999998" class="c">|</text><text x="11.021999999999998" y="27.387999999999998" class="c">(</text><text x="13.026" y="27.387999999999998" class="c">)</text><text x="15.029999999999998" y="27.387999999999998" class="c">Low</text><text x="0" y="29.225" class="c">|</text><text x="6.012" y="29.225" class="c">|</text><text x="9.017999999999999" y="29.225" class="c">&gt;</text><text x="11.021999999999998" y="29.225" class="c">(*)</text><text x="15.029999999999998" y="29.225" class="c">Moderate</text><use xlink:href="#14" y="29.392"></use><use xlink:href="#11" y="31.229000000000003"></use></svg><svg x="480"><use xlink:href="#a"></use><use xlink:href="#1" y="1.837"></use><use xlink:href="#2" y="3.674"></use><use xlink:href="#6" y="5.511"></use><use xlink:href="#7" y="7.348"></use><use xlink:href="#2" y="9.185"></use><use xlink:href="#8" y="11.022"></use><use xlink:href="#9" y="12.859"></use><use xlink:href="#10" y="14.696"></use><use xlink:href="#2" y="16.533"></use><use xlink:href="#11" y="18.37"></use><use xlink:href="#15" y="20.206999999999997"></use><use xlink:href="#16" y="22.044"></use><use xlink:href="#11" y="23.881000000000004"></use><use xlink:href="#17" y="25.718"></use><use xlink:href="#18" y="27.555"></use><use xlink:href="#11" y="29.392"></use><use xlink:href="#19" y="31.229000000000003"></use><use xlink:href="#11" y="33.066"></use></svg><svg x="560"><use xlink:href="#a"></use><use xlink:href="#1" y="1.837"></use><use xlink:href="#2" y="3.674"></use><use xlink:href="#6" y="5.511"></use><use xlink:href="#7" y="7.348"></use><use xlink:href="#2" y="9.185"></use><use xlink:href="#8" y="11.022"></use><use xlink:href="#9" y="12.859"></use><use xlink:href="#10" y="14.696"></use><use xlink:href="#2" y="16.533"></use><use xlink:href="#11" y="18.37"></use><use xlink:href="#15" y="20.206999999999997"></use><use xlink:href="#16" y="22.044"></use><use xlink:href="#11" y="23.881000000000004"></use><use xlink:href="#17" y="25.718"></use><use xlink:href="#18" y="27.555"></use><use xlink:href="#11" y="29.392"></use><use xlink:href="#19" y="31.229000000000003"></use><use xlink:href="#11" y="33.066"></use></svg><svg x="640"><use xlink:href="#a"></use><use xlink:href="#6" y="0"></use><use xlink:href="#7" y="1.837"></use><use xlink:href="#2" y="3.674"></use><use xlink:href="#8" y="5.511"></use><use xlink:href="#9" y="7.348"></use><use xlink:href="#10" y="9.185"></use><use xlink:href="#2" y="11.022"></use><use xlink:href="#11" y="12.859"></use><use xlink:href="#15" y="14.696"></use><use xlink:href="#16" y="16.533"></use><use xlink:href="#11" y="18.37"></use><use xlink:href="#20" y="20.206999999999997"></use><use xlink:href="#21" y="22.044"></use><use xlink:href="#11" y="23.881000000000004"></use><use xlink:href="#22" y="25.718"></use><use xlink:href="#23" y="27.555"></use><use xlink:href="#2" y="29.392"></use><use xlink:href="#24" y="31.229000000000003"></use><use xlink:href="#2" y="33.066"></use></svg><svg x="720"><use xlink:href="#a"></use><use xlink:href="#6" y="0"></use><use xlink:href="#7" y="1.837"></use><use xlink:href="#2" y="3.674"></use><use xlink:href="#8" y="5.511"></use><use xlink:href="#9" y="7.348"></use><use xlink:href="#10" y="9.185"></use><use xlink:href="#2" y="11.022"></use><use xlink:href="#11" y="12.859"></use><use xlink:href="#15" y="14.696"></use><use xlink:href="#16" y="16.533"></use><use xlink:href="#11" y="18.37"></use><use xlink:href="#20" y="20.206999999999997"></use><use xlink:href="#21" y="22.044"></use><use xlink:href="#11" y="23.881000000000004"></use><use xlink:href="#22" y="25.718"></use><use xlink:href="#23" y="27.555"></use><use xlink:href="#2" y="29.392"></use><use xlink:href="#24" y="31.229000000000003"></use><use xlink:href="#2" y="33.066"></use></svg><svg x="800"><use xlink:href="#a"></use><use xlink:href="#15" y="0"></use><use xlink:href="#16" y="1.837"></use><use xlink:href="#11" y="3.674"></use><use xlink:href="#20" y="5.511"></use><use xlink:href="#21" y="7.348"></use><use xlink:href="#11" y="9.185"></use><use xlink:href="#25" y="11.022"></use><use xlink:href="#26" y="12.859"></use><use xlink:href="#2" y="14.696"></use><use xlink:href="#27" y="16.533"></use><use xlink:href="#28" y="18.37"></use><use xlink:href="#29" y="20.206999999999997"></use><use xlink:href="#2" y="22.044"></use><text x="0" y="25.551000000000002" class="c">|&gt;</text><text x="3.006" y="25.551000000000002" class="c">[</text><text x="5.01" y="25.551000000000002" class="c">]</text><text x="7.013999999999999" y="25.551000000000002" class="c">Bread</text><use xlink:href="#30" y="25.718"></use><use xlink:href="#31" y="27.555"></use><use xlink:href="#32" y="29.392"></use><use xlink:href="#33" y="31.229000000000003"></use><use xlink:href="#2" y="33.066"></use></svg><svg x="880"><use xlink:href="#a"></use><use xlink:href="#15" y="0"></use><use xlink:href="#16" y="1.837"></use><use xlink:href="#11" y="3.674"></use><use xlink:href="#20" y="5.511"></use><use xlink:href="#21" y="7.348"></use><use xlink:href="#11" y="9.185"></use><use xlink:href="#25" y="11.022"></use><use xlink:href="#26" y="12.859"></use><use xlink:href="#2" y="14.696"></use><use xlink:href="#27" y="16.533"></use><use xlink:href="#28" y="18.37"></use><use xlink:href="#29" y="20.206999999999997"></use><use xlink:href="#2" y="22.044"></use><text x="0" y="25.551000000000002" class="c">|&gt;</text><text x="3.006" y="25.551000000000002" class="c">[x]</text><text x="7.013999999999999" y="25.551000000000002" class="c">Bread</text><use xlink:href="#30" y="25.718"></use><use xlink:href="#31" y="27.555"></use><use xlink:href="#32" y="29.392"></use><use xlink:href="#33" y="31.229000000000003"></use><use xlink:href="#2" y="33.066"></use></svg><svg x="960"><use xlink:href="#a"></use><use xlink:href="#15" y="0"></use><use xlink:href="#16" y="1.837"></use><use xlink:href="#11" y="3.674"></use><use xlink:href="#20" y="5.511"></use><use xlink:href="#21" y="7.348"></use><use xlink:href="#11" y="9.185"></use><use xlink:href="#25" y="11.022"></use><use xlink:href="#26" y="12.859"></use><use xlink:href="#2" y="14.696"></use><use xlink:href="#27" y="16.533"></use><use xlink:href="#28" y="18.37"></use><use xlink:href="#29" y="20.206999999999997"></use><use xlink:href="#2" y="22.044"></use><use xlink:href="#34" y="23.881000000000004"></use><text x="0" y="27.387999999999998" class="c">|&gt;</text><text x="3.006" y="27.387999999999998" class="c">[</text><text x="5.01" y="27.387999999999998" class="c">]</text><text x="7.013999999999999" y="27.387999999999998" class="c">Olives</text><use xlink:href="#35" y="27.555"></use><use xlink:href="#32" y="29.392"></use><use xlink:href="#33" y="31.229000000000003"></use><use xlink:href="#2" y="33.066"></use></svg><svg x="1040"><use xlink:href="#a"></use><use xlink:href="#15" y="0"></use><use xlink:href="#16" y="1.837"></use><use xlink:href="#11" y="3.674"></use><use xlink:href="#20" y="5.511"></use><use xlink:href="#21" y="7.348"></use><use xlink:href="#11" y="9.185"></use><use xlink:href="#25" y="11.022"></use><use xlink:href="#26" y="12.859"></use><use xlink:href="#2" y="14.696"></use><use xlink:href="#27" y="16.533"></use><use xlink:href="#28" y="18.37"></use><use xlink:href="#29" y="20.206999999999997"></use><use xlink:href="#2" y="22.044"></use><use xlink:href="#34" y="23.881000000000004"></use><text x="0" y="27.387999999999998" class="c">|&gt;</text><text x="3.006" y="27.387999999999998" class="c">[x]</text><text x="7.013999999999999" y="27.387999999999998" class="c">Olives</text><use xlink:href="#35" y="27.555"></use><use xlink:href="#32" y="29.392"></use><use xlink:href="#33" y="31.229000000000003"></use><use xlink:href="#2" y="33.066"></use></svg><svg x="1120"><use xlink:href="#a"></use><use xlink:href="#15" y="0"></use><use xlink:href="#16" y="1.837"></use><use xlink:href="#11" y="3.674"></use><use xlink:href="#20" y="5.511"></use><use xlink:href="#21" y="7.348"></use><use xlink:href="#11" y="9.185"></use><use xlink:href="#25" y="11.022"></use><use xlink:href="#26" y="12.859"></use><use xlink:href="#2" y="14.696"></use><use xlink:href="#36" y="16.533"></use><use xlink:href="#37" y="18.37"></use><use xlink:href="#2" y="20.206999999999997"></use><use xlink:href="#8" y="22.044"></use><use xlink:href="#38" y="23.881000000000004"></use><use xlink:href="#39" y="25.718"></use><use xlink:href="#8" y="27.555"></use><use xlink:href="#40" y="29.392"></use><use xlink:href="#8" y="31.229000000000003"></use></svg><svg x="1200"><use xlink:href="#a"></use><use xlink:href="#15" y="0"></use><use xlink:href="#16" y="1.837"></use><use xlink:href="#11" y="3.674"></use><use xlink:href="#20" y="5.511"></use><use xlink:href="#21" y="7.348"></use><use xlink:href="#11" y="9.185"></use><use xlink:href="#25" y="11.022"></use><use xlink:href="#26" y="12.859"></use><use xlink:href="#2" y="14.696"></use><use xlink:href="#36" y="16.533"></use><use xlink:href="#37" y="18.37"></use><use xlink:href="#2" y="20.206999999999997"></use><use xlink:href="#8" y="22.044"></use><use xlink:href="#38" y="23.881000000000004"></use><use xlink:href="#39" y="25.718"></use><use xlink:href="#8" y="27.555"></use><use xlink:href="#40" y="29.392"></use><use xlink:href="#8" y="31.229000000000003"></use></svg><svg x="1280"><use xlink:href="#a"></use><use xlink:href="#21" y="0"></use><use xlink:href="#11" y="1.837"></use><use xlink:href="#25" y="3.674"></use><use xlink:href="#26" y="5.511"></use><use xlink:href="#2" y="7.348"></use><use xlink:href="#36" y="9.185"></use><use xlink:href="#37" y="11.022"></use><use xlink:href="#2" y="12.859"></use><use xlink:href="#8" y="14.696"></use><use xlink:href="#41" y="16.533"></use><use xlink:href="#42" y="18.37"></use><use xlink:href="#8" y="20.206999999999997"></use><use xlink:href="#43" y="22.044"></use><use xlink:href="#44" y="23.881000000000004"></use><use xlink:href="#8" y="25.718"></use><text x="0" y="29.225" class="c">|</text><text x="3.006" y="29.225" class="c">|</text><text x="6.012" y="29.225" class="c">&gt;</text><text x="8.016" y="29.225" class="c">(*)</text><text x="12.024" y="29.225" class="c">Garlic</text><text x="0" y="31.061999999999998" class="c">|</text><text x="3.006" y="31.061999999999998" class="c">|</text><text x="8.016" y="31.061999999999998" class="c">(</text><text x="10.02" y="31.061999999999998" class="c">)</text><text x="12.024" y="31.061999999999998" class="c">Chilli</text><use xlink:href="#45" y="31.229000000000003"></use><use xlink:href="#8" y="33.066"></use></svg><svg x="1360"><use xlink:href="#a"></use><use xlink:href="#21" y="0"></use><use xlink:href="#11" y="1.837"></use><use xlink:href="#25" y="3.674"></use><use xlink:href="#26" y="5.511"></use><use xlink:href="#2" y="7.348"></use><use xlink:href="#36" y="9.185"></use><use xlink:href="#37" y="11.022"></use><use xlink:href="#2" y="12.859"></use><use xlink:href="#8" y="14.696"></use><use xlink:href="#41" y="16.533"></use><use xlink:href="#42" y="18.37"></use><use xlink:href="#8" y="20.206999999999997"></use><use xlink:href="#43" y="22.044"></use><use xlink:href="#44" y="23.881000000000004"></use><use xlink:href="#8" y="25.718"></use><text x="0" y="29.225" class="c">|</text><text x="3.006" y="29.225" class="c">|</text><text x="8.016" y="29.225" class="c">(</text><text x="10.02" y="29.225" class="c">)</text><text x="12.024" y="29.225" class="c">Garlic</text><text x="0" y="31.061999999999998" class="c">|</text><text x="3.006" y="31.061999999999998" class="c">|</text><text x="6.012" y="31.061999999999998" class="c">&gt;</text><text x="8.016" y="31.061999999999998" class="c">(*)</text><text x="12.024" y="31.061999999999998" class="c">Chilli</text><use xlink:href="#45" y="31.229000000000003"></use><use xlink:href="#8" y="33.066"></use></svg><svg x="1440"><use xlink:href="#a"></use><use xlink:href="#2" y="0"></use><use xlink:href="#36" y="1.837"></use><use xlink:href="#37" y="3.674"></use><use xlink:href="#2" y="5.511"></use><use xlink:href="#8" y="7.348"></use><use xlink:href="#41" y="9.185"></use><use xlink:href="#42" y="11.022"></use><use xlink:href="#8" y="12.859"></use><use xlink:href="#46" y="14.696"></use><use xlink:href="#47" y="16.533"></use><use xlink:href="#2" y="18.37"></use><use xlink:href="#48" y="20.206999999999997"></use><use xlink:href="#49" y="22.044"></use><use xlink:href="#2" y="23.881000000000004"></use><text x="0" y="27.387999999999998" class="c">|&gt;</text><text x="3.006" y="27.387999999999998" class="c">[</text><text x="5.01" y="27.387999999999998" class="c">]</text><text x="7.013999999999999" y="27.387999999999998" class="c">Tea</text><use xlink:href="#50" y="27.555"></use><use xlink:href="#51" y="29.392"></use><use xlink:href="#52" y="31.229000000000003"></use><use xlink:href="#2" y="33.066"></use></svg><svg x="1520"><use xlink:href="#a"></use><use xlink:href="#2" y="0"></use><use xlink:href="#36" y="1.837"></use><use xlink:href="#37" y="3.674"></use><use xlink:href="#2" y="5.511"></use><use xlink:href="#8" y="7.348"></use><use xlink:href="#41" y="9.185"></use><use xlink:href="#42" y="11.022"></use><use xlink:href="#8" y="12.859"></use><use xlink:href="#46" y="14.696"></use><use xlink:href="#47" y="16.533"></use><use xlink:href="#2" y="18.37"></use><use xlink:href="#48" y="20.206999999999997"></use><use xlink:href="#49" y="22.044"></use><use xlink:href="#2" y="23.881000000000004"></use><text x="0" y="27.387999999999998" class="c">|&gt;</text><text x="3.006" y="27.387999999999998" class="c">[x]</text><text x="7.013999999999999" y="27.387999999999998" class="c">Tea</text><use xlink:href="#50" y="27.555"></use><use xlink:href="#51" y="29.392"></use><use xlink:href="#52" y="31.229000000000003"></use><use xlink:href="#2" y="33.066"></use></svg><svg x="1600"><use xlink:href="#a"></use><use xlink:href="#36" y="0"></use><use xlink:href="#37" y="1.837"></use><use xlink:href="#2" y="3.674"></use><use xlink:href="#8" y="5.511"></use><use xlink:href="#41" y="7.348"></use><use xlink:href="#42" y="9.185"></use><use xlink:href="#8" y="11.022"></use><use xlink:href="#46" y="12.859"></use><use xlink:href="#47" y="14.696"></use><use xlink:href="#2" y="16.533"></use><use xlink:href="#48" y="18.37"></use><use xlink:href="#49" y="20.206999999999997"></use><use xlink:href="#2" y="22.044"></use><use xlink:href="#53" y="23.881000000000004"></use><text x="0" y="27.387999999999998" class="c">|&gt;</text><text x="3.006" y="27.387999999999998" class="c">[</text><text x="5.01" y="27.387999999999998" class="c">]</text><text x="7.013999999999999" y="27.387999999999998" class="c">Coffee</text><use xlink:href="#54" y="27.555"></use><use xlink:href="#55" y="29.392"></use><use xlink:href="#52" y="31.229000000000003"></use><use xlink:href="#2" y="33.066"></use></svg><svg x="1680"><use xlink:href="#a"></use><use xlink:href="#36" y="0"></use><use xlink:href="#37" y="1.837"></use><use xlink:href="#2" y="3.674"></use><use xlink:href="#8" y="5.511"></use><use xlink:href="#41" y="7.348"></use><use xlink:href="#42" y="9.185"></use><use xlink:href="#8" y="11.022"></use><use xlink:href="#46" y="12.859"></use><use xlink:href="#47" y="14.696"></use><use xlink:href="#2" y="16.533"></use><use xlink:href="#48" y="18.37"></use><use xlink:href="#49" y="20.206999999999997"></use><use xlink:href="#2" y="22.044"></use><use xlink:href="#53" y="23.881000000000004"></use><text x="0" y="27.387999999999998" class="c">|&gt;</text><text x="3.006" y="27.387999999999998" class="c">[x]</text><text x="7.013999999999999" y="27.387999999999998" class="c">Coffee</text><use xlink:href="#54" y="27.555"></use><use xlink:href="#55" y="29.392"></use><use xlink:href="#52" y="31.229000000000003"></use><use xlink:href="#2" y="33.066"></use></svg><svg x="1760"><use xlink:href="#a"></use><use xlink:href="#37" y="0"></use><use xlink:href="#2" y="1.837"></use><use xlink:href="#8" y="3.674"></use><use xlink:href="#41" y="5.511"></use><use xlink:href="#42" y="7.348"></use><use xlink:href="#8" y="9.185"></use><use xlink:href="#46" y="11.022"></use><use xlink:href="#47" y="12.859"></use><use xlink:href="#2" y="14.696"></use><use xlink:href="#56" y="16.533"></use><use xlink:href="#57" y="18.37"></use><use xlink:href="#2" y="20.206999999999997"></use><use xlink:href="#8" y="22.044"></use><text x="0" y="25.551000000000002" class="c">|</text><text x="3.006" y="25.551000000000002" class="c">o</text><text x="6.012" y="25.551000000000002" class="c">Brew</text><text x="11.021999999999998" y="25.551000000000002" class="c">(3.1)</text><text x="0" y="27.387999999999998" class="c">|</text><text x="3.006" y="27.387999999999998" class="c">|</text><text x="6.012" y="27.387999999999998" class="c">Leaf</text><text x="11.021999999999998" y="27.387999999999998" class="c">for</text><text x="15.029999999999998" y="27.387999999999998" class="c">the</text><text x="19.037999999999997" y="27.387999999999998" class="c">pot.</text><use xlink:href="#8" y="27.555"></use><text x="0" y="31.061999999999998" class="c">|</text><text x="3.006" y="31.061999999999998" class="c">|</text><text x="6.012" y="31.061999999999998" class="c">&gt;</text><text x="8.016" y="31.061999999999998" class="c">(*)</text><text x="12.024" y="31.061999999999998" class="c">Black</text><text x="0" y="32.899" class="c">|</text><text x="3.006" y="32.899" class="c">|</text><text x="8.016" y="32.899" class="c">(</text><text x="10.02" y="32.899" class="c">)</text><text x="12.024" y="32.899" class="c">Green</text><use xlink:href="#8" y="33.066"></use></svg><svg x="1840"><use xlink:href="#a"></use><use xlink:href="#41" y="0"></use><use xlink:href="#42" y="1.837"></use><use xlink:href="#8" y="3.674"></use><use xlink:href="#46" y="5.511"></use><use xlink:href="#47" y="7.348"></use><use xlink:href="#2" y="9.185"></use><use xlink:href="#56" y="11.022"></use><use xlink:href="#57" y="12.859"></use><use xlink:href="#2" y="14.696"></use><use xlink:href="#8" y="16.533"></use><text x="0" y="20.04" class="c">|</text><text x="3.006" y="20.04" class="c">+</text><text x="6.012" y="20.04" class="c">Brew</text><text x="11.021999999999998" y="20.04" class="c">(3.1)</text><text x="0" y="21.876999999999995" class="c">|</text><text x="3.006" y="21.876999999999995" class="c">|</text><text x="6.012" y="21.876999999999995" class="c">Black</text><use xlink:href="#8" y="22.044"></use><text x="0" y="25.551000000000002" class="c">|</text><text x="3.006" y="25.551000000000002" class="c">o</text><text x="6.012" y="25.551000000000002" class="c">Roast</text><text x="12.024" y="25.551000000000002" class="c">(3.2)</text><text x="0" y="27.387999999999998" class="c">|</text><text x="3.006" y="27.387999999999998" class="c">|</text><text x="6.012" y="27.387999999999998" class="c">How</text><text x="10.02" y="27.387999999999998" class="c">far</text><text x="14.027999999999999" y="27.387999999999998" class="c">the</text><text x="18.035999999999998" y="27.387999999999998" class="c">beans</text><text x="24.048" y="27.387999999999998" class="c">are</text><text x="28.055999999999997" y="27.387999999999998" class="c">taken.</text><use xlink:href="#8" y="27.555"></use><text x="0" y="31.061999999999998" class="c">|</text><text x="3.006" y="31.061999999999998" class="c">|</text><text x="6.012" y="31.061999999999998" class="c">&gt;</text><text x="8.016" y="31.061999999999998" class="c">(*)</text><text x="12.024" y="31.061999999999998" class="c">Light</text><text x="0" y="32.899" class="c">|</text><text x="3.006" y="32.899" class="c">|</text><text x="8.016" y="32.899" class="c">(</text><text x="10.02" y="32.899" class="c">)</text><text x="12.024" y="32.899" class="c">Dark</text><use xlink:href="#8" y="33.066"></use></svg><svg x="1920"><use xlink:href="#a"></use><use xlink:href="#b" x="-0.0040000000000000036" y="34.728"></use><use xlink:href="#58" y="0"></use><use xlink:href="#59" y="1.837"></use><use xlink:href="#2" y="3.674"></use><use xlink:href="#2" y="5.511"></use><use xlink:href="#60" y="7.348"></use><use xlink:href="#61" y="12.859"></use><use xlink:href="#62" y="14.696"></use><use xlink:href="#63" y="16.533"></use><use xlink:href="#64" y="18.37"></use><use xlink:href="#65" y="20.206999999999997"></use><use xlink:href="#66" y="22.044"></use><use xlink:href="#67" y="23.881000000000004"></use><use xlink:href="#68" y="25.718"></use><use xlink:href="#69" y="27.555"></use><use xlink:href="#70" y="29.392"></use><use xlink:href="#71" y="31.229000000000003"></use><use xlink:href="#72" y="33.066"></use></svg><svg x="2000"><use xlink:href="#a"></use><use xlink:href="#b" x="0.996" y="34.728"></use><use xlink:href="#58" y="0"></use><use xlink:href="#59" y="1.837"></use><use xlink:href="#2" y="3.674"></use><use xlink:href="#2" y="5.511"></use><use xlink:href="#60" y="7.348"></use><use xlink:href="#61" y="12.859"></use><use xlink:href="#62" y="14.696"></use><use xlink:href="#63" y="16.533"></use><use xlink:href="#64" y="18.37"></use><use xlink:href="#65" y="20.206999999999997"></use><use xlink:href="#66" y="22.044"></use><use xlink:href="#67" y="23.881000000000004"></use><use xlink:href="#68" y="25.718"></use><use xlink:href="#69" y="27.555"></use><use xlink:href="#70" y="29.392"></use><use xlink:href="#71" y="31.229000000000003"></use><use xlink:href="#72" y="33.066"></use></svg></svg></g></g></svg></svg>