<svg xmlns="http://www.w3.org/2000/svg" xmlns:xlink="http://www.w3.org/1999/xlink" width="800" height="367.40000000000003"><rect width="800" height="367.40000000000003" rx="0" ry="0" class="a"></rect><svg height="367.40000000000003" viewBox="0 0 80 36.74" width="800" xmlns="http://www.w3.org/2000/svg" xmlns:xlink="http://www.w3.org/1999/xlink"><style>.a{fill:rgb(40,44,52)}.b{font-family:Consolas,"Courier New",Courier,"Liberation Mono",monospace}.c{fill:rgb(128,128,128);white-space:pre}.d{fill:rgb(171,178,191);font-weight:bold;white-space:pre}.e{fill:rgb(0,128,128);white-space:pre}.f{fill:rgb(171,178,191);white-space:pre}.g{fill:rgb(0,128,0);white-space:pre}.h{fill:transparent}.i{fill:rgb(82,139,255)}.k{animation-duration:22.263s;animation-iteration-count:infinite;animation-name:j;animation-timing-function:steps(1,end)}@keyframes j{0%{transform:translateX(-0px)}0.36%{transform:translateX(-80px)}4.86%{transform:translateX(-160px)}4.86%{transform:translateX(-240px)}9.37%{transform:translateX(-320px)}13.88%{transform:translateX(-400px)}22.88%{transform:translateX(-480px)}31.9%{transform:translateX(-560px)}44.98%{transform:translateX(-640px)}44.98%{transform:translateX(-720px)}44.98%{transform:translateX(-800px)}53.98%{transform:translateX(-880px)}64.34%{transform:translateX(-960px)}77.43%{transform:translateX(-1040px)}77.43%{transform:translateX(-1120px)}77.43%{transform:translateX(-1200px)}81.94%{transform:translateX(-1280px)}81.94%{transform:translateX(-1360px)}86.45%{transform:translateX(-1440px)}86.49%{transform:translateX(-1520px)}86.52%{transform:translateX(-1600px)}100%{transform:translateX(-1680px)}}</style><g font-family="Consolas, &quot;Courier New&quot;, Courier, &quot;Liberation Mono&quot;, monospace" font-size="1.67" class="b"><defs><symbol id="1"><text x="0" y="1.67" class="c">#</text><text x="3.006" y="1.67" class="d">Project</text><text x="11.021999999999998" y="1.67" class="d">scaffolder</text></symbol><symbol id="2"><text x="0" y="1.67" class="c">|</text></symbol><symbol id="3"><text x="0" y="1.67" class="e">+</text><text x="3.006" y="1.67" class="f">Project</text><text x="11.021999999999998" y="1.67" class="f">type</text><text x="16.032" y="1.67" class="f">(1)</text></symbol><symbol id="4"><text x="0" y="1.67" class="c">|</text><text x="3.006" y="1.67" class="f">Application</text></symbol><symbol id="5"><text x="0" y="1.67" class="c">|</text><text x="3.006" y="1.67" class="c">|</text></symbol><symbol id="6"><text x="0" y="1.67" class="c">|</text><text x="3.006" y="1.67" class="e">+</text><text x="6.012" y="1.67" class="f">App</text><text x="10.02" y="1.67" class="f">framework</text><text x="20.04" y="1.67" class="f">(1.1)</text></symbol><symbol id="7"><text x="0" y="1.67" class="c">|</text><text x="6.012" y="1.67" class="f">Next.js</text></symbol><symbol id="8"><text x="0" y="1.67" class="c">|</text><text x="6.012" y="1.67" class="c">|</text></symbol><symbol id="9"><text x="0" y="1.67" class="c">|</text><text x="6.012" y="1.67" class="e">+</text><text x="9.017999999999999" y="1.67" class="f">SSR</text><text x="13.026" y="1.67" class="f">mode</text><text x="18.035999999999998" y="1.67" class="f">(1.1.1)</text></symbol><symbol id="10"><text x="0" y="1.67" class="c">|</text><text x="6.012" y="1.67" class="c">|</text><text x="9.017999999999999" y="1.67" class="f">Server-side</text></symbol><symbol id="11"><text x="0" y="1.67" class="c">|</text><text x="6.012" y="1.67" class="e">+</text><text x="9.017999999999999" y="1.67" class="f">Use</text><text x="13.026" y="1.67" class="f">edge</text><text x="18.035999999999998" y="1.67" class="f">runtime?</text><text x="27.054" y="1.67" class="f">(1.1.2)</text></symbol><symbol id="12"><text x="0" y="1.67" class="c">|</text><text x="6.012" y="1.67" class="c">|</text><text x="9.017999999999999" y="1.67" class="f">Yes</text></symbol><symbol id="13"><text x="0" y="1.67" class="c">|</text><text x="6.012" y="1.67" class="e">+</text><text x="9.017999999999999" y="1.67" class="f">Include</text><text x="17.034" y="1.67" class="f">API</text><text x="21.041999999999998" y="1.67" class="f">routes?</text><text x="29.058" y="1.67" class="f">(1.1.3)</text></symbol><symbol id="14"><text x="0" y="1.67" class="c">|</text><text x="9.017999999999999" y="1.67" class="f">Yes</text></symbol><symbol id="15"><text x="0" y="1.67" class="e">o</text><text x="3.006" y="1.67" class="f">Code</text><text x="8.016" y="1.67" class="f">quality</text><text x="16.032" y="1.67" class="f">(2)</text></symbol><symbol id="16"><text x="0" y="1.67" class="c">|</text><text x="3.006" y="1.67" class="f">Select</text><text x="10.02" y="1.67" class="f">code</text><text x="15.029999999999998" y="1.67" class="f">quality</text><text x="23.045999999999996" y="1.67" class="f">tools.</text></symbol><symbol id="17"><text x="0" y="1.67" class="c">|</text><text x="3.006" y="1.67" class="f">Space</text><text x="9.017999999999999" y="1.67" class="f">to</text><text x="12.024" y="1.67" class="f">toggle,</text><text x="20.04" y="1.67" class="f">enter</text><text x="26.052" y="1.67" class="f">to</text><text x="29.058" y="1.67" class="f">confirm.</text></symbol><symbol id="18"><text x="0" y="1.67" class="e">+</text><text x="3.006" y="1.67" class="f">Code</text><text x="8.016" y="1.67" class="f">quality</text><text x="16.032" y="1.67" class="f">(2)</text></symbol><symbol id="19"><text x="0" y="1.67" class="c">|</text><text x="3.006" y="1.67" class="f">TypeScript,</text><text x="15.029999999999998" y="1.67" class="f">ESLint</text></symbol><symbol id="20"><text x="0" y="1.67" class="c">|</text><text x="3.006" y="1.67" class="e">+</text><text x="6.012" y="1.67" class="f">Strict</text><text x="13.026" y="1.67" class="f">TypeScript?</text><text x="25.05" y="1.67" class="f">(2.1)</text></symbol><symbol id="21"><text x="0" y="1.67" class="c">|</text><text x="3.006" y="1.67" class="c">|</text><text x="6.012" y="1.67" class="f">Yes</text></symbol><symbol id="22"><text x="0" y="1.67" class="c">|</text><text x="3.006" y="1.67" class="e">+</text><text x="6.012" y="1.67" class="f">ESLint</text><text x="13.026" y="1.67" class="f">config</text><text x="20.04" y="1.67" class="f">(2.2)</text></symbol><symbol id="23"><text x="0" y="1.67" class="c">|</text><text x="6.012" y="1.67" class="f">Strict</text></symbol><symbol id="24"><text x="0" y="1.67" class="e">o</text><text x="3.006" y="1.67" class="f">Testing</text><text x="11.021999999999998" y="1.67" class="f">(3)</text></symbol><symbol id="25"><text x="0" y="1.67" class="c">|</text><text x="3.006" y="1.67" class="f">Select</text><text x="10.02" y="1.67" class="f">testing</text><text x="18.035999999999998" y="1.67" class="f">tools.</text></symbol><symbol id="26"><text x="0" y="1.67" class="c">|</text><text x="3.006" y="1.67" class="g">[x]</text><text x="7.013999999999999" y="1.67" class="f">Unit</text><text x="12.024" y="1.67" class="f">tests</text></symbol><symbol id="27"><text x="0" y="1.67" class="c">|</text><text x="3.006" y="1.67" class="g">[x]</text><text x="7.013999999999999" y="1.67" class="f">E2E</text><text x="11.021999999999998" y="1.67" class="f">tests</text></symbol><symbol id="28"><text x="0" y="1.67" class="c">|</text><text x="5.01" y="1.67" class="f">--&gt;</text><text x="9.017999999999999" y="1.67" class="f">End-to-end</text><text x="20.04" y="1.67" class="f">browser</text><text x="28.055999999999997" y="1.67" class="f">tests</text><text x="34.068" y="1.67" class="f">with</text><text x="39.077999999999996" y="1.67" class="f">Playwright.</text></symbol><symbol id="29"><text x="0" y="1.67" class="c">|</text><text x="7.013999999999999" y="1.67" class="f">Slower</text><text x="14.027999999999999" y="1.67" class="f">but</text><text x="18.035999999999998" y="1.67" class="f">tests</text><text x="24.048" y="1.67" class="f">real</text><text x="29.058" y="1.67" class="f">user</text><text x="34.068" y="1.67" class="f">flows.</text></symbol><symbol id="30"><text x="0" y="1.67" class="e">+</text><text x="3.006" y="1.67" class="f">Testing</text><text x="11.021999999999998" y="1.67" class="f">(3)</text></symbol><symbol id="31"><text x="0" y="1.67" class="c">|</text><text x="3.006" y="1.67" class="f">Unit</text><text x="8.016" y="1.67" class="f">tests,</text><text x="15.029999999999998" y="1.67" class="f">E2E</text><text x="19.037999999999997" y="1.67" class="f">tests</text></symbol><symbol id="32"><text x="0" y="1.67" class="c">|</text><text x="3.006" y="1.67" class="e">+</text><text x="6.012" y="1.67" class="f">Unit</text><text x="11.021999999999998" y="1.67" class="f">test</text><text x="16.032" y="1.67" class="f">runner</text><text x="23.045999999999996" y="1.67" class="f">(3.1)</text></symbol><symbol id="33"><text x="0" y="1.67" class="c">|</text><text x="3.006" y="1.67" class="c">|</text><text x="6.012" y="1.67" class="f">Vitest</text></symbol><symbol id="34"><text x="0" y="1.67" class="c">|</text><text x="3.006" y="1.67" class="e">+</text><text x="6.012" y="1.67" class="f">E2E</text><text x="10.02" y="1.67" class="f">framework</text><text x="20.04" y="1.67" class="f">(3.2)</text></symbol><symbol id="35"><text x="0" y="1.67" class="c">|</text><text x="6.012" y="1.67" class="f">Playwright</text></symbol><symbol id="36"><text x="0" y="1.67" class="c">#</text><text x="3.006" y="1.67" class="g">Project</text><text x="11.021999999999998" y="1.67" class="g">configured!</text></symbol><symbol id="37"><text x="0" y="1.67" class="f">All</text><text x="4.008" y="1.67" class="f">answers:</text></symbol><symbol id="38"><text x="2.004" y="1.67" class="f">type:</text><text x="8.016" y="1.67" class="f">app</text></symbol><symbol id="39"><text x="2.004" y="1.67" class="f">app_framework:</text><text x="17.034" y="1.67" class="f">next</text></symbol><symbol id="40"><text x="2.004" y="1.67" class="f">ssr_mode:</text><text x="12.024" y="1.67" class="f">ssr</text></symbol><symbol id="41"><text x="2.004" y="1.67" class="f">edge_runtime:</text><text x="16.032" y="1.67" class="f">yes</text></symbol><symbol id="42"><text x="2.004" y="1.67" class="f">api_routes:</text><text x="14.027999999999999" y="1.67" class="f">yes</text></symbol><symbol id="43"><text x="2.004" y="1.67" class="f">quality:</text><text x="11.021999999999998" y="1.67" class="f">typescript,</text><text x="23.045999999999996" y="1.67" class="f">eslint</text></symbol><symbol id="44"><text x="2.004" y="1.67" class="f">ts_strict:</text><text x="13.026" y="1.67" class="f">yes</text></symbol><symbol id="45"><text x="2.004" y="1.67" class="f">eslint_config:</text><text x="17.034" y="1.67" class="f">strict</text></symbol><symbol id="46"><text x="2.004" y="1.67" class="f">testing:</text><text x="11.021999999999998" y="1.67" class="f">unit,</text><text x="17.034" y="1.67" class="f">e2e</text></symbol><symbol id="47"><text x="2.004" y="1.67" class="f">test_runner:</text><text x="15.029999999999998" y="1.67" class="f">vitest</text></symbol><symbol id="48"><text x="2.004" y="1.67" class="f">e2e_runner:</text><text x="14.027999999999999" y="1.67" class="f">playwright</text></symbol><symbol id="a"><rect height="20" width="80" x="0" y="0" class="h"></rect></symbol><symbol id="b"><rect height="1.837" width="1.1022" class="i"></rect></symbol></defs><rect height="36.74" width="80" class="a"></rect><g class="k"><svg x="0" y="0" width="1760"><svg x="0"><use xlink:href="#a"></use><use xlink:href="#b" x="-0.0040000000000000036" y="0"></use></svg><svg x="80"><use xlink:href="#a"></use><use xlink:href="#1" y="1.837"></use><use xlink:href="#2" y="3.674"></use><text x="0" y="7.181" class="e">o</text><text x="3.006" y="7.181" class="f">Project</text><text x="11.021999999999998" y="7.181" class="f">type</text><text x="16.032" y="7.181" class="f">(1)</text><text x="0" y="9.018" class="c">|</text><text x="3.006" y="9.018" class="f">What</text><text x="8.016" y="9.018" class="f">are</text><text x="12.024" y="9.018" class="f">you</text><text x="16.032" y="9.018" class="f">building?</text><use xlink:href="#2" y="9.185"></use><text x="0" y="12.692" class="c">|</text><text x="3.006" y="12.692" class="g">(*)</text><text x="7.013999999999999" y="12.692" class="f">Application</text><text x="0" y="14.529" class="c">|</text><text x="5.01" y="14.529" class="f">--&gt;</text><text x="9.017999999999999" y="14.529" class="f">Full-stack</text><text x="20.04" y="14.529" class="f">or</text><text x="23.045999999999996" y="14.529" class="f">single-page</text><text x="35.06999999999999" y="14.529" class="f">application.</text><text x="0" y="16.366" class="c">|</text><text x="3.006" y="16.366" class="f">(</text><text x="5.01" y="16.366" class="f">)</text><text x="7.013999999999999" y="16.366" class="f">Library</text><text x="0" y="18.203000000000003" class="c">|</text><text x="3.006" y="18.203000000000003" class="f">(</text><text x="5.01" y="18.203000000000003" class="f">)</text><text x="7.013999999999999" y="18.203000000000003" class="f">Static</text><text x="14.027999999999999" y="18.203000000000003" class="f">site</text><use xlink:href="#2" y="18.37"></use></svg><svg x="160"><use xlink:href="#a"></use><use xlink:href="#1" y="1.837"></use><use xlink:href="#2" y="3.674"></use><use xlink:href="#3" y="5.511"></use><use xlink:href="#4" y="7.348"></use><use xlink:href="#2" y="9.185"></use><use xlink:href="#5" y="11.022"></use></svg><svg x="240"><use xlink:href="#a"></use><use xlink:href="#1" y="1.837"></use><use xlink:href="#2" y="3.674"></use><use xlink:href="#3" y="5.511"></use><use xlink:href="#4" y="7.348"></use><use xlink:href="#2" y="9.185"></use><use xlink:href="#5" y="11.022"></use><text x="0" y="14.529" class="c">|</text><text x="3.006" y="14.529" class="e">o</text><text x="6.012" y="14.529" class="f">App</text><text x="10.02" y="14.529" class="f">framework</text><text x="20.04" y="14.529" class="f">(1.1)</text><text x="0" y="16.366" class="c">|</text><text x="6.012" y="16.366" class="f">Server-side</text><text x="18.035999999999998" y="16.366" class="f">rendering</text><text x="28.055999999999997" y="16.366" class="f">framework.</text><use xlink:href="#2" y="16.533"></use><text x="0" y="20.04" class="c">|</text><text x="6.012" y="20.04" class="g">(*)</text><text x="10.02" y="20.04" class="f">Next.js</text><text x="0" y="21.876999999999995" class="c">|</text><text x="6.012" y="21.876999999999995" class="f">(</text><text x="8.016" y="21.876999999999995" class="f">)</text><text x="10.02" y="21.876999999999995" class="f">Nuxt</text><text x="0" y="23.714" class="c">|</text><text x="6.012" y="23.714" class="f">(</text><text x="8.016" y="23.714" class="f">)</text><text x="10.02" y="23.714" class="f">SvelteKit</text><use xlink:href="#2" y="23.881000000000004"></use></svg><svg x="320"><use xlink:href="#a"></use><use xlink:href="#1" y="1.837"></use><use xlink:href="#2" y="3.674"></use><use xlink:href="#3" y="5.511"></use><use xlink:href="#4" y="7.348"></use><use xlink:href="#2" y="9.185"></use><use xlink:href="#5" y="11.022"></use><use xlink:href="#6" y="12.859"></use><use xlink:href="#7" y="14.696"></use><use xlink:href="#2" y="16.533"></use><use xlink:href="#8" y="18.37"></use><text x="0" y="21.876999999999995" class="c">|</text><text x="6.012" y="21.876999999999995" class="e">o</text><text x="9.017999999999999" y="21.876999999999995" class="f">SSR</text><text x="13.026" y="21.876999999999995" class="f">mode</text><text x="18.035999999999998" y="21.876999999999995" class="f">(1.1.1)</text><text x="0" y="23.714" class="c">|</text><text x="6.012" y="23.714" class="c">|</text><text x="9.017999999999999" y="23.714" class="f">How</text><text x="13.026" y="23.714" class="f">pages</text><text x="19.037999999999997" y="23.714" class="f">are</text><text x="23.045999999999996" y="23.714" class="f">rendered.</text><use xlink:href="#8" y="23.881000000000004"></use><text x="0" y="27.387999999999998" class="c">|</text><text x="6.012" y="27.387999999999998" class="c">|</text><text x="9.017999999999999" y="27.387999999999998" class="g">(*)</text><text x="13.026" y="27.387999999999998" class="f">Server-side</text><text x="0" y="29.225" class="c">|</text><text x="6.012" y="29.225" class="c">|</text><text x="9.017999999999999" y="29.225" class="f">(</text><text x="11.021999999999998" y="29.225" class="f">)</text><text x="13.026" y="29.225" class="f">Static</text><text x="20.04" y="29.225" class="f">generation</text><text x="0" y="31.061999999999998" class="c">|</text><text x="6.012" y="31.061999999999998" class="c">|</text><text x="9.017999999999999" y="31.061999999999998" class="f">(</text><text x="11.021999999999998" y="31.061999999999998" class="f">)</text><text x="13.026" y="31.061999999999998" class="f">Hybrid</text><use xlink:href="#8" y="31.229000000000003"></use></svg><svg x="400"><use xlink:href="#a"></use><use xlink:href="#1" y="1.837"></use><use xlink:href="#2" y="3.674"></use><use xlink:href="#3" y="5.511"></use><use xlink:href="#4" y="7.348"></use><use xlink:href="#2" y="9.185"></use><use xlink:href="#5" y="11.022"></use><use xlink:href="#6" y="12.859"></use><use xlink:href="#7" y="14.696"></use><use xlink:href="#2" y="16.533"></use><use xlink:href="#8" y="18.37"></use><use xlink:href="#9" y="20.206999999999997"></use><use xlink:href="#10" y="22.044"></use><use xlink:href="#8" y="23.881000000000004"></use><text x="0" y="27.387999999999998" class="c">|</text><text x="6.012" y="27.387999999999998" class="e">o</text><text x="9.017999999999999" y="27.387999999999998" class="f">Use</text><text x="13.026" y="27.387999999999998" class="f">edge</text><text x="18.035999999999998" y="27.387999999999998" class="f">runtime?</text><text x="27.054" y="27.387999999999998" class="f">(1.1.2)</text><text x="0" y="29.225" class="c">|</text><text x="6.012" y="29.225" class="c">|</text><text x="9.017999999999999" y="29.225" class="f">Deploy</text><text x="16.032" y="29.225" class="f">to</text><text x="19.037999999999997" y="29.225" class="f">edge</text><text x="24.048" y="29.225" class="f">functions</text><text x="34.068" y="29.225" class="f">for</text><text x="38.07599999999999" y="29.225" class="f">lower</text><text x="44.087999999999994" y="29.225" class="f">latency.</text><use xlink:href="#8" y="29.392"></use><text x="0" y="32.899" class="c">|</text><text x="6.012" y="32.899" class="c">|</text><text x="9.017999999999999" y="32.899" class="g">(*)</text><text x="13.026" y="32.899" class="f">Yes</text><text x="17.034" y="32.899" class="f">/</text><text x="19.037999999999997" y="32.899" class="f">(</text><text x="21.041999999999998" y="32.899" class="f">)</text><text x="23.045999999999996" y="32.899" class="f">No</text><use xlink:href="#8" y="33.066"></use></svg><svg x="480"><use xlink:href="#a"></use><use xlink:href="#3" y="0"></use><use xlink:href="#4" y="1.837"></use><use xlink:href="#2" y="3.674"></use><use xlink:href="#5" y="5.511"></use><use xlink:href="#6" y="7.348"></use><use xlink:href="#7" y="9.185"></use><use xlink:href="#2" y="11.022"></use><use xlink:href="#8" y="12.859"></use><use xlink:href="#9" y="14.696"></use><use xlink:href="#10" y="16.533"></use><use xlink:href="#8" y="18.37"></use><use xlink:href="#11" y="20.206999999999997"></use><use xlink:href="#12" y="22.044"></use><use xlink:href="#8" y="23.881000000000004"></use><text x="0" y="27.387999999999998" class="c">|</text><text x="6.012" y="27.387999999999998" class="e">o</text><text x="9.017999999999999" y="27.387999999999998" class="f">Include</text><text x="17.034" y="27.387999999999998" class="f">API</text><text x="21.041999999999998" y="27.387999999999998" class="f">routes?</text><text x="29.058" y="27.387999999999998" class="f">(1.1.3)</text><text x="0" y="29.225" class="c">|</text><text x="9.017999999999999" y="29.225" class="f">Add</text><text x="13.026" y="29.225" class="f">server-side</text><text x="25.05" y="29.225" class="f">API</text><text x="29.058" y="29.225" class="f">endpoints.</text><use xlink:href="#2" y="29.392"></use><text x="0" y="32.899" class="c">|</text><text x="9.017999999999999" y="32.899" class="g">(*)</text><text x="13.026" y="32.899" class="f">Yes</text><text x="17.034" y="32.899" class="f">/</text><text x="19.037999999999997" y="32.899" class="f">(</text><text x="21.041999999999998" y="32.899" class="f">)</text><text x="23.045999999999996" y="32.899" class="f">No</text><use xlink:href="#2" y="33.066"></use></svg><svg x="560"><use xlink:href="#a"></use><use xlink:href="#9" y="0"></use><use xlink:href="#10" y="1.837"></use><use xlink:href="#8" y="3.674"></use><use xlink:href="#11" y="5.511"></use><use xlink:href="#12" y="7.348"></use><use xlink:href="#8" y="9.185"></use><use xlink:href="#13" y="11.022"></use><use xlink:href="#14" y="12.859"></use><use xlink:href="#2" y="14.696"></use><use xlink:href="#15" y="16.533"></use><use xlink:href="#16" y="18.37"></use><use xlink:href="#17" y="20.206999999999997"></use><use xlink:href="#2" y="22.044"></use><text x="0" y="25.551000000000002" class="c">|</text><text x="3.006" y="25.551000000000002" class="g">[</text><text x="5.01" y="25.551000000000002" class="g">]</text><text x="7.013999999999999" y="25.551000000000002" class="f">TypeScript</text><text x="0" y="27.387999999999998" class="c">|</text><text x="5.01" y="27.387999999999998" class="f">--&gt;</text><text x="9.017999999999999" y="27.387999999999998" class="f">Adds</text><text x="14.027999999999999" y="27.387999999999998" class="f">type</text><text x="19.037999999999997" y="27.387999999999998" class="f">safety</text><text x="26.052" y="27.387999999999998" class="f">with</text><text x="31.061999999999998" y="27.387999999999998" class="f">static</text><text x="38.07599999999999" y="27.387999999999998" class="f">type</text><text x="43.086" y="27.387999999999998" class="f">checking.</text><text x="0" y="29.225" class="c">|</text><text x="3.006" y="29.225" class="f">[</text><text x="5.01" y="29.225" class="f">]</text><text x="7.013999999999999" y="29.225" class="f">ESLint</text><text x="0" y="31.061999999999998" class="c">|</text><text x="3.006" y="31.061999999999998" class="f">[</text><text x="5.01" y="31.061999999999998" class="f">]</text><text x="7.013999999999999" y="31.061999999999998" class="f">Prettier</text><text x="0" y="32.899" class="c">|</text><text x="3.006" y="32.899" class="f">[</text><text x="5.01" y="32.899" class="f">]</text><text x="7.013999999999999" y="32.899" class="f">Husky</text><use xlink:href="#2" y="33.066"></use></svg><svg x="640"><use xlink:href="#a"></use><use xlink:href="#9" y="0"></use><use xlink:href="#10" y="1.837"></use><use xlink:href="#8" y="3.674"></use><use xlink:href="#11" y="5.511"></use><use xlink:href="#12" y="7.348"></use><use xlink:href="#8" y="9.185"></use><use xlink:href="#13" y="11.022"></use><use xlink:href="#14" y="12.859"></use><use xlink:href="#2" y="14.696"></use><use xlink:href="#15" y="16.533"></use><use xlink:href="#16" y="18.37"></use><use xlink:href="#17" y="20.206999999999997"></use><use xlink:href="#2" y="22.044"></use></svg><svg x="720"><use xlink:href="#a"></use><use xlink:href="#9" y="0"></use><use xlink:href="#10" y="1.837"></use><use xlink:href="#8" y="3.674"></use><use xlink:href="#11" y="5.511"></use><use xlink:href="#12" y="7.348"></use><use xlink:href="#8" y="9.185"></use><use xlink:href="#13" y="11.022"></use><use xlink:href="#14" y="12.859"></use><use xlink:href="#2" y="14.696"></use><use xlink:href="#15" y="16.533"></use><use xlink:href="#16" y="18.37"></use><use xlink:href="#17" y="20.206999999999997"></use><use xlink:href="#2" y="22.044"></use><text x="0" y="25.551000000000002" class="c">|</text><text x="3.006" y="25.551000000000002" class="g">[x</text></svg><svg x="800"><use xlink:href="#a"></use><use xlink:href="#9" y="0"></use><use xlink:href="#10" y="1.837"></use><use xlink:href="#8" y="3.674"></use><use xlink:href="#11" y="5.511"></use><use xlink:href="#12" y="7.348"></use><use xlink:href="#8" y="9.185"></use><use xlink:href="#13" y="11.022"></use><use xlink:href="#14" y="12.859"></use><use xlink:href="#2" y="14.696"></use><use xlink:href="#18" y="16.533"></use><use xlink:href="#19" y="18.37"></use><use xlink:href="#2" y="20.206999999999997"></use><use xlink:href="#5" y="22.044"></use><text x="0" y="25.551000000000002" class="c">|</text><text x="3.006" y="25.551000000000002" class="e">o</text><text x="6.012" y="25.551000000000002" class="f">Strict</text><text x="13.026" y="25.551000000000002" class="f">TypeScript?</text><text x="25.05" y="25.551000000000002" class="f">(2.1)</text><text x="0" y="27.387999999999998" class="c">|</text><text x="3.006" y="27.387999999999998" class="c">|</text><text x="6.012" y="27.387999999999998" class="f">Enables</text><text x="14.027999999999999" y="27.387999999999998" class="f">strict</text><text x="21.041999999999998" y="27.387999999999998" class="f">mode</text><text x="26.052" y="27.387999999999998" class="f">in</text><text x="29.058" y="27.387999999999998" class="f">tsconfig.json.</text><use xlink:href="#5" y="27.555"></use><text x="0" y="31.061999999999998" class="c">|</text><text x="3.006" y="31.061999999999998" class="c">|</text><text x="6.012" y="31.061999999999998" class="g">(*)</text><text x="10.02" y="31.061999999999998" class="f">Yes</text><text x="14.027999999999999" y="31.061999999999998" class="f">/</text><text x="16.032" y="31.061999999999998" class="f">(</text><text x="18.035999999999998" y="31.061999999999998" class="f">)</text><text x="20.04" y="31.061999999999998" class="f">No</text><use xlink:href="#5" y="31.229000000000003"></use></svg><svg x="880"><use xlink:href="#a"></use><use xlink:href="#12" y="0"></use><use xlink:href="#8" y="1.837"></use><use xlink:href="#13" y="3.674"></use><use xlink:href="#14" y="5.511"></use><use xlink:href="#2" y="7.348"></use><use xlink:href="#18" y="9.185"></use><use xlink:href="#19" y="11.022"></use><use xlink:href="#2" y="12.859"></use><use xlink:href="#5" y="14.696"></use><use xlink:href="#20" y="16.533"></use><use xlink:href="#21" y="18.37"></use><use xlink:href="#5" y="20.206999999999997"></use><text x="0" y="23.714" class="c">|</text><text x="3.006" y="23.714" class="e">o</text><text x="6.012" y="23.714" class="f">ESLint</text><text x="13.026" y="23.714" class="f">config</text><text x="20.04" y="23.714" class="f">(2.2)</text><text x="0" y="25.551000000000002" class="c">|</text><text x="6.012" y="25.551000000000002" class="f">Base</text><text x="11.021999999999998" y="25.551000000000002" class="f">ESLint</text><text x="18.035999999999998" y="25.551000000000002" class="f">configuration.</text><use xlink:href="#2" y="25.718"></use><text x="0" y="29.225" class="c">|</text><text x="6.012" y="29.225" class="g">(*)</text><text x="10.02" y="29.225" class="f">Recommended</text><text x="0" y="31.061999999999998" class="c">|</text><text x="6.012" y="31.061999999999998" class="f">(</text><text x="8.016" y="31.061999999999998" class="f">)</text><text x="10.02" y="31.061999999999998" class="f">Strict</text><text x="0" y="32.899" class="c">|</text><text x="6.012" y="32.899" class="f">(</text><text x="8.016" y="32.899" class="f">)</text><text x="10.02" y="32.899" class="f">Custom</text><use xlink:href="#2" y="33.066"></use></svg><svg x="960"><use xlink:href="#a"></use><use xlink:href="#2" y="0"></use><use xlink:href="#18" y="1.837"></use><use xlink:href="#19" y="3.674"></use><use xlink:href="#2" y="5.511"></use><use xlink:href="#5" y="7.348"></use><use xlink:href="#20" y="9.185"></use><use xlink:href="#21" y="11.022"></use><use xlink:href="#5" y="12.859"></use><use xlink:href="#22" y="14.696"></use><use xlink:href="#23" y="16.533"></use><use xlink:href="#2" y="18.37"></use><use xlink:href="#24" y="20.206999999999997"></use><use xlink:href="#25" y="22.044"></use><use xlink:href="#2" y="23.881000000000004"></use><text x="0" y="27.387999999999998" class="c">|</text><text x="3.006" y="27.387999999999998" class="g">[</text><text x="5.01" y="27.387999999999998" class="g">]</text><text x="7.013999999999999" y="27.387999999999998" class="f">Unit</text><text x="12.024" y="27.387999999999998" class="f">tests</text><text x="0" y="29.225" class="c">|</text><text x="5.01" y="29.225" class="f">--&gt;</text><text x="9.017999999999999" y="29.225" class="f">Fast</text><text x="14.027999999999999" y="29.225" class="f">isolated</text><text x="23.045999999999996" y="29.225" class="f">tests</text><text x="29.058" y="29.225" class="f">with</text><text x="34.068" y="29.225" class="f">Vitest.</text><text x="0" y="31.061999999999998" class="c">|</text><text x="3.006" y="31.061999999999998" class="f">[</text><text x="5.01" y="31.061999999999998" class="f">]</text><text x="7.013999999999999" y="31.061999999999998" class="f">E2E</text><text x="11.021999999999998" y="31.061999999999998" class="f">tests</text><text x="0" y="32.899" class="c">|</text><text x="3.006" y="32.899" class="f">[</text><text x="5.01" y="32.899" class="f">]</text><text x="7.013999999999999" y="32.899" class="f">Coverage</text><text x="16.032" y="32.899" class="f">reporting</text><use xlink:href="#2" y="33.066"></use></svg><svg x="1040"><use xlink:href="#a"></use><use xlink:href="#18" y="0"></use><use xlink:href="#19" y="1.837"></use><use xlink:href="#2" y="3.674"></use><use xlink:href="#5" y="5.511"></use><use xlink:href="#20" y="7.348"></use><use xlink:href="#21" y="9.185"></use><use xlink:href="#5" y="11.022"></use><use xlink:href="#22" y="12.859"></use><use xlink:href="#23" y="14.696"></use><use xlink:href="#2" y="16.533"></use><use xlink:href="#24" y="18.37"></use><use xlink:href="#25" y="20.206999999999997"></use><use xlink:href="#2" y="22.044"></use><use xlink:href="#26" y="23.881000000000004"></use><use xlink:href="#27" y="25.718"></use><use xlink:href="#28" y="27.555"></use><use xlink:href="#29" y="29.392"></use></svg><svg x="1120"><use xlink:href="#a"></use><use xlink:href="#18" y="0"></use><use xlink:href="#19" y="1.837"></use><use xlink:href="#2" y="3.674"></use><use xlink:href="#5" y="5.511"></use><use xlink:href="#20" y="7.348"></use><use xlink:href="#21" y="9.185"></use><use xlink:href="#5" y="11.022"></use><use xlink:href="#22" y="12.859"></use><use xlink:href="#23" y="14.696"></use><use xlink:href="#2" y="16.533"></use><use xlink:href="#24" y="18.37"></use><use xlink:href="#25" y="20.206999999999997"></use><use xlink:href="#2" y="22.044"></use><use xlink:href="#26" y="23.881000000000004"></use><use xlink:href="#27" y="25.718"></use><use xlink:href="#28" y="27.555"></use><use xlink:href="#29" y="29.392"></use><text x="0" y="32.899" class="c">|</text><text x="3.006" y="32.899" class="f">[</text><text x="5.01" y="32.899" class="f">]</text></svg><svg x="1200"><use xlink:href="#a"></use><use xlink:href="#19" y="0"></use><use xlink:href="#2" y="1.837"></use><use xlink:href="#5" y="3.674"></use><use xlink:href="#20" y="5.511"></use><use xlink:href="#21" y="7.348"></use><use xlink:href="#5" y="9.185"></use><use xlink:href="#22" y="11.022"></use><use xlink:href="#23" y="12.859"></use><use xlink:href="#2" y="14.696"></use><use xlink:href="#30" y="16.533"></use><use xlink:href="#31" y="18.37"></use><use xlink:href="#2" y="20.206999999999997"></use><use xlink:href="#5" y="22.044"></use><text x="0" y="25.551000000000002" class="c">|</text><text x="3.006" y="25.551000000000002" class="e">o</text><text x="6.012" y="25.551000000000002" class="f">Unit</text><text x="11.021999999999998" y="25.551000000000002" class="f">test</text><text x="16.032" y="25.551000000000002" class="f">runner</text><text x="23.045999999999996" y="25.551000000000002" class="f">(3.1)</text><text x="0" y="27.387999999999998" class="c">|</text><text x="3.006" y="27.387999999999998" class="c">|</text><text x="6.012" y="27.387999999999998" class="f">Unit</text><text x="11.021999999999998" y="27.387999999999998" class="f">testing</text><text x="19.037999999999997" y="27.387999999999998" class="f">framework.</text><use xlink:href="#5" y="27.555"></use><text x="0" y="31.061999999999998" class="c">|</text><text x="3.006" y="31.061999999999998" class="c">|</text><text x="6.012" y="31.061999999999998" class="g">(*)</text><text x="10.02" y="31.061999999999998" class="f">Vitest</text><text x="0" y="32.899" class="c">|</text><text x="3.006" y="32.899" class="c">|</text><text x="6.012" y="32.899" class="f">(</text><text x="8.016" y="32.899" class="f">)</text><text x="10.02" y="32.899" class="f">Jest</text><use xlink:href="#5" y="33.066"></use></svg><svg x="1280"><use xlink:href="#a"></use><use xlink:href="#19" y="0"></use><use xlink:href="#2" y="1.837"></use><use xlink:href="#5" y="3.674"></use><use xlink:href="#20" y="5.511"></use><use xlink:href="#21" y="7.348"></use><use xlink:href="#5" y="9.185"></use><use xlink:href="#22" y="11.022"></use><use xlink:href="#23" y="12.859"></use><use xlink:href="#2" y="14.696"></use><use xlink:href="#30" y="16.533"></use><use xlink:href="#31" y="18.37"></use><use xlink:href="#2" y="20.206999999999997"></use><use xlink:href="#5" y="22.044"></use><use xlink:href="#32" y="23.881000000000004"></use><use xlink:href="#33" y="25.718"></use><use xlink:href="#5" y="27.555"></use></svg><svg x="1360"><use xlink:href="#a"></use><use xlink:href="#20" y="0"></use><use xlink:href="#21" y="1.837"></use><use xlink:href="#5" y="3.674"></use><use xlink:href="#22" y="5.511"></use><use xlink:href="#23" y="7.348"></use><use xlink:href="#2" y="9.185"></use><use xlink:href="#30" y="11.022"></use><use xlink:href="#31" y="12.859"></use><use xlink:href="#2" y="14.696"></use><use xlink:href="#5" y="16.533"></use><use xlink:href="#32" y="18.37"></use><use xlink:href="#33" y="20.206999999999997"></use><use xlink:href="#5" y="22.044"></use><text x="0" y="25.551000000000002" class="c">|</text><text x="3.006" y="25.551000000000002" class="e">o</text><text x="6.012" y="25.551000000000002" class="f">E2E</text><text x="10.02" y="25.551000000000002" class="f">framework</text><text x="20.04" y="25.551000000000002" class="f">(3.2)</text><text x="0" y="27.387999999999998" class="c">|</text><text x="6.012" y="27.387999999999998" class="f">Browser</text><text x="14.027999999999999" y="27.387999999999998" class="f">testing</text><text x="22.043999999999997" y="27.387999999999998" class="f">framework.</text><use xlink:href="#2" y="27.555"></use><text x="0" y="31.061999999999998" class="c">|</text><text x="6.012" y="31.061999999999998" class="g">(*)</text><text x="10.02" y="31.061999999999998" class="f">Playwright</text><text x="0" y="32.899" class="c">|</text><text x="6.012" y="32.899" class="f">(</text><text x="8.016" y="32.899" class="f">)</text><text x="10.02" y="32.899" class="f">Cypress</text><use xlink:href="#2" y="33.066"></use></svg><svg x="1440"><use xlink:href="#a"></use><use xlink:href="#34" y="0"></use><use xlink:href="#35" y="1.837"></use><use xlink:href="#2" y="3.674"></use><use xlink:href="#2" y="5.511"></use><use xlink:href="#36" y="7.348"></use><use xlink:href="#37" y="12.859"></use><use xlink:href="#38" y="14.696"></use><use xlink:href="#39" y="16.533"></use><use xlink:href="#40" y="18.37"></use><use xlink:href="#41" y="20.206999999999997"></use><use xlink:href="#42" y="22.044"></use><use xlink:href="#43" y="23.881000000000004"></use><use xlink:href="#44" y="25.718"></use><use xlink:href="#45" y="27.555"></use><use xlink:href="#46" y="29.392"></use><use xlink:href="#47" y="31.229000000000003"></use><use xlink:href="#48" y="33.066"></use></svg><svg x="1520"><use xlink:href="#a"></use><use xlink:href="#b" x="-0.0040000000000000036" y="34.728"></use><use xlink:href="#34" y="0"></use><use xlink:href="#35" y="1.837"></use><use xlink:href="#2" y="3.674"></use><use xlink:href="#2" y="5.511"></use><use xlink:href="#36" y="7.348"></use><use xlink:href="#37" y="12.859"></use><use xlink:href="#38" y="14.696"></use><use xlink:href="#39" y="16.533"></use><use xlink:href="#40" y="18.37"></use><use xlink:href="#41" y="20.206999999999997"></use><use xlink:href="#42" y="22.044"></use><use xlink:href="#43" y="23.881000000000004"></use><use xlink:href="#44" y="25.718"></use><use xlink:href="#45" y="27.555"></use><use xlink:href="#46" y="29.392"></use><use xlink:href="#47" y="31.229000000000003"></use><use xlink:href="#48" y="33.066"></use></svg><svg x="1600"><use xlink:href="#a"></use><use xlink:href="#b" x="-0.0040000000000000036" y="34.728"></use><use xlink:href="#34" y="0"></use><use xlink:href="#35" y="1.837"></use><use xlink:href="#2" y="3.674"></use><use xlink:href="#2" y="5.511"></use><use xlink:href="#36" y="7.348"></use><use xlink:href="#37" y="12.859"></use><use xlink:href="#38" y="14.696"></use><use xlink:href="#39" y="16.533"></use><use xlink:href="#40" y="18.37"></use><use xlink:href="#41" y="20.206999999999997"></use><use xlink:href="#42" y="22.044"></use><use xlink:href="#43" y="23.881000000000004"></use><use xlink:href="#44" y="25.718"></use><use xlink:href="#45" y="27.555"></use><use xlink:href="#46" y="29.392"></use><use xlink:href="#47" y="31.229000000000003"></use><use xlink:href="#48" y="33.066"></use></svg><svg x="1680"><use xlink:href="#a"></use><use xlink:href="#b" x="0.996" y="34.728"></use><use xlink:href="#34" y="0"></use><use xlink:href="#35" y="1.837"></use><use xlink:href="#2" y="3.674"></use><use xlink:href="#2" y="5.511"></use><use xlink:href="#36" y="7.348"></use><use xlink:href="#37" y="12.859"></use><use xlink:href="#38" y="14.696"></use><use xlink:href="#39" y="16.533"></use><use xlink:href="#40" y="18.37"></use><use xlink:href="#41" y="20.206999999999997"></use><use xlink:href="#42" y="22.044"></use><use xlink:href="#43" y="23.881000000000004"></use><use xlink:href="#44" y="25.718"></use><use xlink:href="#45" y="27.555"></use><use xlink:href="#46" y="29.392"></use><use xlink:href="#47" y="31.229000000000003"></use><use xlink:href="#48" y="33.066"></use></svg></svg></g></g></svg></svg>