<svg xmlns="http://www.w3.org/2000/svg" xmlns:xlink="http://www.w3.org/1999/xlink" width="800" height="367.40000000000003"><rect width="800" height="367.40000000000003" rx="0" ry="0" class="a"></rect><svg height="367.40000000000003" viewBox="0 0 80 36.74" width="800" xmlns="http://www.w3.org/2000/svg" xmlns:xlink="http://www.w3.org/1999/xlink"><style>.a{fill:rgb(40,44,52)}.b{font-family:Consolas,"Courier New",Courier,"Liberation Mono",monospace}.c{fill:rgb(128,128,128);white-space:pre}.d{fill:rgb(171,178,191);font-weight:bold;white-space:pre}.e{fill:rgb(0,128,128);white-space:pre}.f{fill:rgb(171,178,191);white-space:pre}.g{fill:rgb(0,128,0);white-space:pre}.h{fill:transparent}.i{fill:rgb(82,139,255)}.k{animation-duration:13.409s;animation-iteration-count:infinite;animation-name:j;animation-timing-function:steps(1,end)}@keyframes j{0%{transform:translateX(-0px)}0.6%{transform:translateX(-80px)}22.2%{transform:translateX(-160px)}22.2%{transform:translateX(-240px)}22.2%{transform:translateX(-320px)}22.2%{transform:translateX(-400px)}22.2%{transform:translateX(-480px)}39.4%{transform:translateX(-560px)}39.4%{transform:translateX(-640px)}61.8%{transform:translateX(-720px)}61.8%{transform:translateX(-800px)}61.8%{transform:translateX(-880px)}61.8%{transform:translateX(-960px)}61.8%{transform:translateX(-1040px)}76.7%{transform:translateX(-1120px)}76.7%{transform:translateX(-1200px)}77.3%{transform:translateX(-1280px)}77.6%{transform:translateX(-1360px)}100%{transform:translateX(-1440px)}}</style><g font-family="Consolas, &quot;Courier New&quot;, Courier, &quot;Liberation Mono&quot;, monospace" font-size="1.67" class="b"><defs><symbol id="1"><text x="0" y="1.67" class="c">┌</text><text x="3.006" y="1.67" class="d">Create</text><text x="10.02" y="1.67" class="d">your</text><text x="15.029999999999998" y="1.67" class="d">project</text></symbol><symbol id="2"><text x="0" y="1.67" class="c">│</text></symbol><symbol id="3"><text x="0" y="1.67" class="e">◇</text><text x="3.006" y="1.67" class="f">Project</text><text x="11.021999999999998" y="1.67" class="f">name</text><text x="16.032" y="1.67" class="f">(1)</text></symbol><symbol id="4"><text x="0" y="1.67" class="c">│</text><text x="3.006" y="1.67" class="f">Used</text><text x="8.016" y="1.67" class="f">as</text><text x="11.021999999999998" y="1.67" class="f">the</text><text x="15.029999999999998" y="1.67" class="f">directory</text><text x="25.05" y="1.67" class="f">name</text><text x="30.059999999999995" y="1.67" class="f">and</text><text x="34.068" y="1.67" class="f">the</text><text x="38.07599999999999" y="1.67" class="f">&quot;name&quot;</text><text x="45.089999999999996" y="1.67" class="f">field</text></symbol><symbol id="5"><text x="0" y="1.67" class="c">│</text><text x="3.006" y="1.67" class="f">in</text><text x="6.012" y="1.67" class="f">package.json.</text></symbol><symbol id="6"><text x="0" y="1.67" class="e">◆</text><text x="3.006" y="1.67" class="f">Project</text><text x="11.021999999999998" y="1.67" class="f">name</text><text x="16.032" y="1.67" class="f">(1)</text></symbol><symbol id="7"><text x="0" y="1.67" class="c">│</text><text x="3.006" y="1.67" class="f">my-project</text></symbol><symbol id="8"><text x="0" y="1.67" class="e">◆</text><text x="3.006" y="1.67" class="f">Framework</text><text x="13.026" y="1.67" class="f">(2)</text></symbol><symbol id="9"><text x="0" y="1.67" class="c">│</text><text x="3.006" y="1.67" class="f">Vue</text></symbol><symbol id="10"><text x="0" y="1.67" class="e">◇</text><text x="3.006" y="1.67" class="f">Features</text><text x="12.024" y="1.67" class="f">(3)</text></symbol><symbol id="11"><text x="0" y="1.67" class="c">│</text><text x="3.006" y="1.67" class="f">Select</text><text x="10.02" y="1.67" class="f">features</text><text x="19.037999999999997" y="1.67" class="f">to</text><text x="22.043999999999997" y="1.67" class="f">include.</text></symbol><symbol id="12"><text x="0" y="1.67" class="c">│</text><text x="3.006" y="1.67" class="f">Space</text><text x="9.017999999999999" y="1.67" class="f">to</text><text x="12.024" y="1.67" class="f">toggle,</text><text x="20.04" y="1.67" class="f">enter</text><text x="26.052" y="1.67" class="f">to</text><text x="29.058" y="1.67" class="f">confirm.</text></symbol><symbol id="13"><text x="0" y="1.67" class="c">│</text><text x="3.006" y="1.67" class="g">◻</text><text x="5.01" y="1.67" class="f">TypeScript</text></symbol><symbol id="14"><text x="0" y="1.67" class="c">│</text><text x="5.01" y="1.67" class="f">↳</text><text x="7.013999999999999" y="1.67" class="f">Adds</text><text x="12.024" y="1.67" class="f">type</text><text x="17.034" y="1.67" class="f">safety</text><text x="24.048" y="1.67" class="f">with</text><text x="29.058" y="1.67" class="f">static</text><text x="36.071999999999996" y="1.67" class="f">type</text><text x="41.082" y="1.67" class="f">checking.</text></symbol><symbol id="15"><text x="0" y="1.67" class="c">│</text><text x="3.006" y="1.67" class="f">◻</text><text x="5.01" y="1.67" class="f">ESLint</text></symbol><symbol id="16"><text x="0" y="1.67" class="c">│</text><text x="3.006" y="1.67" class="f">◻</text><text x="5.01" y="1.67" class="f">Prettier</text></symbol><symbol id="17"><text x="0" y="1.67" class="c">│</text><text x="3.006" y="1.67" class="f">◻</text><text x="5.01" y="1.67" class="f">Vitest</text></symbol><symbol id="18"><text x="0" y="1.67" class="c">│</text><text x="3.006" y="1.67" class="f">◻</text><text x="5.01" y="1.67" class="f">Tailwind</text><text x="14.027999999999999" y="1.67" class="f">CSS</text></symbol><symbol id="19"><text x="0" y="1.67" class="e">◆</text><text x="3.006" y="1.67" class="f">Features</text><text x="12.024" y="1.67" class="f">(3)</text></symbol><symbol id="20"><text x="0" y="1.67" class="c">│</text><text x="3.006" y="1.67" class="f">ESLint,</text><text x="11.021999999999998" y="1.67" class="f">Vitest</text></symbol><symbol id="21"><text x="0" y="1.67" class="e">◆</text><text x="3.006" y="1.67" class="f">Install</text><text x="11.021999999999998" y="1.67" class="f">dependencies?</text><text x="25.05" y="1.67" class="f">(4)</text></symbol><symbol id="22"><text x="0" y="1.67" class="c">│</text><text x="3.006" y="1.67" class="f">Yes</text></symbol><symbol id="23"><text x="0" y="1.67" class="c">└</text><text x="3.006" y="1.67" class="g">You&#x27;re</text><text x="10.02" y="1.67" class="g">all</text><text x="14.027999999999999" y="1.67" class="g">set!</text></symbol><symbol id="24"><text x="0" y="1.67" class="f">Collected</text><text x="10.02" y="1.67" class="f">answers:</text></symbol><symbol id="25"><text x="2.004" y="1.67" class="f">name:</text><text x="8.016" y="1.67" class="f">my-project</text></symbol><symbol id="26"><text x="2.004" y="1.67" class="f">framework:</text><text x="13.026" y="1.67" class="f">vue</text></symbol><symbol id="27"><text x="2.004" y="1.67" class="f">features:</text><text x="12.024" y="1.67" class="f">eslint,</text><text x="20.04" y="1.67" class="f">vitest</text></symbol><symbol id="28"><text x="2.004" y="1.67" class="f">install:</text><text x="11.021999999999998" y="1.67" class="f">yes</text></symbol><symbol id="a"><rect height="20" width="80" x="0" y="0" class="h"></rect></symbol><symbol id="b"><rect height="1.837" width="1.1022" class="i"></rect></symbol></defs><rect height="36.74" width="80" class="a"></rect><g class="k"><svg x="0" y="0" width="1520"><svg x="0"><use xlink:href="#a"></use><use xlink:href="#b" x="-0.0040000000000000036" y="0"></use></svg><svg x="80"><use xlink:href="#a"></use><use xlink:href="#1" y="1.837"></use><use xlink:href="#2" y="3.674"></use><use xlink:href="#3" y="5.511"></use><use xlink:href="#4" y="7.348"></use><use xlink:href="#5" y="9.185"></use><use xlink:href="#2" y="11.022"></use><text x="0" y="14.529" class="c">│</text><text x="3.006" y="14.529" class="c">my-app</text><text x="9.017999999999999" y="14.529" class="e">█</text><use xlink:href="#2" y="14.696"></use></svg><svg x="160"><use xlink:href="#a"></use><use xlink:href="#1" y="1.837"></use><use xlink:href="#2" y="3.674"></use><use xlink:href="#3" y="5.511"></use><text x="0" y="9.018" class="c">│</text><text x="3.006" y="9.018" class="f">Used</text><text x="8.016" y="9.018" class="f">as</text><text x="11.021999999999998" y="9.018" class="f">t</text></svg><svg x="240"><use xlink:href="#a"></use><use xlink:href="#1" y="1.837"></use><use xlink:href="#2" y="3.674"></use><use xlink:href="#3" y="5.511"></use><text x="0" y="9.018" class="c">│</text><text x="3.006" y="9.018" class="f">Used</text><text x="8.016" y="9.018" class="f">as</text><text x="11.021999999999998" y="9.018" class="f">the</text><text x="15.029999999999998" y="9.018" class="f">directory</text><text x="25.05" y="9.018" class="f">name</text><text x="30.059999999999995" y="9.018" class="f">and</text><text x="34.068" y="9.018" class="f">the</text></svg><svg x="320"><use xlink:href="#a"></use><use xlink:href="#1" y="1.837"></use><use xlink:href="#2" y="3.674"></use><use xlink:href="#3" y="5.511"></use><use xlink:href="#4" y="7.348"></use><use xlink:href="#5" y="9.185"></use></svg><svg x="400"><use xlink:href="#a"></use><use xlink:href="#1" y="1.837"></use><use xlink:href="#2" y="3.674"></use><use xlink:href="#3" y="5.511"></use><use xlink:href="#4" y="7.348"></use><use xlink:href="#5" y="9.185"></use><use xlink:href="#2" y="11.022"></use><use xlink:href="#2" y="12.859"></use></svg><svg x="480"><use xlink:href="#a"></use><use xlink:href="#1" y="1.837"></use><use xlink:href="#2" y="3.674"></use><use xlink:href="#6" y="5.511"></use><use xlink:href="#7" y="7.348"></use><use xlink:href="#2" y="9.185"></use><text x="0" y="12.692" class="e">◇</text><text x="3.006" y="12.692" class="f">Framework</text><text x="13.026" y="12.692" class="f">(2)</text><text x="0" y="14.529" class="c">│</text><text x="3.006" y="14.529" class="f">The</text><text x="7.013999999999999" y="14.529" class="f">UI</text><text x="10.02" y="14.529" class="f">layer</text><text x="16.032" y="14.529" class="f">for</text><text x="20.04" y="14.529" class="f">your</text><text x="25.05" y="14.529" class="f">project.</text><use xlink:href="#2" y="14.696"></use><text x="0" y="18.203000000000003" class="c">│</text><text x="3.006" y="18.203000000000003" class="g">●</text><text x="5.01" y="18.203000000000003" class="f">React</text><text x="0" y="20.04" class="c">│</text><text x="5.01" y="20.04" class="f">↳</text><text x="7.013999999999999" y="20.04" class="f">Component-based</text><text x="23.045999999999996" y="20.04" class="f">library</text><text x="31.061999999999998" y="20.04" class="f">by</text><text x="34.068" y="20.04" class="f">Meta</text><text x="39.077999999999996" y="20.04" class="f">with</text><text x="44.087999999999994" y="20.04" class="f">the</text><text x="48.096" y="20.04" class="f">largest</text><text x="56.111999999999995" y="20.04" class="f">ecosystem.</text><text x="0" y="21.876999999999995" class="c">│</text><text x="3.006" y="21.876999999999995" class="f">○</text><text x="5.01" y="21.876999999999995" class="f">Vue</text><text x="0" y="23.714" class="c">│</text><text x="3.006" y="23.714" class="f">○</text><text x="5.01" y="23.714" class="f">Svelte</text><text x="0" y="25.551000000000002" class="c">│</text><text x="3.006" y="25.551000000000002" class="f">○</text><text x="5.01" y="25.551000000000002" class="f">Astro</text><use xlink:href="#2" y="25.718"></use></svg><svg x="560"><use xlink:href="#a"></use><use xlink:href="#1" y="1.837"></use><use xlink:href="#2" y="3.674"></use><use xlink:href="#6" y="5.511"></use><use xlink:href="#7" y="7.348"></use><use xlink:href="#2" y="9.185"></use><use xlink:href="#8" y="11.022"></use><use xlink:href="#9" y="12.859"></use><use xlink:href="#2" y="14.696"></use><use xlink:href="#10" y="16.533"></use><use xlink:href="#11" y="18.37"></use><use xlink:href="#12" y="20.206999999999997"></use><use xlink:href="#2" y="22.044"></use><use xlink:href="#13" y="23.881000000000004"></use><use xlink:href="#14" y="25.718"></use><use xlink:href="#15" y="27.555"></use><use xlink:href="#16" y="29.392"></use><use xlink:href="#17" y="31.229000000000003"></use><use xlink:href="#18" y="33.066"></use></svg><svg x="640"><use xlink:href="#a"></use><use xlink:href="#1" y="0"></use><use xlink:href="#2" y="1.837"></use><use xlink:href="#6" y="3.674"></use><use xlink:href="#7" y="5.511"></use><use xlink:href="#2" y="7.348"></use><use xlink:href="#8" y="9.185"></use><use xlink:href="#9" y="11.022"></use><use xlink:href="#2" y="12.859"></use><use xlink:href="#10" y="14.696"></use><use xlink:href="#11" y="16.533"></use><use xlink:href="#12" y="18.37"></use><use xlink:href="#2" y="20.206999999999997"></use><use xlink:href="#13" y="22.044"></use><use xlink:href="#14" y="23.881000000000004"></use><use xlink:href="#15" y="25.718"></use><use xlink:href="#16" y="27.555"></use><use xlink:href="#17" y="29.392"></use><use xlink:href="#18" y="31.229000000000003"></use><use xlink:href="#2" y="33.066"></use></svg><svg x="720"><use xlink:href="#a"></use><use xlink:href="#1" y="0"></use><use xlink:href="#2" y="1.837"></use><use xlink:href="#6" y="3.674"></use><use xlink:href="#7" y="5.511"></use><use xlink:href="#2" y="7.348"></use><use xlink:href="#8" y="9.185"></use><use xlink:href="#9" y="11.022"></use><use xlink:href="#2" y="12.859"></use></svg><svg x="800"><use xlink:href="#a"></use><use xlink:href="#1" y="0"></use><use xlink:href="#2" y="1.837"></use><use xlink:href="#6" y="3.674"></use><use xlink:href="#7" y="5.511"></use><use xlink:href="#2" y="7.348"></use><use xlink:href="#8" y="9.185"></use><use xlink:href="#9" y="11.022"></use><use xlink:href="#2" y="12.859"></use><text x="0" y="16.366" class="e">◇</text><text x="3.006" y="16.366" class="f">Features</text><text x="12.024" y="16.366" class="f">(3</text></svg><svg x="880"><use xlink:href="#a"></use><use xlink:href="#2" y="0"></use><use xlink:href="#6" y="1.837"></use><use xlink:href="#7" y="3.674"></use><use xlink:href="#2" y="5.511"></use><use xlink:href="#8" y="7.348"></use><use xlink:href="#9" y="9.185"></use><use xlink:href="#2" y="11.022"></use><text x="0" y="14.529" class="e">◇</text><text x="3.006" y="14.529" class="f">Features</text></svg><svg x="960"><use xlink:href="#a"></use><use xlink:href="#2" y="0"></use><use xlink:href="#6" y="1.837"></use><use xlink:href="#7" y="3.674"></use><use xlink:href="#2" y="5.511"></use><use xlink:href="#8" y="7.348"></use><use xlink:href="#9" y="9.185"></use><use xlink:href="#2" y="11.022"></use><use xlink:href="#10" y="12.859"></use><use xlink:href="#2" y="14.696"></use></svg><svg x="1040"><use xlink:href="#a"></use><use xlink:href="#2" y="0"></use><use xlink:href="#6" y="1.837"></use><use xlink:href="#7" y="3.674"></use><use xlink:href="#2" y="5.511"></use><use xlink:href="#8" y="7.348"></use><use xlink:href="#9" y="9.185"></use><use xlink:href="#2" y="11.022"></use><use xlink:href="#19" y="12.859"></use><use xlink:href="#20" y="14.696"></use><use xlink:href="#2" y="16.533"></use><text x="0" y="20.04" class="e">◇</text><text x="3.006" y="20.04" class="f">Install</text><text x="11.021999999999998" y="20.04" class="f">dependencies?</text><text x="25.05" y="20.04" class="f">(4)</text><text x="0" y="21.876999999999995" class="c">│</text><text x="3.006" y="21.876999999999995" class="f">Runs</text><text x="8.016" y="21.876999999999995" class="f">npm</text><text x="12.024" y="21.876999999999995" class="f">install</text><text x="20.04" y="21.876999999999995" class="f">after</text><text x="26.052" y="21.876999999999995" class="f">scaffolding.</text><use xlink:href="#2" y="22.044"></use><text x="0" y="25.551000000000002" class="c">│</text><text x="3.006" y="25.551000000000002" class="g">●</text><text x="5.01" y="25.551000000000002" class="f">Yes</text><text x="9.017999999999999" y="25.551000000000002" class="f">/</text><text x="11.021999999999998" y="25.551000000000002" class="f">○</text><text x="13.026" y="25.551000000000002" class="f">No</text><use xlink:href="#2" y="25.718"></use></svg><svg x="1120"><use xlink:href="#a"></use><use xlink:href="#2" y="0"></use><use xlink:href="#6" y="1.837"></use><use xlink:href="#7" y="3.674"></use><use xlink:href="#2" y="5.511"></use><use xlink:href="#8" y="7.348"></use><use xlink:href="#9" y="9.185"></use><use xlink:href="#2" y="11.022"></use><use xlink:href="#19" y="12.859"></use><use xlink:href="#20" y="14.696"></use><use xlink:href="#2" y="16.533"></use><use xlink:href="#21" y="18.37"></use><use xlink:href="#22" y="20.206999999999997"></use><use xlink:href="#2" y="22.044"></use></svg><svg x="1200"><use xlink:href="#a"></use><use xlink:href="#2" y="0"></use><use xlink:href="#8" y="1.837"></use><use xlink:href="#9" y="3.674"></use><use xlink:href="#2" y="5.511"></use><use xlink:href="#19" y="7.348"></use><use xlink:href="#20" y="9.185"></use><use xlink:href="#2" y="11.022"></use><use xlink:href="#21" y="12.859"></use><use xlink:href="#22" y="14.696"></use><use xlink:href="#2" y="16.533"></use><use xlink:href="#2" y="18.37"></use><use xlink:href="#23" y="20.206999999999997"></use><use xlink:href="#24" y="25.718"></use><use xlink:href="#25" y="27.555"></use><use xlink:href="#26" y="29.392"></use><use xlink:href="#27" y="31.229000000000003"></use><use xlink:href="#28" y="33.066"></use></svg><svg x="1280"><use xlink:href="#a"></use><use xlink:href="#b" x="-0.0040000000000000036" y="34.728"></use><use xlink:href="#2" y="0"></use><use xlink:href="#8" y="1.837"></use><use xlink:href="#9" y="3.674"></use><use xlink:href="#2" y="5.511"></use><use xlink:href="#19" y="7.348"></use><use xlink:href="#20" y="9.185"></use><use xlink:href="#2" y="11.022"></use><use xlink:href="#21" y="12.859"></use><use xlink:href="#22" y="14.696"></use><use xlink:href="#2" y="16.533"></use><use xlink:href="#2" y="18.37"></use><use xlink:href="#23" y="20.206999999999997"></use><use xlink:href="#24" y="25.718"></use><use xlink:href="#25" y="27.555"></use><use xlink:href="#26" y="29.392"></use><use xlink:href="#27" y="31.229000000000003"></use><use xlink:href="#28" y="33.066"></use></svg><svg x="1360"><use xlink:href="#a"></use><use xlink:href="#b" x="-0.0040000000000000036" y="34.728"></use><use xlink:href="#2" y="0"></use><use xlink:href="#8" y="1.837"></use><use xlink:href="#9" y="3.674"></use><use xlink:href="#2" y="5.511"></use><use xlink:href="#19" y="7.348"></use><use xlink:href="#20" y="9.185"></use><use xlink:href="#2" y="11.022"></use><use xlink:href="#21" y="12.859"></use><use xlink:href="#22" y="14.696"></use><use xlink:href="#2" y="16.533"></use><use xlink:href="#2" y="18.37"></use><use xlink:href="#23" y="20.206999999999997"></use><use xlink:href="#24" y="25.718"></use><use xlink:href="#25" y="27.555"></use><use xlink:href="#26" y="29.392"></use><use xlink:href="#27" y="31.229000000000003"></use><use xlink:href="#28" y="33.066"></use></svg><svg x="1440"><use xlink:href="#a"></use><use xlink:href="#b" x="0.996" y="34.728"></use><use xlink:href="#2" y="0"></use><use xlink:href="#8" y="1.837"></use><use xlink:href="#9" y="3.674"></use><use xlink:href="#2" y="5.511"></use><use xlink:href="#19" y="7.348"></use><use xlink:href="#20" y="9.185"></use><use xlink:href="#2" y="11.022"></use><use xlink:href="#21" y="12.859"></use><use xlink:href="#22" y="14.696"></use><use xlink:href="#2" y="16.533"></use><use xlink:href="#2" y="18.37"></use><use xlink:href="#23" y="20.206999999999997"></use><use xlink:href="#24" y="25.718"></use><use xlink:href="#25" y="27.555"></use><use xlink:href="#26" y="29.392"></use><use xlink:href="#27" y="31.229000000000003"></use><use xlink:href="#28" y="33.066"></use></svg></svg></g></g></svg></svg>