<svg xmlns="http://www.w3.org/2000/svg" xmlns:xlink="http://www.w3.org/1999/xlink" width="800" height="367.40000000000003"><rect width="800" height="367.40000000000003" rx="0" ry="0" class="a"></rect><svg height="367.40000000000003" viewBox="0 0 80 36.74" width="800" xmlns="http://www.w3.org/2000/svg" xmlns:xlink="http://www.w3.org/1999/xlink"><style>.a{fill:rgb(40,44,52)}.b{font-family:Consolas,"Courier New",Courier,"Liberation Mono",monospace}.c{fill:rgb(128,128,128);white-space:pre}.d{fill:rgb(171,178,191);font-weight:bold;white-space:pre}.e{fill:rgb(0,128,128);white-space:pre}.f{fill:rgb(171,178,191);white-space:pre}.g{fill:rgb(0,128,0);white-space:pre}.h{fill:transparent}.i{fill:rgb(82,139,255)}.k{animation-duration:15.2s;animation-iteration-count:infinite;animation-name:j;animation-timing-function:steps(1,end)}@keyframes j{0%{transform:translateX(-0px)}0%{transform:translateX(-80px)}6.6%{transform:translateX(-160px)}7.2%{transform:translateX(-240px)}13.8%{transform:translateX(-320px)}20.4%{transform:translateX(-400px)}21.1%{transform:translateX(-480px)}27.6%{transform:translateX(-560px)}28.3%{transform:translateX(-640px)}34.9%{transform:translateX(-720px)}35.5%{transform:translateX(-800px)}42.1%{transform:translateX(-880px)}42.8%{transform:translateX(-960px)}43.4%{transform:translateX(-1040px)}44.1%{transform:translateX(-1120px)}50.7%{transform:translateX(-1200px)}51.3%{transform:translateX(-1280px)}57.9%{transform:translateX(-1360px)}58.6%{transform:translateX(-1440px)}65.1%{transform:translateX(-1520px)}65.8%{transform:translateX(-1600px)}66.4%{transform:translateX(-1680px)}67.1%{transform:translateX(-1760px)}73.7%{transform:translateX(-1840px)}80.3%{transform:translateX(-1920px)}100%{transform:translateX(-2000px)}}</style><g font-family="Consolas, &quot;Courier New&quot;, Courier, &quot;Liberation Mono&quot;, monospace" font-size="1.67" class="b"><defs><symbol id="1"><text x="0" y="1.67" class="c">┌</text><text x="3.006" y="1.67" class="d">Kitchen</text><text x="11.021999999999998" y="1.67" class="d">order</text></symbol><symbol id="2"><text x="0" y="1.67" class="c">│</text></symbol><symbol id="3"><text x="0" y="1.67" class="e">◇</text><text x="3.006" y="1.67" class="f">Course</text><text x="10.02" y="1.67" class="f">(1)</text></symbol><symbol id="4"><text x="0" y="1.67" class="c">│</text><text x="3.006" y="1.67" class="f">Where</text><text x="9.017999999999999" y="1.67" class="f">the</text><text x="13.026" y="1.67" class="f">dish</text><text x="18.035999999999998" y="1.67" class="f">sits</text><text x="23.045999999999996" y="1.67" class="f">in</text><text x="26.052" y="1.67" class="f">the</text><text x="30.059999999999995" y="1.67" class="f">meal.</text></symbol><symbol id="5"><text x="0" y="1.67" class="c">│</text><text x="3.006" y="1.67" class="f">○</text><text x="5.01" y="1.67" class="f">Dessert</text></symbol><symbol id="6"><text x="0" y="1.67" class="e">◆</text><text x="3.006" y="1.67" class="f">Course</text><text x="10.02" y="1.67" class="f">(1)</text></symbol><symbol id="7"><text x="0" y="1.67" class="c">│</text><text x="3.006" y="1.67" class="f">Main</text></symbol><symbol id="8"><text x="0" y="1.67" class="c">│</text><text x="3.006" y="1.67" class="c">│</text></symbol><symbol id="9"><text x="0" y="1.67" class="c">│</text><text x="3.006" y="1.67" class="e">◆</text><text x="6.012" y="1.67" class="f">Method</text><text x="13.026" y="1.67" class="f">(1.1)</text></symbol><symbol id="10"><text x="0" y="1.67" class="c">│</text><text x="6.012" y="1.67" class="f">Baked</text></symbol><symbol id="11"><text x="0" y="1.67" class="c">│</text><text x="6.012" y="1.67" class="c">│</text></symbol><symbol id="12"><text x="0" y="1.67" class="c">│</text><text x="6.012" y="1.67" class="e">◇</text><text x="9.017999999999999" y="1.67" class="f">Temperature</text><text x="21.041999999999998" y="1.67" class="f">(1.1.1)</text></symbol><symbol id="13"><text x="0" y="1.67" class="c">│</text><text x="6.012" y="1.67" class="c">│</text><text x="9.017999999999999" y="1.67" class="f">Oven</text><text x="14.027999999999999" y="1.67" class="f">setting</text><text x="22.043999999999997" y="1.67" class="f">for</text><text x="26.052" y="1.67" class="f">the</text><text x="30.059999999999995" y="1.67" class="f">bake.</text></symbol><symbol id="14"><text x="0" y="1.67" class="c">│</text><text x="6.012" y="1.67" class="c">│</text><text x="11.021999999999998" y="1.67" class="f">○</text><text x="13.026" y="1.67" class="f">High</text></symbol><symbol id="15"><text x="0" y="1.67" class="c">│</text><text x="6.012" y="1.67" class="e">◆</text><text x="9.017999999999999" y="1.67" class="f">Temperature</text><text x="21.041999999999998" y="1.67" class="f">(1.1.1)</text></symbol><symbol id="16"><text x="0" y="1.67" class="c">│</text><text x="6.012" y="1.67" class="c">│</text><text x="9.017999999999999" y="1.67" class="f">Moderate</text></symbol><symbol id="17"><text x="0" y="1.67" class="c">│</text><text x="6.012" y="1.67" class="e">◇</text><text x="9.017999999999999" y="1.67" class="f">Rest</text><text x="14.027999999999999" y="1.67" class="f">before</text><text x="21.041999999999998" y="1.67" class="f">serving?</text><text x="30.059999999999995" y="1.67" class="f">(1.1.2)</text></symbol><symbol id="18"><text x="0" y="1.67" class="c">│</text><text x="6.012" y="1.67" class="c">│</text><text x="9.017999999999999" y="1.67" class="f">Lets</text><text x="14.027999999999999" y="1.67" class="f">the</text><text x="18.035999999999998" y="1.67" class="f">dish</text><text x="23.045999999999996" y="1.67" class="f">settle.</text></symbol><symbol id="19"><text x="0" y="1.67" class="c">│</text><text x="6.012" y="1.67" class="c">│</text><text x="9.017999999999999" y="1.67" class="g">●</text><text x="11.021999999999998" y="1.67" class="f">Yes</text><text x="15.029999999999998" y="1.67" class="f">/</text><text x="17.034" y="1.67" class="f">○</text><text x="19.037999999999997" y="1.67" class="f">No</text></symbol><symbol id="20"><text x="0" y="1.67" class="c">│</text><text x="6.012" y="1.67" class="e">◆</text><text x="9.017999999999999" y="1.67" class="f">Rest</text><text x="14.027999999999999" y="1.67" class="f">before</text><text x="21.041999999999998" y="1.67" class="f">serving?</text><text x="30.059999999999995" y="1.67" class="f">(1.1.2)</text></symbol><symbol id="21"><text x="0" y="1.67" class="c">│</text><text x="6.012" y="1.67" class="c">│</text><text x="9.017999999999999" y="1.67" class="f">Yes</text></symbol><symbol id="22"><text x="0" y="1.67" class="c">│</text><text x="6.012" y="1.67" class="e">◇</text><text x="9.017999999999999" y="1.67" class="f">Sauce</text><text x="15.029999999999998" y="1.67" class="f">on</text><text x="18.035999999999998" y="1.67" class="f">the</text><text x="22.043999999999997" y="1.67" class="f">side?</text><text x="28.055999999999997" y="1.67" class="f">(1.1.3)</text></symbol><symbol id="23"><text x="0" y="1.67" class="c">│</text><text x="9.017999999999999" y="1.67" class="f">Served</text><text x="16.032" y="1.67" class="f">separately</text><text x="27.054" y="1.67" class="f">rather</text><text x="34.068" y="1.67" class="f">than</text><text x="39.077999999999996" y="1.67" class="f">poured.</text></symbol><symbol id="24"><text x="0" y="1.67" class="c">│</text><text x="9.017999999999999" y="1.67" class="g">●</text><text x="11.021999999999998" y="1.67" class="f">Yes</text><text x="15.029999999999998" y="1.67" class="f">/</text><text x="17.034" y="1.67" class="f">○</text><text x="19.037999999999997" y="1.67" class="f">No</text></symbol><symbol id="25"><text x="0" y="1.67" class="c">│</text><text x="6.012" y="1.67" class="e">◆</text><text x="9.017999999999999" y="1.67" class="f">Sauce</text><text x="15.029999999999998" y="1.67" class="f">on</text><text x="18.035999999999998" y="1.67" class="f">the</text><text x="22.043999999999997" y="1.67" class="f">side?</text><text x="28.055999999999997" y="1.67" class="f">(1.1.3)</text></symbol><symbol id="26"><text x="0" y="1.67" class="c">│</text><text x="9.017999999999999" y="1.67" class="f">Yes</text></symbol><symbol id="27"><text x="0" y="1.67" class="e">◇</text><text x="3.006" y="1.67" class="f">Extras</text><text x="10.02" y="1.67" class="f">(2)</text></symbol><symbol id="28"><text x="0" y="1.67" class="c">│</text><text x="3.006" y="1.67" class="f">Anything</text><text x="12.024" y="1.67" class="f">served</text><text x="19.037999999999997" y="1.67" class="f">alongside.</text></symbol><symbol id="29"><text x="0" y="1.67" class="c">│</text><text x="3.006" y="1.67" class="f">Space</text><text x="9.017999999999999" y="1.67" class="f">to</text><text x="12.024" y="1.67" class="f">toggle,</text><text x="20.04" y="1.67" class="f">enter</text><text x="26.052" y="1.67" class="f">to</text><text x="29.058" y="1.67" class="f">confirm.</text></symbol><symbol id="30"><text x="0" y="1.67" class="c">│</text><text x="5.01" y="1.67" class="f">↳</text><text x="7.013999999999999" y="1.67" class="f">Warm,</text><text x="13.026" y="1.67" class="f">cut</text><text x="17.034" y="1.67" class="f">at</text><text x="20.04" y="1.67" class="f">the</text><text x="24.048" y="1.67" class="f">table.</text></symbol><symbol id="31"><text x="0" y="1.67" class="c">│</text><text x="3.006" y="1.67" class="f">◻</text><text x="5.01" y="1.67" class="f">Olives</text></symbol><symbol id="32"><text x="0" y="1.67" class="c">│</text><text x="3.006" y="1.67" class="f">◻</text><text x="5.01" y="1.67" class="f">Herbs</text></symbol><symbol id="33"><text x="0" y="1.67" class="c">│</text><text x="3.006" y="1.67" class="f">◻</text><text x="5.01" y="1.67" class="f">Lemon</text></symbol><symbol id="34"><text x="0" y="1.67" class="c">│</text><text x="3.006" y="1.67" class="g">◼</text><text x="5.01" y="1.67" class="f">Bread</text></symbol><symbol id="35"><text x="0" y="1.67" class="c">│</text><text x="5.01" y="1.67" class="f">↳</text><text x="7.013999999999999" y="1.67" class="f">Marinated,</text><text x="18.035999999999998" y="1.67" class="f">served</text><text x="25.05" y="1.67" class="f">in</text><text x="28.055999999999997" y="1.67" class="f">oil.</text></symbol><symbol id="36"><text x="0" y="1.67" class="e">◆</text><text x="3.006" y="1.67" class="f">Extras</text><text x="10.02" y="1.67" class="f">(2)</text></symbol><symbol id="37"><text x="0" y="1.67" class="c">│</text><text x="3.006" y="1.67" class="f">Bread,</text><text x="10.02" y="1.67" class="f">Olives</text></symbol><symbol id="38"><text x="0" y="1.67" class="c">│</text><text x="3.006" y="1.67" class="e">◇</text><text x="6.012" y="1.67" class="f">Toast</text><text x="12.024" y="1.67" class="f">the</text><text x="16.032" y="1.67" class="f">bread?</text><text x="23.045999999999996" y="1.67" class="f">(2.1)</text></symbol><symbol id="39"><text x="0" y="1.67" class="c">│</text><text x="3.006" y="1.67" class="c">│</text><text x="6.012" y="1.67" class="f">Browned</text><text x="14.027999999999999" y="1.67" class="f">just</text><text x="19.037999999999997" y="1.67" class="f">before</text><text x="26.052" y="1.67" class="f">serving.</text></symbol><symbol id="40"><text x="0" y="1.67" class="c">│</text><text x="3.006" y="1.67" class="c">│</text><text x="6.012" y="1.67" class="g">●</text><text x="8.016" y="1.67" class="f">Yes</text><text x="12.024" y="1.67" class="f">/</text><text x="14.027999999999999" y="1.67" class="f">○</text><text x="16.032" y="1.67" class="f">No</text></symbol><symbol id="41"><text x="0" y="1.67" class="c">│</text><text x="3.006" y="1.67" class="e">◆</text><text x="6.012" y="1.67" class="f">Toast</text><text x="12.024" y="1.67" class="f">the</text><text x="16.032" y="1.67" class="f">bread?</text><text x="23.045999999999996" y="1.67" class="f">(2.1)</text></symbol><symbol id="42"><text x="0" y="1.67" class="c">│</text><text x="3.006" y="1.67" class="c">│</text><text x="6.012" y="1.67" class="f">Yes</text></symbol><symbol id="43"><text x="0" y="1.67" class="c">│</text><text x="3.006" y="1.67" class="e">◇</text><text x="6.012" y="1.67" class="f">Marinade</text><text x="15.029999999999998" y="1.67" class="f">(2.2)</text></symbol><symbol id="44"><text x="0" y="1.67" class="c">│</text><text x="3.006" y="1.67" class="c">│</text><text x="6.012" y="1.67" class="f">What</text><text x="11.021999999999998" y="1.67" class="f">the</text><text x="15.029999999999998" y="1.67" class="f">olives</text><text x="22.043999999999997" y="1.67" class="f">sit</text><text x="26.052" y="1.67" class="f">in.</text></symbol><symbol id="45"><text x="0" y="1.67" class="c">│</text><text x="3.006" y="1.67" class="c">│</text><text x="8.016" y="1.67" class="f">○</text><text x="10.02" y="1.67" class="f">Citrus</text></symbol><symbol id="46"><text x="0" y="1.67" class="c">│</text><text x="3.006" y="1.67" class="e">◆</text><text x="6.012" y="1.67" class="f">Marinade</text><text x="15.029999999999998" y="1.67" class="f">(2.2)</text></symbol><symbol id="47"><text x="0" y="1.67" class="c">│</text><text x="6.012" y="1.67" class="f">Chilli</text></symbol><symbol id="48"><text x="0" y="1.67" class="e">◇</text><text x="3.006" y="1.67" class="f">Drinks</text><text x="10.02" y="1.67" class="f">(3)</text></symbol><symbol id="49"><text x="0" y="1.67" class="c">│</text><text x="3.006" y="1.67" class="f">Poured</text><text x="10.02" y="1.67" class="f">at</text><text x="13.026" y="1.67" class="f">the</text><text x="17.034" y="1.67" class="f">table.</text></symbol><symbol id="50"><text x="0" y="1.67" class="c">│</text><text x="5.01" y="1.67" class="f">↳</text><text x="7.013999999999999" y="1.67" class="f">Loose</text><text x="13.026" y="1.67" class="f">leaf,</text><text x="19.037999999999997" y="1.67" class="f">warmed</text><text x="26.052" y="1.67" class="f">in</text><text x="29.058" y="1.67" class="f">the</text><text x="33.065999999999995" y="1.67" class="f">pot.</text></symbol><symbol id="51"><text x="0" y="1.67" class="c">│</text><text x="3.006" y="1.67" class="f">◻</text><text x="5.01" y="1.67" class="f">Coffee</text></symbol><symbol id="52"><text x="0" y="1.67" class="c">│</text><text x="3.006" y="1.67" class="f">◻</text><text x="5.01" y="1.67" class="f">Juice</text></symbol><symbol id="53"><text x="0" y="1.67" class="c">│</text><text x="3.006" y="1.67" class="g">◼</text><text x="5.01" y="1.67" class="f">Tea</text></symbol><symbol id="54"><text x="0" y="1.67" class="c">│</text><text x="5.01" y="1.67" class="f">↳</text><text x="7.013999999999999" y="1.67" class="f">Ground</text><text x="14.027999999999999" y="1.67" class="f">for</text><text x="18.035999999999998" y="1.67" class="f">each</text><text x="23.045999999999996" y="1.67" class="f">cup.</text></symbol><symbol id="55"><text x="0" y="1.67" class="c">│</text><text x="7.013999999999999" y="1.67" class="f">Slower,</text><text x="15.029999999999998" y="1.67" class="f">but</text><text x="19.037999999999997" y="1.67" class="f">worth</text><text x="25.05" y="1.67" class="f">the</text><text x="29.058" y="1.67" class="f">wait.</text></symbol><symbol id="56"><text x="0" y="1.67" class="e">◆</text><text x="3.006" y="1.67" class="f">Drinks</text><text x="10.02" y="1.67" class="f">(3)</text></symbol><symbol id="57"><text x="0" y="1.67" class="c">│</text><text x="3.006" y="1.67" class="f">Tea,</text><text x="8.016" y="1.67" class="f">Coffee</text></symbol><symbol id="58"><text x="0" y="1.67" class="c">│</text><text x="3.006" y="1.67" class="e">◆</text><text x="6.012" y="1.67" class="f">Roast</text><text x="12.024" y="1.67" class="f">(3.2)</text></symbol><symbol id="59"><text x="0" y="1.67" class="c">│</text><text x="6.012" y="1.67" class="f">Light</text></symbol><symbol id="60"><text x="0" y="1.67" class="c">└</text><text x="3.006" y="1.67" class="g">Order</text><text x="9.017999999999999" y="1.67" class="g">sent</text><text x="14.027999999999999" y="1.67" class="g">to</text><text x="17.034" y="1.67" class="g">the</text><text x="21.041999999999998" y="1.67" class="g">kitchen!</text></symbol><symbol id="61"><text x="0" y="1.67" class="f">Collected</text><text x="10.02" y="1.67" class="f">answers:</text></symbol><symbol id="62"><text x="2.004" y="1.67" class="f">course:</text><text x="10.02" y="1.67" class="f">main</text></symbol><symbol id="63"><text x="2.004" y="1.67" class="f">method:</text><text x="10.02" y="1.67" class="f">baked</text></symbol><symbol id="64"><text x="2.004" y="1.67" class="f">temperature:</text><text x="15.029999999999998" y="1.67" class="f">moderate</text></symbol><symbol id="65"><text x="2.004" y="1.67" class="f">rest:</text><text x="8.016" y="1.67" class="f">yes</text></symbol><symbol id="66"><text x="2.004" y="1.67" class="f">sauce:</text><text x="9.017999999999999" y="1.67" class="f">yes</text></symbol><symbol id="67"><text x="2.004" y="1.67" class="f">extras:</text><text x="10.02" y="1.67" class="f">bread,</text><text x="17.034" y="1.67" class="f">olives</text></symbol><symbol id="68"><text x="2.004" y="1.67" class="f">toast:</text><text x="9.017999999999999" y="1.67" class="f">yes</text></symbol><symbol id="69"><text x="2.004" y="1.67" class="f">marinade:</text><text x="12.024" y="1.67" class="f">chilli</text></symbol><symbol id="70"><text x="2.004" y="1.67" class="f">drinks:</text><text x="10.02" y="1.67" class="f">tea,</text><text x="15.029999999999998" y="1.67" class="f">coffee</text></symbol><symbol id="71"><text x="2.004" y="1.67" class="f">brew:</text><text x="8.016" y="1.67" class="f">black</text></symbol><symbol id="72"><text x="2.004" y="1.67" class="f">roast:</text><text x="9.017999999999999" y="1.67" class="f">light</text></symbol><symbol id="a"><rect height="20" width="80" x="0" y="0" class="h"></rect></symbol><symbol id="b"><rect height="1.837" width="1.1022" class="i"></rect></symbol></defs><rect height="36.74" width="80" class="a"></rect><g class="k"><svg x="0" y="0" width="2080"><svg x="0"><use xlink:href="#a"></use><use xlink:href="#b" x="-0.0040000000000000036" y="0"></use></svg><svg x="80"><use xlink:href="#a"></use><use xlink:href="#1" y="1.837"></use><use xlink:href="#2" y="3.674"></use><use xlink:href="#3" y="5.511"></use><use xlink:href="#4" y="7.348"></use><use xlink:href="#2" y="9.185"></use><text x="0" y="12.692" class="c">│</text><text x="1.002" y="12.692" class="e">❯</text><text x="3.006" y="12.692" class="g">●</text><text x="5.01" y="12.692" class="f">Starter</text><text x="0" y="14.529" class="c">│</text><text x="5.01" y="14.529" class="f">↳</text><text x="7.013999999999999" y="14.529" class="f">Served</text><text x="14.027999999999999" y="14.529" class="f">first,</text><text x="21.041999999999998" y="14.529" class="f">in</text><text x="24.048" y="14.529" class="f">a</text><text x="26.052" y="14.529" class="f">small</text><text x="32.064" y="14.529" class="f">portion.</text><text x="0" y="16.366" class="c">│</text><text x="3.006" y="16.366" class="f">○</text><text x="5.01" y="16.366" class="f">Main</text><use xlink:href="#5" y="16.533"></use><use xlink:href="#2" y="18.37"></use></svg><svg x="160"><use xlink:href="#a"></use><use xlink:href="#1" y="1.837"></use><use xlink:href="#2" y="3.674"></use><use xlink:href="#3" y="5.511"></use><use xlink:href="#4" y="7.348"></use><use xlink:href="#2" y="9.185"></use><text x="0" y="12.692" class="c">│</text><text x="3.006" y="12.692" class="f">○</text><text x="5.01" y="12.692" class="f">Starter</text><text x="0" y="14.529" class="c">│</text><text x="1.002" y="14.529" class="e">❯</text><text x="3.006" y="14.529" class="g">●</text><text x="5.01" y="14.529" class="f">Main</text><text x="0" y="16.366" class="c">│</text><text x="5.01" y="16.366" class="f">↳</text><text x="7.013999999999999" y="16.366" class="f">The</text><text x="11.021999999999998" y="16.366" class="f">centre</text><text x="18.035999999999998" y="16.366" class="f">of</text><text x="21.041999999999998" y="16.366" class="f">the</text><text x="25.05" y="16.366" class="f">meal.</text><use xlink:href="#5" y="16.533"></use><use xlink:href="#2" y="18.37"></use></svg><svg x="240"><use xlink:href="#a"></use><use xlink:href="#1" y="1.837"></use><use xlink:href="#2" y="3.674"></use><use xlink:href="#6" y="5.511"></use><use xlink:href="#7" y="7.348"></use><use xlink:href="#2" y="9.185"></use><use xlink:href="#8" y="11.022"></use><text x="0" y="14.529" class="c">│</text><text x="3.006" y="14.529" class="e">◇</text><text x="6.012" y="14.529" class="f">Method</text><text x="13.026" y="14.529" class="f">(1.1)</text><text x="0" y="16.366" class="c">│</text><text x="3.006" y="16.366" class="c">│</text><text x="6.012" y="16.366" class="f">How</text><text x="10.02" y="16.366" class="f">the</text><text x="14.027999999999999" y="16.366" class="f">dish</text><text x="19.037999999999997" y="16.366" class="f">is</text><text x="22.043999999999997" y="16.366" class="f">cooked.</text><use xlink:href="#8" y="16.533"></use><text x="0" y="20.04" class="c">│</text><text x="3.006" y="20.04" class="c">│</text><text x="6.012" y="20.04" class="e">❯</text><text x="8.016" y="20.04" class="g">●</text><text x="10.02" y="20.04" class="f">Baked</text><text x="0" y="21.876999999999995" class="c">│</text><text x="3.006" y="21.876999999999995" class="c">│</text><text x="10.02" y="21.876999999999995" class="f">↳</text><text x="12.024" y="21.876999999999995" class="f">Dry</text><text x="16.032" y="21.876999999999995" class="f">heat,</text><text x="22.043999999999997" y="21.876999999999995" class="f">all</text><text x="26.052" y="21.876999999999995" class="f">the</text><text x="30.059999999999995" y="21.876999999999995" class="f">way</text><text x="34.068" y="21.876999999999995" class="f">through.</text><text x="0" y="23.714" class="c">│</text><text x="3.006" y="23.714" class="c">│</text><text x="8.016" y="23.714" class="f">○</text><text x="10.02" y="23.714" class="f">Poached</text><text x="0" y="25.551000000000002" class="c">│</text><text x="3.006" y="25.551000000000002" class="c">│</text><text x="8.016" y="25.551000000000002" class="f">○</text><text x="10.02" y="25.551000000000002" class="f">Grilled</text><use xlink:href="#8" y="25.718"></use></svg><svg x="320"><use xlink:href="#a"></use><use xlink:href="#1" y="1.837"></use><use xlink:href="#2" y="3.674"></use><use xlink:href="#6" y="5.511"></use><use xlink:href="#7" y="7.348"></use><use xlink:href="#2" y="9.185"></use><use xlink:href="#8" y="11.022"></use><use xlink:href="#9" y="12.859"></use><use xlink:href="#10" y="14.696"></use><use xlink:href="#2" y="16.533"></use><use xlink:href="#11" y="18.37"></use><use xlink:href="#12" y="20.206999999999997"></use><use xlink:href="#13" y="22.044"></use><use xlink:href="#11" y="23.881000000000004"></use><text x="0" y="27.387999999999998" class="c">│</text><text x="6.012" y="27.387999999999998" class="c">│</text><text x="9.017999999999999" y="27.387999999999998" class="e">❯</text><text x="11.021999999999998" y="27.387999999999998" class="g">●</text><text x="13.026" y="27.387999999999998" class="f">Low</text><text x="0" y="29.225" class="c">│</text><text x="6.012" y="29.225" class="c">│</text><text x="11.021999999999998" y="29.225" class="f">○</text><text x="13.026" y="29.225" class="f">Moderate</text><use xlink:href="#14" y="29.392"></use><use xlink:href="#11" y="31.229000000000003"></use></svg><svg x="400"><use xlink:href="#a"></use><use xlink:href="#1" y="1.837"></use><use xlink:href="#2" y="3.674"></use><use xlink:href="#6" y="5.511"></use><use xlink:href="#7" y="7.348"></use><use xlink:href="#2" y="9.185"></use><use xlink:href="#8" y="11.022"></use><use xlink:href="#9" y="12.859"></use><use xlink:href="#10" y="14.696"></use><use xlink:href="#2" y="16.533"></use><use xlink:href="#11" y="18.37"></use><use xlink:href="#12" y="20.206999999999997"></use><use xlink:href="#13" y="22.044"></use><use xlink:href="#11" y="23.881000000000004"></use><text x="0" y="27.387999999999998" class="c">│</text><text x="6.012" y="27.387999999999998" class="c">│</text><text x="11.021999999999998" y="27.387999999999998" class="f">○</text><text x="13.026" y="27.387999999999998" class="f">Low</text><text x="0" y="29.225" class="c">│</text><text x="6.012" y="29.225" class="c">│</text><text x="9.017999999999999" y="29.225" class="e">❯</text><text x="11.021999999999998" y="29.225" class="g">●</text><text x="13.026" y="29.225" class="f">Moderate</text><use xlink:href="#14" y="29.392"></use><use xlink:href="#11" y="31.229000000000003"></use></svg><svg x="480"><use xlink:href="#a"></use><use xlink:href="#1" y="1.837"></use><use xlink:href="#2" y="3.674"></use><use xlink:href="#6" y="5.511"></use><use xlink:href="#7" y="7.348"></use><use xlink:href="#2" y="9.185"></use><use xlink:href="#8" y="11.022"></use><use xlink:href="#9" y="12.859"></use><use xlink:href="#10" y="14.696"></use><use xlink:href="#2" y="16.533"></use><use xlink:href="#11" y="18.37"></use><use xlink:href="#15" y="20.206999999999997"></use><use xlink:href="#16" y="22.044"></use><use xlink:href="#11" y="23.881000000000004"></use><use xlink:href="#17" y="25.718"></use><use xlink:href="#18" y="27.555"></use><use xlink:href="#11" y="29.392"></use><use xlink:href="#19" y="31.229000000000003"></use><use xlink:href="#11" y="33.066"></use></svg><svg x="560"><use xlink:href="#a"></use><use xlink:href="#1" y="1.837"></use><use xlink:href="#2" y="3.674"></use><use xlink:href="#6" y="5.511"></use><use xlink:href="#7" y="7.348"></use><use xlink:href="#2" y="9.185"></use><use xlink:href="#8" y="11.022"></use><use xlink:href="#9" y="12.859"></use><use xlink:href="#10" y="14.696"></use><use xlink:href="#2" y="16.533"></use><use xlink:href="#11" y="18.37"></use><use xlink:href="#15" y="20.206999999999997"></use><use xlink:href="#16" y="22.044"></use><use xlink:href="#11" y="23.881000000000004"></use><use xlink:href="#17" y="25.718"></use><use xlink:href="#18" y="27.555"></use><use xlink:href="#11" y="29.392"></use><use xlink:href="#19" y="31.229000000000003"></use><use xlink:href="#11" y="33.066"></use></svg><svg x="640"><use xlink:href="#a"></use><use xlink:href="#6" y="0"></use><use xlink:href="#7" y="1.837"></use><use xlink:href="#2" y="3.674"></use><use xlink:href="#8" y="5.511"></use><use xlink:href="#9" y="7.348"></use><use xlink:href="#10" y="9.185"></use><use xlink:href="#2" y="11.022"></use><use xlink:href="#11" y="12.859"></use><use xlink:href="#15" y="14.696"></use><use xlink:href="#16" y="16.533"></use><use xlink:href="#11" y="18.37"></use><use xlink:href="#20" y="20.206999999999997"></use><use xlink:href="#21" y="22.044"></use><use xlink:href="#11" y="23.881000000000004"></use><use xlink:href="#22" y="25.718"></use><use xlink:href="#23" y="27.555"></use><use xlink:href="#2" y="29.392"></use><use xlink:href="#24" y="31.229000000000003"></use><use xlink:href="#2" y="33.066"></use></svg><svg x="720"><use xlink:href="#a"></use><use xlink:href="#6" y="0"></use><use xlink:href="#7" y="1.837"></use><use xlink:href="#2" y="3.674"></use><use xlink:href="#8" y="5.511"></use><use xlink:href="#9" y="7.348"></use><use xlink:href="#10" y="9.185"></use><use xlink:href="#2" y="11.022"></use><use xlink:href="#11" y="12.859"></use><use xlink:href="#15" y="14.696"></use><use xlink:href="#16" y="16.533"></use><use xlink:href="#11" y="18.37"></use><use xlink:href="#20" y="20.206999999999997"></use><use xlink:href="#21" y="22.044"></use><use xlink:href="#11" y="23.881000000000004"></use><use xlink:href="#22" y="25.718"></use><use xlink:href="#23" y="27.555"></use><use xlink:href="#2" y="29.392"></use><use xlink:href="#24" y="31.229000000000003"></use><use xlink:href="#2" y="33.066"></use></svg><svg x="800"><use xlink:href="#a"></use><use xlink:href="#15" y="0"></use><use xlink:href="#16" y="1.837"></use><use xlink:href="#11" y="3.674"></use><use xlink:href="#20" y="5.511"></use><use xlink:href="#21" y="7.348"></use><use xlink:href="#11" y="9.185"></use><use xlink:href="#25" y="11.022"></use><use xlink:href="#26" y="12.859"></use><use xlink:href="#2" y="14.696"></use><use xlink:href="#27" y="16.533"></use><use xlink:href="#28" y="18.37"></use><use xlink:href="#29" y="20.206999999999997"></use><use xlink:href="#2" y="22.044"></use><text x="0" y="25.551000000000002" class="c">│</text><text x="1.002" y="25.551000000000002" class="e">❯</text><text x="3.006" y="25.551000000000002" class="g">◻</text><text x="5.01" y="25.551000000000002" class="f">Bread</text><use xlink:href="#30" y="25.718"></use><use xlink:href="#31" y="27.555"></use><use xlink:href="#32" y="29.392"></use><use xlink:href="#33" y="31.229000000000003"></use><use xlink:href="#2" y="33.066"></use></svg><svg x="880"><use xlink:href="#a"></use><use xlink:href="#15" y="0"></use><use xlink:href="#16" y="1.837"></use><use xlink:href="#11" y="3.674"></use><use xlink:href="#20" y="5.511"></use><use xlink:href="#21" y="7.348"></use><use xlink:href="#11" y="9.185"></use><use xlink:href="#25" y="11.022"></use><use xlink:href="#26" y="12.859"></use><use xlink:href="#2" y="14.696"></use><use xlink:href="#27" y="16.533"></use><use xlink:href="#28" y="18.37"></use><use xlink:href="#29" y="20.206999999999997"></use><use xlink:href="#2" y="22.044"></use><text x="0" y="25.551000000000002" class="c">│</text><text x="1.002" y="25.551000000000002" class="e">❯</text><text x="3.006" y="25.551000000000002" class="g">◼</text><text x="5.01" y="25.551000000000002" class="f">Bread</text><use xlink:href="#30" y="25.718"></use><use xlink:href="#31" y="27.555"></use><use xlink:href="#32" y="29.392"></use><use xlink:href="#33" y="31.229000000000003"></use><use xlink:href="#2" y="33.066"></use></svg><svg x="960"><use xlink:href="#a"></use><use xlink:href="#15" y="0"></use><use xlink:href="#16" y="1.837"></use><use xlink:href="#11" y="3.674"></use><use xlink:href="#20" y="5.511"></use><use xlink:href="#21" y="7.348"></use><use xlink:href="#11" y="9.185"></use><use xlink:href="#25" y="11.022"></use><use xlink:href="#26" y="12.859"></use><use xlink:href="#2" y="14.696"></use><use xlink:href="#27" y="16.533"></use><use xlink:href="#28" y="18.37"></use><use xlink:href="#29" y="20.206999999999997"></use><use xlink:href="#2" y="22.044"></use><use xlink:href="#34" y="23.881000000000004"></use><text x="0" y="27.387999999999998" class="c">│</text><text x="1.002" y="27.387999999999998" class="e">❯</text><text x="3.006" y="27.387999999999998" class="g">◻</text><text x="5.01" y="27.387999999999998" class="f">Olives</text><use xlink:href="#35" y="27.555"></use><use xlink:href="#32" y="29.392"></use><use xlink:href="#33" y="31.229000000000003"></use><use xlink:href="#2" y="33.066"></use></svg><svg x="1040"><use xlink:href="#a"></use><use xlink:href="#15" y="0"></use><use xlink:href="#16" y="1.837"></use><use xlink:href="#11" y="3.674"></use><use xlink:href="#20" y="5.511"></use><use xlink:href="#21" y="7.348"></use><use xlink:href="#11" y="9.185"></use><use xlink:href="#25" y="11.022"></use><use xlink:href="#26" y="12.859"></use><use xlink:href="#2" y="14.696"></use><use xlink:href="#27" y="16.533"></use><use xlink:href="#28" y="18.37"></use><use xlink:href="#29" y="20.206999999999997"></use><use xlink:href="#2" y="22.044"></use><use xlink:href="#34" y="23.881000000000004"></use><text x="0" y="27.387999999999998" class="c">│</text><text x="1.002" y="27.387999999999998" class="e">❯</text><text x="3.006" y="27.387999999999998" class="g">◼</text><text x="5.01" y="27.387999999999998" class="f">Olives</text><use xlink:href="#35" y="27.555"></use><use xlink:href="#32" y="29.392"></use><use xlink:href="#33" y="31.229000000000003"></use><use xlink:href="#2" y="33.066"></use></svg><svg x="1120"><use xlink:href="#a"></use><use xlink:href="#15" y="0"></use><use xlink:href="#16" y="1.837"></use><use xlink:href="#11" y="3.674"></use><use xlink:href="#20" y="5.511"></use><use xlink:href="#21" y="7.348"></use><use xlink:href="#11" y="9.185"></use><use xlink:href="#25" y="11.022"></use><use xlink:href="#26" y="12.859"></use><use xlink:href="#2" y="14.696"></use><use xlink:href="#36" y="16.533"></use><use xlink:href="#37" y="18.37"></use><use xlink:href="#2" y="20.206999999999997"></use><use xlink:href="#8" y="22.044"></use><use xlink:href="#38" y="23.881000000000004"></use><use xlink:href="#39" y="25.718"></use><use xlink:href="#8" y="27.555"></use><use xlink:href="#40" y="29.392"></use><use xlink:href="#8" y="31.229000000000003"></use></svg><svg x="1200"><use xlink:href="#a"></use><use xlink:href="#15" y="0"></use><use xlink:href="#16" y="1.837"></use><use xlink:href="#11" y="3.674"></use><use xlink:href="#20" y="5.511"></use><use xlink:href="#21" y="7.348"></use><use xlink:href="#11" y="9.185"></use><use xlink:href="#25" y="11.022"></use><use xlink:href="#26" y="12.859"></use><use xlink:href="#2" y="14.696"></use><use xlink:href="#36" y="16.533"></use><use xlink:href="#37" y="18.37"></use><use xlink:href="#2" y="20.206999999999997"></use><use xlink:href="#8" y="22.044"></use><use xlink:href="#38" y="23.881000000000004"></use><use xlink:href="#39" y="25.718"></use><use xlink:href="#8" y="27.555"></use><use xlink:href="#40" y="29.392"></use><use xlink:href="#8" y="31.229000000000003"></use></svg><svg x="1280"><use xlink:href="#a"></use><use xlink:href="#21" y="0"></use><use xlink:href="#11" y="1.837"></use><use xlink:href="#25" y="3.674"></use><use xlink:href="#26" y="5.511"></use><use xlink:href="#2" y="7.348"></use><use xlink:href="#36" y="9.185"></use><use xlink:href="#37" y="11.022"></use><use xlink:href="#2" y="12.859"></use><use xlink:href="#8" y="14.696"></use><use xlink:href="#41" y="16.533"></use><use xlink:href="#42" y="18.37"></use><use xlink:href="#8" y="20.206999999999997"></use><use xlink:href="#43" y="22.044"></use><use xlink:href="#44" y="23.881000000000004"></use><use xlink:href="#8" y="25.718"></use><text x="0" y="29.225" class="c">│</text><text x="3.006" y="29.225" class="c">│</text><text x="6.012" y="29.225" class="e">❯</text><text x="8.016" y="29.225" class="g">●</text><text x="10.02" y="29.225" class="f">Garlic</text><text x="0" y="31.061999999999998" class="c">│</text><text x="3.006" y="31.061999999999998" class="c">│</text><text x="8.016" y="31.061999999999998" class="f">○</text><text x="10.02" y="31.061999999999998" class="f">Chilli</text><use xlink:href="#45" y="31.229000000000003"></use><use xlink:href="#8" y="33.066"></use></svg><svg x="1360"><use xlink:href="#a"></use><use xlink:href="#21" y="0"></use><use xlink:href="#11" y="1.837"></use><use xlink:href="#25" y="3.674"></use><use xlink:href="#26" y="5.511"></use><use xlink:href="#2" y="7.348"></use><use xlink:href="#36" y="9.185"></use><use xlink:href="#37" y="11.022"></use><use xlink:href="#2" y="12.859"></use><use xlink:href="#8" y="14.696"></use><use xlink:href="#41" y="16.533"></use><use xlink:href="#42" y="18.37"></use><use xlink:href="#8" y="20.206999999999997"></use><use xlink:href="#43" y="22.044"></use><use xlink:href="#44" y="23.881000000000004"></use><use xlink:href="#8" y="25.718"></use><text x="0" y="29.225" class="c">│</text><text x="3.006" y="29.225" class="c">│</text><text x="8.016" y="29.225" class="f">○</text><text x="10.02" y="29.225" class="f">Garlic</text><text x="0" y="31.061999999999998" class="c">│</text><text x="3.006" y="31.061999999999998" class="c">│</text><text x="6.012" y="31.061999999999998" class="e">❯</text><text x="8.016" y="31.061999999999998" class="g">●</text><text x="10.02" y="31.061999999999998" class="f">Chilli</text><use xlink:href="#45" y="31.229000000000003"></use><use xlink:href="#8" y="33.066"></use></svg><svg x="1440"><use xlink:href="#a"></use><use xlink:href="#2" y="0"></use><use xlink:href="#36" y="1.837"></use><use xlink:href="#37" y="3.674"></use><use xlink:href="#2" y="5.511"></use><use xlink:href="#8" y="7.348"></use><use xlink:href="#41" y="9.185"></use><use xlink:href="#42" y="11.022"></use><use xlink:href="#8" y="12.859"></use><use xlink:href="#46" y="14.696"></use><use xlink:href="#47" y="16.533"></use><use xlink:href="#2" y="18.37"></use><use xlink:href="#48" y="20.206999999999997"></use><use xlink:href="#49" y="22.044"></use><use xlink:href="#2" y="23.881000000000004"></use><text x="0" y="27.387999999999998" class="c">│</text><text x="1.002" y="27.387999999999998" class="e">❯</text><text x="3.006" y="27.387999999999998" class="g">◻</text><text x="5.01" y="27.387999999999998" class="f">Tea</text><use xlink:href="#50" y="27.555"></use><use xlink:href="#51" y="29.392"></use><use xlink:href="#52" y="31.229000000000003"></use><use xlink:href="#2" y="33.066"></use></svg><svg x="1520"><use xlink:href="#a"></use><use xlink:href="#2" y="0"></use><use xlink:href="#36" y="1.837"></use><use xlink:href="#37" y="3.674"></use><use xlink:href="#2" y="5.511"></use><use xlink:href="#8" y="7.348"></use><use xlink:href="#41" y="9.185"></use><use xlink:href="#42" y="11.022"></use><use xlink:href="#8" y="12.859"></use><use xlink:href="#46" y="14.696"></use><use xlink:href="#47" y="16.533"></use><use xlink:href="#2" y="18.37"></use><use xlink:href="#48" y="20.206999999999997"></use><use xlink:href="#49" y="22.044"></use><use xlink:href="#2" y="23.881000000000004"></use><text x="0" y="27.387999999999998" class="c">│</text><text x="1.002" y="27.387999999999998" class="e">❯</text><text x="3.006" y="27.387999999999998" class="g">◼</text><text x="5.01" y="27.387999999999998" class="f">Tea</text><use xlink:href="#50" y="27.555"></use><use xlink:href="#51" y="29.392"></use><use xlink:href="#52" y="31.229000000000003"></use><use xlink:href="#2" y="33.066"></use></svg><svg x="1600"><use xlink:href="#a"></use><use xlink:href="#36" y="0"></use><use xlink:href="#37" y="1.837"></use><use xlink:href="#2" y="3.674"></use><use xlink:href="#8" y="5.511"></use><use xlink:href="#41" y="7.348"></use><use xlink:href="#42" y="9.185"></use><use xlink:href="#8" y="11.022"></use><use xlink:href="#46" y="12.859"></use><use xlink:href="#47" y="14.696"></use><use xlink:href="#2" y="16.533"></use><use xlink:href="#48" y="18.37"></use><use xlink:href="#49" y="20.206999999999997"></use><use xlink:href="#2" y="22.044"></use><use xlink:href="#53" y="23.881000000000004"></use><text x="0" y="27.387999999999998" class="c">│</text><text x="1.002" y="27.387999999999998" class="e">❯</text><text x="3.006" y="27.387999999999998" class="g">◻</text><text x="5.01" y="27.387999999999998" class="f">Coffee</text><use xlink:href="#54" y="27.555"></use><use xlink:href="#55" y="29.392"></use><use xlink:href="#52" y="31.229000000000003"></use><use xlink:href="#2" y="33.066"></use></svg><svg x="1680"><use xlink:href="#a"></use><use xlink:href="#36" y="0"></use><use xlink:href="#37" y="1.837"></use><use xlink:href="#2" y="3.674"></use><use xlink:href="#8" y="5.511"></use><use xlink:href="#41" y="7.348"></use><use xlink:href="#42" y="9.185"></use><use xlink:href="#8" y="11.022"></use><use xlink:href="#46" y="12.859"></use><use xlink:href="#47" y="14.696"></use><use xlink:href="#2" y="16.533"></use><use xlink:href="#48" y="18.37"></use><use xlink:href="#49" y="20.206999999999997"></use><use xlink:href="#2" y="22.044"></use><use xlink:href="#53" y="23.881000000000004"></use><text x="0" y="27.387999999999998" class="c">│</text><text x="1.002" y="27.387999999999998" class="e">❯</text><text x="3.006" y="27.387999999999998" class="g">◼</text><text x="5.01" y="27.387999999999998" class="f">Coffee</text><use xlink:href="#54" y="27.555"></use><use xlink:href="#55" y="29.392"></use><use xlink:href="#52" y="31.229000000000003"></use><use xlink:href="#2" y="33.066"></use></svg><svg x="1760"><use xlink:href="#a"></use><use xlink:href="#37" y="0"></use><use xlink:href="#2" y="1.837"></use><use xlink:href="#8" y="3.674"></use><use xlink:href="#41" y="5.511"></use><use xlink:href="#42" y="7.348"></use><use xlink:href="#8" y="9.185"></use><use xlink:href="#46" y="11.022"></use><use xlink:href="#47" y="12.859"></use><use xlink:href="#2" y="14.696"></use><use xlink:href="#56" y="16.533"></use><use xlink:href="#57" y="18.37"></use><use xlink:href="#2" y="20.206999999999997"></use><use xlink:href="#8" y="22.044"></use><text x="0" y="25.551000000000002" class="c">│</text><text x="3.006" y="25.551000000000002" class="e">◇</text><text x="6.012" y="25.551000000000002" class="f">Brew</text><text x="11.021999999999998" y="25.551000000000002" class="f">(3.1)</text><text x="0" y="27.387999999999998" class="c">│</text><text x="3.006" y="27.387999999999998" class="c">│</text><text x="6.012" y="27.387999999999998" class="f">Leaf</text><text x="11.021999999999998" y="27.387999999999998" class="f">for</text><text x="15.029999999999998" y="27.387999999999998" class="f">the</text><text x="19.037999999999997" y="27.387999999999998" class="f">pot.</text><use xlink:href="#8" y="27.555"></use><text x="0" y="31.061999999999998" class="c">│</text><text x="3.006" y="31.061999999999998" class="c">│</text><text x="6.012" y="31.061999999999998" class="e">❯</text><text x="8.016" y="31.061999999999998" class="g">●</text><text x="10.02" y="31.061999999999998" class="f">Black</text><text x="0" y="32.899" class="c">│</text><text x="3.006" y="32.899" class="c">│</text><text x="8.016" y="32.899" class="f">○</text><text x="10.02" y="32.899" class="f">Green</text><use xlink:href="#8" y="33.066"></use></svg><svg x="1840"><use xlink:href="#a"></use><use xlink:href="#41" y="0"></use><use xlink:href="#42" y="1.837"></use><use xlink:href="#8" y="3.674"></use><use xlink:href="#46" y="5.511"></use><use xlink:href="#47" y="7.348"></use><use xlink:href="#2" y="9.185"></use><use xlink:href="#56" y="11.022"></use><use xlink:href="#57" y="12.859"></use><use xlink:href="#2" y="14.696"></use><use xlink:href="#8" y="16.533"></use><text x="0" y="20.04" class="c">│</text><text x="3.006" y="20.04" class="e">◆</text><text x="6.012" y="20.04" class="f">Brew</text><text x="11.021999999999998" y="20.04" class="f">(3.1)</text><text x="0" y="21.876999999999995" class="c">│</text><text x="3.006" y="21.876999999999995" class="c">│</text><text x="6.012" y="21.876999999999995" class="f">Black</text><use xlink:href="#8" y="22.044"></use><text x="0" y="25.551000000000002" class="c">│</text><text x="3.006" y="25.551000000000002" class="e">◇</text><text x="6.012" y="25.551000000000002" class="f">Roast</text><text x="12.024" y="25.551000000000002" class="f">(3.2)</text><text x="0" y="27.387999999999998" class="c">│</text><text x="3.006" y="27.387999999999998" class="c">│</text><text x="6.012" y="27.387999999999998" class="f">How</text><text x="10.02" y="27.387999999999998" class="f">far</text><text x="14.027999999999999" y="27.387999999999998" class="f">the</text><text x="18.035999999999998" y="27.387999999999998" class="f">beans</text><text x="24.048" y="27.387999999999998" class="f">are</text><text x="28.055999999999997" y="27.387999999999998" class="f">taken.</text><use xlink:href="#8" y="27.555"></use><text x="0" y="31.061999999999998" class="c">│</text><text x="3.006" y="31.061999999999998" class="c">│</text><text x="6.012" y="31.061999999999998" class="e">❯</text><text x="8.016" y="31.061999999999998" class="g">●</text><text x="10.02" y="31.061999999999998" class="f">Light</text><text x="0" y="32.899" class="c">│</text><text x="3.006" y="32.899" class="c">│</text><text x="8.016" y="32.899" class="f">○</text><text x="10.02" y="32.899" class="f">Dark</text><use xlink:href="#8" y="33.066"></use></svg><svg x="1920"><use xlink:href="#a"></use><use xlink:href="#b" x="-0.0040000000000000036" y="34.728"></use><use xlink:href="#58" y="0"></use><use xlink:href="#59" y="1.837"></use><use xlink:href="#2" y="3.674"></use><use xlink:href="#2" y="5.511"></use><use xlink:href="#60" y="7.348"></use><use xlink:href="#61" y="12.859"></use><use xlink:href="#62" y="14.696"></use><use xlink:href="#63" y="16.533"></use><use xlink:href="#64" y="18.37"></use><use xlink:href="#65" y="20.206999999999997"></use><use xlink:href="#66" y="22.044"></use><use xlink:href="#67" y="23.881000000000004"></use><use xlink:href="#68" y="25.718"></use><use xlink:href="#69" y="27.555"></use><use xlink:href="#70" y="29.392"></use><use xlink:href="#71" y="31.229000000000003"></use><use xlink:href="#72" y="33.066"></use></svg><svg x="2000"><use xlink:href="#a"></use><use xlink:href="#b" x="0.996" y="34.728"></use><use xlink:href="#58" y="0"></use><use xlink:href="#59" y="1.837"></use><use xlink:href="#2" y="3.674"></use><use xlink:href="#2" y="5.511"></use><use xlink:href="#60" y="7.348"></use><use xlink:href="#61" y="12.859"></use><use xlink:href="#62" y="14.696"></use><use xlink:href="#63" y="16.533"></use><use xlink:href="#64" y="18.37"></use><use xlink:href="#65" y="20.206999999999997"></use><use xlink:href="#66" y="22.044"></use><use xlink:href="#67" y="23.881000000000004"></use><use xlink:href="#68" y="25.718"></use><use xlink:href="#69" y="27.555"></use><use xlink:href="#70" y="29.392"></use><use xlink:href="#71" y="31.229000000000003"></use><use xlink:href="#72" y="33.066"></use></svg></svg></g></g></svg></svg>