<svg xmlns="http://www.w3.org/2000/svg" xmlns:xlink="http://www.w3.org/1999/xlink" width="800" height="330.66"><rect width="800" height="330.66" rx="0" ry="0" class="a"></rect><svg height="330.66" viewBox="0 0 80 33.066" width="800" xmlns="http://www.w3.org/2000/svg" xmlns:xlink="http://www.w3.org/1999/xlink"><style>.a{fill:rgb(40,44,52)}.b{font-family:Consolas,"Courier New",Courier,"Liberation Mono",monospace}.c{fill:rgb(171,178,191);white-space:pre}.d{fill:rgb(0,128,128);white-space:pre}.e{fill:rgb(128,128,128);white-space:pre}.f{fill:rgb(0,128,0);white-space:pre}.g{fill:transparent}.h{fill:rgb(82,139,255)}.j{animation-duration:13.483000000000002s;animation-iteration-count:infinite;animation-name:i;animation-timing-function:steps(1,end)}@keyframes i{0%{transform:translateX(-0px)}0.5%{transform:translateX(-80px)}0.5%{transform:translateX(-160px)}22.8%{transform:translateX(-240px)}22.8%{transform:translateX(-320px)}22.8%{transform:translateX(-400px)}22.8%{transform:translateX(-480px)}22.8%{transform:translateX(-560px)}22.9%{transform:translateX(-640px)}23%{transform:translateX(-720px)}40.1%{transform:translateX(-800px)}40.2%{transform:translateX(-880px)}40.3%{transform:translateX(-960px)}62.6%{transform:translateX(-1040px)}62.6%{transform:translateX(-1120px)}62.6%{transform:translateX(-1200px)}62.6%{transform:translateX(-1280px)}62.7%{transform:translateX(-1360px)}77.6%{transform:translateX(-1440px)}77.6%{transform:translateX(-1520px)}77.7%{transform:translateX(-1600px)}100%{transform:translateX(-1680px)}}</style><g font-family="Consolas, &quot;Courier New&quot;, Courier, &quot;Liberation Mono&quot;, monospace" font-size="1.67" class="b"><defs><symbol id="1"><text x="0" y="1.67" class="c">---</text><text x="4.008" y="1.67" class="c">Text</text><text x="9.017999999999999" y="1.67" class="c">---</text></symbol><symbol id="2"><text x="0" y="1.67" class="d">◇</text><text x="3.006" y="1.67" class="c">Project</text><text x="11.021999999999998" y="1.67" class="c">name</text></symbol><symbol id="3"><text x="0" y="1.67" class="e">│</text><text x="3.006" y="1.67" class="c">Used</text><text x="8.016" y="1.67" class="c">as</text><text x="11.021999999999998" y="1.67" class="c">the</text><text x="15.029999999999998" y="1.67" class="c">directory</text><text x="25.05" y="1.67" class="c">name</text><text x="30.059999999999995" y="1.67" class="c">and</text><text x="34.068" y="1.67" class="c">the</text><text x="38.07599999999999" y="1.67" class="c">&quot;name&quot;</text><text x="45.089999999999996" y="1.67" class="c">field</text></symbol><symbol id="4"><text x="0" y="1.67" class="e">│</text><text x="3.006" y="1.67" class="c">in</text><text x="6.012" y="1.67" class="c">package.json.</text></symbol><symbol id="5"><text x="0" y="1.67" class="e">│</text></symbol><symbol id="6"><text x="0" y="1.67" class="d">◆</text><text x="3.006" y="1.67" class="c">Project</text><text x="11.021999999999998" y="1.67" class="c">name</text></symbol><symbol id="7"><text x="0" y="1.67" class="e">│</text><text x="3.006" y="1.67" class="c">my-project</text></symbol><symbol id="8"><text x="2.004" y="1.67" class="c">Result:</text><text x="10.02" y="1.67" class="c">my-project</text></symbol><symbol id="9"><text x="0" y="1.67" class="c">---</text><text x="4.008" y="1.67" class="c">Select</text><text x="11.021999999999998" y="1.67" class="c">---</text></symbol><symbol id="10"><text x="0" y="1.67" class="d">◆</text><text x="3.006" y="1.67" class="c">Framework</text></symbol><symbol id="11"><text x="0" y="1.67" class="e">│</text><text x="3.006" y="1.67" class="c">Vue</text></symbol><symbol id="12"><text x="2.004" y="1.67" class="c">Result:</text><text x="10.02" y="1.67" class="c">vue</text></symbol><symbol id="13"><text x="0" y="1.67" class="c">---</text><text x="4.008" y="1.67" class="c">Multiselect</text><text x="16.032" y="1.67" class="c">---</text></symbol><symbol id="14"><text x="0" y="1.67" class="d">◇</text><text x="3.006" y="1.67" class="c">Features</text></symbol><symbol id="15"><text x="0" y="1.67" class="e">│</text><text x="3.006" y="1.67" class="c">Select</text><text x="10.02" y="1.67" class="c">features</text><text x="19.037999999999997" y="1.67" class="c">to</text><text x="22.043999999999997" y="1.67" class="c">include.</text></symbol><symbol id="16"><text x="0" y="1.67" class="e">│</text><text x="3.006" y="1.67" class="c">Space</text><text x="9.017999999999999" y="1.67" class="c">to</text><text x="12.024" y="1.67" class="c">toggle,</text><text x="20.04" y="1.67" class="c">enter</text><text x="26.052" y="1.67" class="c">to</text><text x="29.058" y="1.67" class="c">confirm.</text></symbol><symbol id="17"><text x="0" y="1.67" class="d">◆</text><text x="3.006" y="1.67" class="c">Features</text></symbol><symbol id="18"><text x="0" y="1.67" class="e">│</text><text x="3.006" y="1.67" class="c">ESLint,</text><text x="11.021999999999998" y="1.67" class="c">Prettier</text></symbol><symbol id="19"><text x="2.004" y="1.67" class="c">Result:</text><text x="10.02" y="1.67" class="c">eslint,</text><text x="18.035999999999998" y="1.67" class="c">prettier</text></symbol><symbol id="20"><text x="0" y="1.67" class="c">---</text><text x="4.008" y="1.67" class="c">Confirm</text><text x="12.024" y="1.67" class="c">---</text></symbol><symbol id="21"><text x="0" y="1.67" class="d">◇</text><text x="3.006" y="1.67" class="c">Install</text><text x="11.021999999999998" y="1.67" class="c">dependencies?</text></symbol><symbol id="22"><text x="0" y="1.67" class="e">│</text><text x="3.006" y="1.67" class="c">Runs</text><text x="8.016" y="1.67" class="c">npm</text><text x="12.024" y="1.67" class="c">install</text><text x="20.04" y="1.67" class="c">after</text><text x="26.052" y="1.67" class="c">scaffolding.</text></symbol><symbol id="23"><text x="0" y="1.67" class="e">│</text><text x="3.006" y="1.67" class="f">●</text><text x="5.01" y="1.67" class="c">Yes</text><text x="9.017999999999999" y="1.67" class="c">/</text><text x="11.021999999999998" y="1.67" class="c">○</text><text x="13.026" y="1.67" class="c">No</text></symbol><symbol id="24"><text x="0" y="1.67" class="d">◆</text><text x="3.006" y="1.67" class="c">Install</text><text x="11.021999999999998" y="1.67" class="c">dependencies?</text></symbol><symbol id="25"><text x="0" y="1.67" class="e">│</text><text x="3.006" y="1.67" class="c">Yes</text></symbol><symbol id="26"><text x="2.004" y="1.67" class="c">Result:</text><text x="10.02" y="1.67" class="c">yes</text></symbol><symbol id="a"><rect height="18" width="80" x="0" y="0" class="g"></rect></symbol><symbol id="b"><rect height="1.837" width="1.1022" class="h"></rect></symbol></defs><rect height="33.066" width="80" class="a"></rect><g class="j"><svg x="0" y="0" width="1760"><svg x="0"><use xlink:href="#a"></use><use xlink:href="#b" x="-0.0040000000000000036" y="0"></use></svg><svg x="80"><use xlink:href="#a"></use><use xlink:href="#b" x="-0.0040000000000000036" y="3.499"></use><use xlink:href="#1" y="1.837"></use></svg><svg x="160"><use xlink:href="#a"></use><use xlink:href="#1" y="1.837"></use><use xlink:href="#2" y="3.674"></use><use xlink:href="#3" y="5.511"></use><use xlink:href="#4" y="7.348"></use><use xlink:href="#5" y="9.185"></use><text x="0" y="12.692" class="e">│</text><text x="3.006" y="12.692" class="e">my-app</text><text x="9.017999999999999" y="12.692" class="d">█</text><use xlink:href="#5" y="12.859"></use></svg><svg x="240"><use xlink:href="#a"></use><use xlink:href="#1" y="1.837"></use><use xlink:href="#2" y="3.674"></use><use xlink:href="#3" y="5.511"></use><use xlink:href="#5" y="7.348"></use></svg><svg x="320"><use xlink:href="#a"></use><use xlink:href="#1" y="1.837"></use><use xlink:href="#2" y="3.674"></use><use xlink:href="#3" y="5.511"></use><use xlink:href="#4" y="7.348"></use></svg><svg x="400"><use xlink:href="#a"></use><use xlink:href="#1" y="1.837"></use><text x="0" y="5.343999999999999" class="d">◇</text><text x="3.006" y="5.343999999999999" class="c">Project</text></svg><svg x="480"><use xlink:href="#a"></use><use xlink:href="#1" y="1.837"></use><use xlink:href="#2" y="3.674"></use><text x="0" y="7.181" class="e">│</text><text x="3.006" y="7.181" class="c">Us</text></svg><svg x="560"><use xlink:href="#a"></use><use xlink:href="#1" y="1.837"></use><use xlink:href="#6" y="3.674"></use><use xlink:href="#7" y="5.511"></use><use xlink:href="#5" y="7.348"></use></svg><svg x="640"><use xlink:href="#a"></use><use xlink:href="#b" x="-0.0040000000000000036" y="14.520999999999999"></use><use xlink:href="#1" y="1.837"></use><use xlink:href="#6" y="3.674"></use><use xlink:href="#7" y="5.511"></use><use xlink:href="#5" y="7.348"></use><use xlink:href="#8" y="9.185"></use><use xlink:href="#9" y="12.859"></use></svg><svg x="720"><use xlink:href="#a"></use><use xlink:href="#1" y="1.837"></use><use xlink:href="#6" y="3.674"></use><use xlink:href="#7" y="5.511"></use><use xlink:href="#5" y="7.348"></use><use xlink:href="#8" y="9.185"></use><use xlink:href="#9" y="12.859"></use><text x="0" y="16.366" class="d">◇</text><text x="3.006" y="16.366" class="c">Framework</text><text x="0" y="18.203000000000003" class="e">│</text><text x="3.006" y="18.203000000000003" class="c">The</text><text x="7.013999999999999" y="18.203000000000003" class="c">UI</text><text x="10.02" y="18.203000000000003" class="c">layer</text><text x="16.032" y="18.203000000000003" class="c">for</text><text x="20.04" y="18.203000000000003" class="c">your</text><text x="25.05" y="18.203000000000003" class="c">project.</text><use xlink:href="#5" y="18.37"></use><text x="0" y="21.876999999999995" class="e">│</text><text x="3.006" y="21.876999999999995" class="f">●</text><text x="5.01" y="21.876999999999995" class="c">React</text><text x="0" y="23.714" class="e">│</text><text x="5.01" y="23.714" class="c">↳</text><text x="7.013999999999999" y="23.714" class="c">Component-based</text><text x="23.045999999999996" y="23.714" class="c">library</text><text x="31.061999999999998" y="23.714" class="c">by</text><text x="34.068" y="23.714" class="c">Meta</text><text x="39.077999999999996" y="23.714" class="c">with</text><text x="44.087999999999994" y="23.714" class="c">the</text><text x="48.096" y="23.714" class="c">largest</text><text x="56.111999999999995" y="23.714" class="c">ecosystem.</text><text x="0" y="25.551000000000002" class="e">│</text><text x="3.006" y="25.551000000000002" class="c">○</text><text x="5.01" y="25.551000000000002" class="c">Vue</text><text x="0" y="27.387999999999998" class="e">│</text><text x="3.006" y="27.387999999999998" class="c">○</text><text x="5.01" y="27.387999999999998" class="c">Svelte</text><use xlink:href="#5" y="27.555"></use></svg><svg x="800"><use xlink:href="#a"></use><use xlink:href="#1" y="1.837"></use><use xlink:href="#6" y="3.674"></use><use xlink:href="#7" y="5.511"></use><use xlink:href="#5" y="7.348"></use><use xlink:href="#8" y="9.185"></use><use xlink:href="#9" y="12.859"></use><use xlink:href="#10" y="14.696"></use><use xlink:href="#11" y="16.533"></use><use xlink:href="#5" y="18.37"></use></svg><svg x="880"><use xlink:href="#a"></use><use xlink:href="#b" x="-0.0040000000000000036" y="25.543"></use><use xlink:href="#1" y="1.837"></use><use xlink:href="#6" y="3.674"></use><use xlink:href="#7" y="5.511"></use><use xlink:href="#5" y="7.348"></use><use xlink:href="#8" y="9.185"></use><use xlink:href="#9" y="12.859"></use><use xlink:href="#10" y="14.696"></use><use xlink:href="#11" y="16.533"></use><use xlink:href="#5" y="18.37"></use><use xlink:href="#12" y="20.206999999999997"></use><use xlink:href="#13" y="23.881000000000004"></use></svg><svg x="960"><use xlink:href="#a"></use><use xlink:href="#9" y="0"></use><use xlink:href="#10" y="1.837"></use><use xlink:href="#11" y="3.674"></use><use xlink:href="#5" y="5.511"></use><use xlink:href="#12" y="7.348"></use><use xlink:href="#13" y="11.022"></use><use xlink:href="#14" y="12.859"></use><use xlink:href="#15" y="14.696"></use><use xlink:href="#16" y="16.533"></use><use xlink:href="#5" y="18.37"></use><text x="0" y="21.876999999999995" class="e">│</text><text x="3.006" y="21.876999999999995" class="f">◻</text><text x="5.01" y="21.876999999999995" class="c">TypeScript</text><text x="0" y="23.714" class="e">│</text><text x="5.01" y="23.714" class="c">↳</text><text x="7.013999999999999" y="23.714" class="c">Adds</text><text x="12.024" y="23.714" class="c">type</text><text x="17.034" y="23.714" class="c">safety</text><text x="24.048" y="23.714" class="c">with</text><text x="29.058" y="23.714" class="c">static</text><text x="36.071999999999996" y="23.714" class="c">type</text><text x="41.082" y="23.714" class="c">checking.</text><text x="0" y="25.551000000000002" class="e">│</text><text x="3.006" y="25.551000000000002" class="c">◻</text><text x="5.01" y="25.551000000000002" class="c">ESLint</text><text x="0" y="27.387999999999998" class="e">│</text><text x="3.006" y="27.387999999999998" class="c">◻</text><text x="5.01" y="27.387999999999998" class="c">Prettier</text><text x="0" y="29.225" class="e">│</text><text x="3.006" y="29.225" class="c">◻</text><text x="5.01" y="29.225" class="c">Vitest</text><use xlink:href="#5" y="29.392"></use></svg><svg x="1040"><use xlink:href="#a"></use><use xlink:href="#9" y="0"></use><use xlink:href="#10" y="1.837"></use><use xlink:href="#11" y="3.674"></use><use xlink:href="#5" y="5.511"></use><use xlink:href="#12" y="7.348"></use><use xlink:href="#13" y="11.022"></use><use xlink:href="#14" y="12.859"></use><use xlink:href="#15" y="14.696"></use><text x="0" y="18.203000000000003" class="e">│</text><text x="3.006" y="18.203000000000003" class="c">Space</text><text x="9.017999999999999" y="18.203000000000003" class="c">to</text><text x="12.024" y="18.203000000000003" class="c">toggle,</text><text x="20.04" y="18.203000000000003" class="c">enter</text><text x="26.052" y="18.203000000000003" class="c">to</text><text x="29.058" y="18.203000000000003" class="c">conf</text></svg><svg x="1120"><use xlink:href="#a"></use><use xlink:href="#9" y="0"></use><use xlink:href="#10" y="1.837"></use><use xlink:href="#11" y="3.674"></use><use xlink:href="#5" y="5.511"></use><use xlink:href="#12" y="7.348"></use><use xlink:href="#13" y="11.022"></use><use xlink:href="#14" y="12.859"></use><use xlink:href="#15" y="14.696"></use><use xlink:href="#16" y="16.533"></use><use xlink:href="#5" y="18.37"></use></svg><svg x="1200"><use xlink:href="#a"></use><use xlink:href="#10" y="0"></use><use xlink:href="#11" y="1.837"></use><use xlink:href="#5" y="3.674"></use><use xlink:href="#12" y="5.511"></use><use xlink:href="#13" y="9.185"></use><use xlink:href="#17" y="11.022"></use><use xlink:href="#18" y="12.859"></use><use xlink:href="#5" y="14.696"></use></svg><svg x="1280"><use xlink:href="#a"></use><use xlink:href="#b" x="-0.0040000000000000036" y="21.869"></use><use xlink:href="#10" y="0"></use><use xlink:href="#11" y="1.837"></use><use xlink:href="#5" y="3.674"></use><use xlink:href="#12" y="5.511"></use><use xlink:href="#13" y="9.185"></use><use xlink:href="#17" y="11.022"></use><use xlink:href="#18" y="12.859"></use><use xlink:href="#5" y="14.696"></use><use xlink:href="#19" y="16.533"></use><use xlink:href="#20" y="20.206999999999997"></use></svg><svg x="1360"><use xlink:href="#a"></use><use xlink:href="#10" y="0"></use><use xlink:href="#11" y="1.837"></use><use xlink:href="#5" y="3.674"></use><use xlink:href="#12" y="5.511"></use><use xlink:href="#13" y="9.185"></use><use xlink:href="#17" y="11.022"></use><use xlink:href="#18" y="12.859"></use><use xlink:href="#5" y="14.696"></use><use xlink:href="#19" y="16.533"></use><use xlink:href="#20" y="20.206999999999997"></use><use xlink:href="#21" y="22.044"></use><use xlink:href="#22" y="23.881000000000004"></use><use xlink:href="#5" y="25.718"></use><use xlink:href="#23" y="27.555"></use><use xlink:href="#5" y="29.392"></use></svg><svg x="1440"><use xlink:href="#a"></use><use xlink:href="#10" y="0"></use><use xlink:href="#11" y="1.837"></use><use xlink:href="#5" y="3.674"></use><use xlink:href="#12" y="5.511"></use><use xlink:href="#13" y="9.185"></use><use xlink:href="#17" y="11.022"></use><use xlink:href="#18" y="12.859"></use><use xlink:href="#5" y="14.696"></use><use xlink:href="#19" y="16.533"></use><use xlink:href="#20" y="20.206999999999997"></use><use xlink:href="#21" y="22.044"></use><use xlink:href="#22" y="23.881000000000004"></use><use xlink:href="#5" y="25.718"></use><use xlink:href="#23" y="27.555"></use><use xlink:href="#5" y="29.392"></use></svg><svg x="1520"><use xlink:href="#a"></use><use xlink:href="#10" y="0"></use><use xlink:href="#11" y="1.837"></use><use xlink:href="#5" y="3.674"></use><use xlink:href="#12" y="5.511"></use><use xlink:href="#13" y="9.185"></use><use xlink:href="#17" y="11.022"></use><use xlink:href="#18" y="12.859"></use><use xlink:href="#5" y="14.696"></use><use xlink:href="#19" y="16.533"></use><use xlink:href="#20" y="20.206999999999997"></use><use xlink:href="#24" y="22.044"></use><use xlink:href="#25" y="23.881000000000004"></use><use xlink:href="#5" y="25.718"></use></svg><svg x="1600"><use xlink:href="#a"></use><use xlink:href="#b" x="-0.0040000000000000036" y="29.217"></use><use xlink:href="#10" y="0"></use><use xlink:href="#11" y="1.837"></use><use xlink:href="#5" y="3.674"></use><use xlink:href="#12" y="5.511"></use><use xlink:href="#13" y="9.185"></use><use xlink:href="#17" y="11.022"></use><use xlink:href="#18" y="12.859"></use><use xlink:href="#5" y="14.696"></use><use xlink:href="#19" y="16.533"></use><use xlink:href="#20" y="20.206999999999997"></use><use xlink:href="#24" y="22.044"></use><use xlink:href="#25" y="23.881000000000004"></use><use xlink:href="#5" y="25.718"></use><use xlink:href="#26" y="27.555"></use></svg><svg x="1680"><use xlink:href="#a"></use><use xlink:href="#b" x="0.996" y="29.217"></use><use xlink:href="#10" y="0"></use><use xlink:href="#11" y="1.837"></use><use xlink:href="#5" y="3.674"></use><use xlink:href="#12" y="5.511"></use><use xlink:href="#13" y="9.185"></use><use xlink:href="#17" y="11.022"></use><use xlink:href="#18" y="12.859"></use><use xlink:href="#5" y="14.696"></use><use xlink:href="#19" y="16.533"></use><use xlink:href="#20" y="20.206999999999997"></use><use xlink:href="#24" y="22.044"></use><use xlink:href="#25" y="23.881000000000004"></use><use xlink:href="#5" y="25.718"></use><use xlink:href="#26" y="27.555"></use></svg></svg></g></g></svg></svg>