<svg xmlns="http://www.w3.org/2000/svg" xmlns:xlink="http://www.w3.org/1999/xlink" width="800" height="330.66"><rect width="800" height="330.66" rx="0" ry="0" class="a"></rect><svg height="330.66" viewBox="0 0 80 33.066" width="800" xmlns="http://www.w3.org/2000/svg" xmlns:xlink="http://www.w3.org/1999/xlink"><style>.a{fill:rgb(40,44,52)}.b{font-family:Consolas,"Courier New",Courier,"Liberation Mono",monospace}.c{fill:rgb(171,178,191);white-space:pre}.d{fill:transparent}.e{fill:rgb(82,139,255)}.g{animation-duration:13.599999999999998s;animation-iteration-count:infinite;animation-name:f;animation-timing-function:steps(1,end)}@keyframes f{0%{transform:translateX(-0px)}0.6%{transform:translateX(-80px)}0.7%{transform:translateX(-160px)}22.7%{transform:translateX(-240px)}22.7%{transform:translateX(-320px)}22.7%{transform:translateX(-400px)}22.8%{transform:translateX(-480px)}22.9%{transform:translateX(-560px)}39.8%{transform:translateX(-640px)}39.8%{transform:translateX(-720px)}39.9%{transform:translateX(-800px)}62%{transform:translateX(-880px)}62%{transform:translateX(-960px)}62%{transform:translateX(-1040px)}62.3%{transform:translateX(-1120px)}77.1%{transform:translateX(-1200px)}77.9%{transform:translateX(-1280px)}100%{transform:translateX(-1360px)}}</style><g font-family="Consolas, &quot;Courier New&quot;, Courier, &quot;Liberation Mono&quot;, monospace" font-size="1.67" class="b"><defs><symbol id="1"><text x="0" y="1.67" class="c">---</text><text x="4.008" y="1.67" class="c">Text</text><text x="9.017999999999999" y="1.67" class="c">---</text></symbol><symbol id="2"><text x="0" y="1.67" class="c">o</text><text x="3.006" y="1.67" class="c">Project</text><text x="11.021999999999998" y="1.67" class="c">name</text></symbol><symbol id="3"><text x="0" y="1.67" class="c">|</text><text x="3.006" y="1.67" class="c">Used</text><text x="8.016" y="1.67" class="c">as</text><text x="11.021999999999998" y="1.67" class="c">the</text><text x="15.029999999999998" y="1.67" class="c">directory</text><text x="25.05" y="1.67" class="c">name</text><text x="30.059999999999995" y="1.67" class="c">and</text><text x="34.068" y="1.67" class="c">the</text><text x="38.07599999999999" y="1.67" class="c">&quot;name&quot;</text><text x="45.089999999999996" y="1.67" class="c">field</text></symbol><symbol id="4"><text x="0" y="1.67" class="c">|</text></symbol><symbol id="5"><text x="0" y="1.67" class="c">+</text><text x="3.006" y="1.67" class="c">Project</text><text x="11.021999999999998" y="1.67" class="c">name</text></symbol><symbol id="6"><text x="0" y="1.67" class="c">|</text><text x="3.006" y="1.67" class="c">my-project</text></symbol><symbol id="7"><text x="2.004" y="1.67" class="c">Result:</text><text x="10.02" y="1.67" class="c">my-project</text></symbol><symbol id="8"><text x="0" y="1.67" class="c">---</text><text x="4.008" y="1.67" class="c">Select</text><text x="11.021999999999998" y="1.67" class="c">---</text></symbol><symbol id="9"><text x="0" y="1.67" class="c">+</text><text x="3.006" y="1.67" class="c">Framework</text></symbol><symbol id="10"><text x="0" y="1.67" class="c">|</text><text x="3.006" y="1.67" class="c">Vue</text></symbol><symbol id="11"><text x="2.004" y="1.67" class="c">Result:</text><text x="10.02" y="1.67" class="c">vue</text></symbol><symbol id="12"><text x="0" y="1.67" class="c">---</text><text x="4.008" y="1.67" class="c">Multiselect</text><text x="16.032" y="1.67" class="c">---</text></symbol><symbol id="13"><text x="0" y="1.67" class="c">+</text><text x="3.006" y="1.67" class="c">Features</text></symbol><symbol id="14"><text x="0" y="1.67" class="c">|</text><text x="3.006" y="1.67" class="c">ESLint,</text><text x="11.021999999999998" y="1.67" class="c">Prettier</text></symbol><symbol id="15"><text x="2.004" y="1.67" class="c">Result:</text><text x="10.02" y="1.67" class="c">eslint,</text><text x="18.035999999999998" y="1.67" class="c">prettier</text></symbol><symbol id="16"><text x="0" y="1.67" class="c">---</text><text x="4.008" y="1.67" class="c">Confirm</text><text x="12.024" y="1.67" class="c">---</text></symbol><symbol id="17"><text x="0" y="1.67" class="c">+</text><text x="3.006" y="1.67" class="c">Install</text><text x="11.021999999999998" y="1.67" class="c">dependencies?</text></symbol><symbol id="18"><text x="0" y="1.67" class="c">|</text><text x="3.006" y="1.67" class="c">Yes</text></symbol><symbol id="19"><text x="2.004" y="1.67" class="c">Result:</text><text x="10.02" y="1.67" class="c">yes</text></symbol><symbol id="a"><rect height="18" width="80" x="0" y="0" class="d"></rect></symbol><symbol id="b"><rect height="1.837" width="1.1022" class="e"></rect></symbol></defs><rect height="33.066" width="80" class="a"></rect><g class="g"><svg x="0" y="0" width="1440"><svg x="0"><use xlink:href="#a"></use><use xlink:href="#b" x="-0.0040000000000000036" y="0"></use></svg><svg x="80"><use xlink:href="#a"></use><use xlink:href="#b" x="-0.0040000000000000036" y="3.499"></use><use xlink:href="#1" y="1.837"></use></svg><svg x="160"><use xlink:href="#a"></use><use xlink:href="#1" y="1.837"></use><use xlink:href="#2" y="3.674"></use><use xlink:href="#3" y="5.511"></use><text x="0" y="9.018" class="c">|</text><text x="3.006" y="9.018" class="c">in</text><text x="6.012" y="9.018" class="c">package.json.</text><use xlink:href="#4" y="9.185"></use><text x="0" y="12.692" class="c">|</text><text x="3.006" y="12.692" class="c">my-app█</text><use xlink:href="#4" y="12.859"></use></svg><svg x="240"><use xlink:href="#a"></use><use xlink:href="#1" y="1.837"></use><use xlink:href="#2" y="3.674"></use><text x="0" y="7.181" class="c">|</text><text x="3.006" y="7.181" class="c">Used</text><text x="8.016" y="7.181" class="c">as</text><text x="11.021999999999998" y="7.181" class="c">the</text><text x="15.029999999999998" y="7.181" class="c">dir</text></svg><svg x="320"><use xlink:href="#a"></use><use xlink:href="#1" y="1.837"></use><use xlink:href="#2" y="3.674"></use><use xlink:href="#3" y="5.511"></use><text x="0" y="9.018" class="c">|</text><text x="3.006" y="9.018" class="c">in</text><text x="6.012" y="9.018" class="c">package.j</text></svg><svg x="400"><use xlink:href="#a"></use><use xlink:href="#1" y="1.837"></use><use xlink:href="#5" y="3.674"></use><use xlink:href="#6" y="5.511"></use><use xlink:href="#4" y="7.348"></use></svg><svg x="480"><use xlink:href="#a"></use><use xlink:href="#b" x="-0.0040000000000000036" y="14.520999999999999"></use><use xlink:href="#1" y="1.837"></use><use xlink:href="#5" y="3.674"></use><use xlink:href="#6" y="5.511"></use><use xlink:href="#4" y="7.348"></use><use xlink:href="#7" y="9.185"></use><use xlink:href="#8" y="12.859"></use></svg><svg x="560"><use xlink:href="#a"></use><use xlink:href="#1" y="1.837"></use><use xlink:href="#5" y="3.674"></use><use xlink:href="#6" y="5.511"></use><use xlink:href="#4" y="7.348"></use><use xlink:href="#7" y="9.185"></use><use xlink:href="#8" y="12.859"></use><text x="0" y="16.366" class="c">o</text><text x="3.006" y="16.366" class="c">Framework</text><text x="0" y="18.203000000000003" class="c">|</text><text x="3.006" y="18.203000000000003" class="c">The</text><text x="7.013999999999999" y="18.203000000000003" class="c">UI</text><text x="10.02" y="18.203000000000003" class="c">layer</text><text x="16.032" y="18.203000000000003" class="c">for</text><text x="20.04" y="18.203000000000003" class="c">your</text><text x="25.05" y="18.203000000000003" class="c">project.</text><use xlink:href="#4" y="18.37"></use><text x="0" y="21.876999999999995" class="c">|</text><text x="3.006" y="21.876999999999995" class="c">(*)</text><text x="7.013999999999999" y="21.876999999999995" class="c">React</text><text x="0" y="23.714" class="c">|</text><text x="5.01" y="23.714" class="c">--&gt;</text><text x="9.017999999999999" y="23.714" class="c">Component-based</text><text x="25.05" y="23.714" class="c">library</text><text x="33.065999999999995" y="23.714" class="c">by</text><text x="36.071999999999996" y="23.714" class="c">Meta</text><text x="41.082" y="23.714" class="c">with</text><text x="46.09199999999999" y="23.714" class="c">the</text><text x="50.1" y="23.714" class="c">largest</text><text x="58.116" y="23.714" class="c">ecosystem.</text><text x="0" y="25.551000000000002" class="c">|</text><text x="3.006" y="25.551000000000002" class="c">(</text><text x="5.01" y="25.551000000000002" class="c">)</text><text x="7.013999999999999" y="25.551000000000002" class="c">Vue</text><text x="0" y="27.387999999999998" class="c">|</text><text x="3.006" y="27.387999999999998" class="c">(</text><text x="5.01" y="27.387999999999998" class="c">)</text><text x="7.013999999999999" y="27.387999999999998" class="c">Svelte</text><use xlink:href="#4" y="27.555"></use></svg><svg x="640"><use xlink:href="#a"></use><use xlink:href="#1" y="1.837"></use><use xlink:href="#5" y="3.674"></use><use xlink:href="#6" y="5.511"></use><use xlink:href="#4" y="7.348"></use><use xlink:href="#7" y="9.185"></use><use xlink:href="#8" y="12.859"></use><use xlink:href="#9" y="14.696"></use><use xlink:href="#10" y="16.533"></use><use xlink:href="#4" y="18.37"></use></svg><svg x="720"><use xlink:href="#a"></use><use xlink:href="#b" x="-0.0040000000000000036" y="25.543"></use><use xlink:href="#1" y="1.837"></use><use xlink:href="#5" y="3.674"></use><use xlink:href="#6" y="5.511"></use><use xlink:href="#4" y="7.348"></use><use xlink:href="#7" y="9.185"></use><use xlink:href="#8" y="12.859"></use><use xlink:href="#9" y="14.696"></use><use xlink:href="#10" y="16.533"></use><use xlink:href="#4" y="18.37"></use><use xlink:href="#11" y="20.206999999999997"></use><use xlink:href="#12" y="23.881000000000004"></use></svg><svg x="800"><use xlink:href="#a"></use><use xlink:href="#8" y="0"></use><use xlink:href="#9" y="1.837"></use><use xlink:href="#10" y="3.674"></use><use xlink:href="#4" y="5.511"></use><use xlink:href="#11" y="7.348"></use><use xlink:href="#12" y="11.022"></use><text x="0" y="14.529" class="c">o</text><text x="3.006" y="14.529" class="c">Features</text><text x="0" y="16.366" class="c">|</text><text x="3.006" y="16.366" class="c">Select</text><text x="10.02" y="16.366" class="c">features</text><text x="19.037999999999997" y="16.366" class="c">to</text><text x="22.043999999999997" y="16.366" class="c">include.</text><text x="0" y="18.203000000000003" class="c">|</text><text x="3.006" y="18.203000000000003" class="c">Space</text><text x="9.017999999999999" y="18.203000000000003" class="c">to</text><text x="12.024" y="18.203000000000003" class="c">toggle,</text><text x="20.04" y="18.203000000000003" class="c">enter</text><text x="26.052" y="18.203000000000003" class="c">to</text><text x="29.058" y="18.203000000000003" class="c">confirm.</text><use xlink:href="#4" y="18.37"></use><text x="0" y="21.876999999999995" class="c">|</text><text x="3.006" y="21.876999999999995" class="c">[</text><text x="5.01" y="21.876999999999995" class="c">]</text><text x="7.013999999999999" y="21.876999999999995" class="c">TypeScript</text><text x="0" y="23.714" class="c">|</text><text x="5.01" y="23.714" class="c">--&gt;</text><text x="9.017999999999999" y="23.714" class="c">Adds</text><text x="14.027999999999999" y="23.714" class="c">type</text><text x="19.037999999999997" y="23.714" class="c">safety</text><text x="26.052" y="23.714" class="c">with</text><text x="31.061999999999998" y="23.714" class="c">static</text><text x="38.07599999999999" y="23.714" class="c">type</text><text x="43.086" y="23.714" class="c">checking.</text><text x="0" y="25.551000000000002" class="c">|</text><text x="3.006" y="25.551000000000002" class="c">[</text><text x="5.01" y="25.551000000000002" class="c">]</text><text x="7.013999999999999" y="25.551000000000002" class="c">ESLint</text><text x="0" y="27.387999999999998" class="c">|</text><text x="3.006" y="27.387999999999998" class="c">[</text><text x="5.01" y="27.387999999999998" class="c">]</text><text x="7.013999999999999" y="27.387999999999998" class="c">Prettier</text><text x="0" y="29.225" class="c">|</text><text x="3.006" y="29.225" class="c">[</text><text x="5.01" y="29.225" class="c">]</text><text x="7.013999999999999" y="29.225" class="c">Vitest</text><use xlink:href="#4" y="29.392"></use></svg><svg x="880"><use xlink:href="#a"></use><use xlink:href="#9" y="0"></use><use xlink:href="#10" y="1.837"></use><use xlink:href="#4" y="3.674"></use><use xlink:href="#11" y="5.511"></use><use xlink:href="#12" y="9.185"></use><use xlink:href="#13" y="11.022"></use><use xlink:href="#4" y="12.859"></use></svg><svg x="960"><use xlink:href="#a"></use><use xlink:href="#9" y="0"></use><use xlink:href="#10" y="1.837"></use><use xlink:href="#4" y="3.674"></use><use xlink:href="#11" y="5.511"></use><use xlink:href="#12" y="9.185"></use><use xlink:href="#13" y="11.022"></use><use xlink:href="#14" y="12.859"></use><use xlink:href="#4" y="14.696"></use></svg><svg x="1040"><use xlink:href="#a"></use><use xlink:href="#b" x="-0.0040000000000000036" y="21.869"></use><use xlink:href="#9" y="0"></use><use xlink:href="#10" y="1.837"></use><use xlink:href="#4" y="3.674"></use><use xlink:href="#11" y="5.511"></use><use xlink:href="#12" y="9.185"></use><use xlink:href="#13" y="11.022"></use><use xlink:href="#14" y="12.859"></use><use xlink:href="#4" y="14.696"></use><use xlink:href="#15" y="16.533"></use><use xlink:href="#16" y="20.206999999999997"></use></svg><svg x="1120"><use xlink:href="#a"></use><use xlink:href="#9" y="0"></use><use xlink:href="#10" y="1.837"></use><use xlink:href="#4" y="3.674"></use><use xlink:href="#11" y="5.511"></use><use xlink:href="#12" y="9.185"></use><use xlink:href="#13" y="11.022"></use><use xlink:href="#14" y="12.859"></use><use xlink:href="#4" y="14.696"></use><use xlink:href="#15" y="16.533"></use><use xlink:href="#16" y="20.206999999999997"></use><text x="0" y="23.714" class="c">o</text><text x="3.006" y="23.714" class="c">Install</text><text x="11.021999999999998" y="23.714" class="c">dependencies?</text><text x="0" y="25.551000000000002" class="c">|</text><text x="3.006" y="25.551000000000002" class="c">Runs</text><text x="8.016" y="25.551000000000002" class="c">npm</text><text x="12.024" y="25.551000000000002" class="c">install</text><text x="20.04" y="25.551000000000002" class="c">after</text><text x="26.052" y="25.551000000000002" class="c">scaffolding.</text><use xlink:href="#4" y="25.718"></use><text x="0" y="29.225" class="c">|</text><text x="3.006" y="29.225" class="c">(*)</text><text x="7.013999999999999" y="29.225" class="c">Yes</text><text x="11.021999999999998" y="29.225" class="c">/</text><text x="13.026" y="29.225" class="c">(</text><text x="15.029999999999998" y="29.225" class="c">)</text><text x="17.034" y="29.225" class="c">No</text><use xlink:href="#4" y="29.392"></use></svg><svg x="1200"><use xlink:href="#a"></use><use xlink:href="#9" y="0"></use><use xlink:href="#10" y="1.837"></use><use xlink:href="#4" y="3.674"></use><use xlink:href="#11" y="5.511"></use><use xlink:href="#12" y="9.185"></use><use xlink:href="#13" y="11.022"></use><use xlink:href="#14" y="12.859"></use><use xlink:href="#4" y="14.696"></use><use xlink:href="#15" y="16.533"></use><use xlink:href="#16" y="20.206999999999997"></use><use xlink:href="#17" y="22.044"></use><use xlink:href="#18" y="23.881000000000004"></use><use xlink:href="#4" y="25.718"></use></svg><svg x="1280"><use xlink:href="#a"></use><use xlink:href="#b" x="-0.0040000000000000036" y="29.217"></use><use xlink:href="#9" y="0"></use><use xlink:href="#10" y="1.837"></use><use xlink:href="#4" y="3.674"></use><use xlink:href="#11" y="5.511"></use><use xlink:href="#12" y="9.185"></use><use xlink:href="#13" y="11.022"></use><use xlink:href="#14" y="12.859"></use><use xlink:href="#4" y="14.696"></use><use xlink:href="#15" y="16.533"></use><use xlink:href="#16" y="20.206999999999997"></use><use xlink:href="#17" y="22.044"></use><use xlink:href="#18" y="23.881000000000004"></use><use xlink:href="#4" y="25.718"></use><use xlink:href="#19" y="27.555"></use></svg><svg x="1360"><use xlink:href="#a"></use><use xlink:href="#b" x="0.996" y="29.217"></use><use xlink:href="#9" y="0"></use><use xlink:href="#10" y="1.837"></use><use xlink:href="#4" y="3.674"></use><use xlink:href="#11" y="5.511"></use><use xlink:href="#12" y="9.185"></use><use xlink:href="#13" y="11.022"></use><use xlink:href="#14" y="12.859"></use><use xlink:href="#4" y="14.696"></use><use xlink:href="#15" y="16.533"></use><use xlink:href="#16" y="20.206999999999997"></use><use xlink:href="#17" y="22.044"></use><use xlink:href="#18" y="23.881000000000004"></use><use xlink:href="#4" y="25.718"></use><use xlink:href="#19" y="27.555"></use></svg></svg></g></g></svg></svg>